<svg width="25" height="24" viewBox="0 0 25 24" fill="none" xmlns="http://www.w3.org/2000/svg">
<path d="M14 13.1247L15.5 11.9997V16.8747M9.125 11.9997H11.75L10.25 13.8747C10.4966 13.8747 10.7395 13.9355 10.957 14.0518C11.1745 14.168 11.36 14.3361 11.4971 14.5411C11.6341 14.7462 11.7185 14.9819 11.7427 15.2273C11.767 15.4728 11.7303 15.7204 11.636 15.9483C11.5417 16.1762 11.3926 16.3773 11.202 16.5338C11.0114 16.6904 10.7852 16.7975 10.5433 16.8457C10.3014 16.894 10.0514 16.8818 9.81534 16.8103C9.57928 16.7389 9.36449 16.6103 9.18999 16.436M4.25 8.25H20.75M17 2.25V5.25M8 2.25V5.25M5 3.75H20C20.4142 3.75 20.75 4.08579 20.75 4.5V19.5C20.75 19.9142 20.4142 20.25 20 20.25H5C4.58579 20.25 4.25 19.9142 4.25 19.5V4.5C4.25 4.08579 4.58579 3.75 5 3.75Z" stroke="#667085" stroke-width="1.5" stroke-linecap="round" stroke-linejoin="round"/>
</svg>
