<?xml version="1.0" encoding="UTF-8"?>
<svg version="1.1" xmlns="http://www.w3.org/2000/svg" width="512" height="512">
<path d="M0 0 C14.35060976 11.82621951 14.35060976 11.82621951 17.3125 17.75 C18.31023437 17.46125 19.30796875 17.1725 20.3359375 16.875 C45.27156561 10.2160202 69.73440713 12.49629263 92.45458984 24.67236328 C96.82630263 27.20807159 100.57022109 30.38396457 104.3125 33.75 C105.28058594 34.52472656 106.24867188 35.29945312 107.24609375 36.09765625 C121.38064615 47.86789974 131.23855542 67.62818909 133.3125 85.75 C135.31294077 112.97474862 129.48963895 136.25491768 111.5625 157.25 C108.61037234 160.60106383 108.61037234 160.60106383 106.3125 161.75 C107.4675 162.245 108.6225 162.74 109.8125 163.25 C156.23179561 183.94557293 193.62478847 216.92256895 212.54199219 264.92285156 C219.58089 283.69565714 223.38145572 302.73127173 223.6875 322.75 C223.71376465 323.83780762 223.7400293 324.92561523 223.76708984 326.04638672 C223.77927995 332.07861234 223.64184121 336.13991653 219.3125 340.75 C215.59743214 343.40176195 213.07097746 344.12565828 208.52905369 344.13031673 C206.78494012 344.14297665 206.78494012 344.14297665 205.00559193 344.15589231 C203.73245402 344.14988227 202.45931611 344.14387222 201.14759827 344.13768005 C199.77812098 344.1418532 198.40864715 344.14733061 197.03917974 344.15399987 C193.27666883 344.16847586 189.51437657 344.1642031 185.75185359 344.15683305 C181.69382639 344.15210899 177.63584702 344.16460446 173.57783508 344.17485046 C165.62818813 344.19205871 157.67862014 344.19287429 149.72895939 344.18763756 C143.26840431 344.18359844 136.8078726 344.18503634 130.34731865 344.19038582 C128.96880343 344.19150845 128.96880343 344.19150845 127.56243942 344.19265376 C125.69555747 344.19418522 123.82867553 344.19572357 121.96179359 344.19726873 C104.44910958 344.21100107 86.93647023 344.2055509 69.42378723 344.19408352 C53.397595 344.18415005 37.3715182 344.19709248 21.34534378 344.22101771 C4.89442395 344.24539225 -11.55644207 344.25502066 -28.00737959 344.24836498 C-37.24525373 344.24486914 -46.48303907 344.24712889 -55.72089958 344.26461601 C-63.58479398 344.27931742 -71.44853704 344.28000049 -79.31242841 344.2625451 C-83.32535431 344.25401571 -87.33800964 344.25193257 -91.35092163 344.26719666 C-95.02430324 344.28099639 -98.69718129 344.27634206 -102.37053341 344.25695742 C-104.32931269 344.25139377 -106.28811729 344.26550822 -108.24684852 344.28031152 C-114.66257823 344.22627984 -118.86197869 344.17989083 -123.6875 339.75 C-127.80455965 335.16685813 -127.0271809 329.74768865 -126.875 323.9375 C-126.86146484 322.95845703 -126.84792969 321.97941406 -126.83398438 320.97070312 C-126.79875312 318.56323375 -126.74949265 316.15690436 -126.6875 313.75 C-127.81423126 313.75888245 -128.94096252 313.76776489 -130.10183716 313.7769165 C-140.72496821 313.85803554 -151.34803633 313.91798144 -161.97140694 313.95724869 C-167.43289228 313.97811515 -172.89412741 314.00641599 -178.35546875 314.05175781 C-183.62689546 314.09524856 -188.89808163 314.11914419 -194.16967392 314.12950897 C-196.17991802 314.1368945 -198.1901491 314.15131675 -200.20029068 314.17292023 C-203.0180929 314.2019969 -205.8349037 314.20595419 -208.65283203 314.20410156 C-209.48217758 314.21848267 -210.31152313 314.23286377 -211.16600037 314.24768066 C-216.48425007 314.20989559 -219.44481921 313.23933888 -223.6875 309.75 C-227.95276708 305.08880095 -227.14004098 299.08050391 -227.0625 293.125 C-227.05234863 292.00706055 -227.04219727 290.88912109 -227.03173828 289.73730469 C-226.20053514 244.64614534 -204.99693898 203.91994038 -174.125 171.9375 C-156.80078878 155.27960459 -136.19352381 142.70069702 -113.87109375 134.02734375 C-110.87301195 133.06649437 -110.87301195 133.06649437 -109.6875 131.75 C-110.6775 130.7909375 -110.6775 130.7909375 -111.6875 129.8125 C-112.68808526 128.79224031 -113.68800542 127.7713282 -114.6875 126.75 C-115.28046875 126.17636719 -115.8734375 125.60273438 -116.484375 125.01171875 C-133.17492975 107.82044735 -137.23844629 85.37626752 -136.95703125 62.32421875 C-136.42666893 43.93919594 -128.94446167 26.3803633 -116.6875 12.75 C-116.23246094 12.15445312 -115.77742188 11.55890625 -115.30859375 10.9453125 C-104.30522696 -3.30979552 -84.66753466 -13.19410913 -67.13183594 -15.96435547 C-42.5702552 -18.8346161 -20.07604902 -14.72483023 0 0 Z M-88.80859375 28.55859375 C-97.39719608 36.6276587 -104.85236716 48.84359669 -105.86450195 60.84960938 C-106.15406501 71.45384694 -106.29498938 80.94392886 -101.6875 90.75 C-101.336875 91.53246094 -100.98625 92.31492187 -100.625 93.12109375 C-93.31112325 107.77424266 -80.53306025 116.60477357 -65.47265625 121.875 C-60.80106962 122.9549127 -56.46311147 123.04276667 -51.6875 123 C-50.82382813 123.00773437 -49.96015625 123.01546875 -49.0703125 123.0234375 C-43.89054803 123.00769354 -39.59130939 122.42902169 -34.6875 120.75 C-34.84605469 119.52410156 -35.00460938 118.29820312 -35.16796875 117.03515625 C-37.89718474 92.22013555 -35.46060836 67.14846089 -19.4375 47 C-18.19702203 45.57498812 -16.94727376 44.15798243 -15.6875 42.75 C-15.01203125 41.89921875 -14.3365625 41.0484375 -13.640625 40.171875 C-12.07100711 38.22554882 -10.49632206 36.46838096 -8.6875 34.75 C-30.59557247 10.93687775 -63.50748991 6.98509268 -88.80859375 28.55859375 Z M26.3125 48.75 C25.53003906 49.100625 24.74757813 49.45125 23.94140625 49.8125 C9.31049511 57.11527714 0.4018681 69.91085039 -4.8046875 84.984375 C-7.54261498 96.66296831 -6.79163184 109.88692994 -1.6875 120.75 C-1.336875 121.53246094 -0.98625 122.31492187 -0.625 123.12109375 C6.67777714 137.75200489 19.47335039 146.6606319 34.546875 151.8671875 C46.22546831 154.60511498 59.44942994 153.85413184 70.3125 148.75 C71.09496094 148.399375 71.87742187 148.04875 72.68359375 147.6875 C87.31450489 140.38472286 96.2231319 127.58914961 101.4296875 112.515625 C104.16761498 100.83703169 103.41663184 87.61307006 98.3125 76.75 C97.961875 75.96753906 97.61125 75.18507813 97.25 74.37890625 C89.94722286 59.74799511 77.15164961 50.8393681 62.078125 45.6328125 C50.39953169 42.89488502 37.17557006 43.64586816 26.3125 48.75 Z M-25.328125 149.5546875 C-34.69188365 152.33138649 -43.68995473 153.23293725 -53.4375 153.75 C-88.56649812 155.69535276 -119.69829985 166.85863652 -146.6875 189.75 C-147.74904297 190.62785156 -147.74904297 190.62785156 -148.83203125 191.5234375 C-153.61082204 195.56210964 -157.73527902 199.90508023 -161.6875 204.75 C-162.44933594 205.67425781 -163.21117187 206.59851563 -163.99609375 207.55078125 C-181.78425897 229.5961536 -192.56038945 255.60600504 -195.6875 283.75 C-171.2675 283.75 -146.8475 283.75 -121.6875 283.75 C-119.75365192 278.59882404 -119.75365192 278.59882404 -117.83129883 273.44335938 C-109.47053787 250.92607354 -98.78673325 230.69591001 -82.6875 212.75 C-81.9140625 211.85539062 -81.140625 210.96078125 -80.34375 210.0390625 C-61.06162047 187.97324526 -35.76172076 173.27026864 -8.6875 162.75 C-9.08291992 162.29036865 -9.47833984 161.8307373 -9.88574219 161.35717773 C-13.09784256 157.61773956 -16.27031676 153.8516623 -19.390625 150.03515625 C-21.4550631 147.98937271 -22.62696114 148.73155177 -25.328125 149.5546875 Z M-54.6875 226.75 C-57.15831532 229.31499438 -59.44130701 231.98690068 -61.6875 234.75 C-62.44804687 235.67296875 -63.20859375 236.5959375 -63.9921875 237.546875 C-81.78397988 259.59086011 -92.56031386 285.60532478 -95.6875 313.75 C-0.6475 313.75 94.3925 313.75 192.3125 313.75 C190.57992943 301.43747676 190.57992943 301.43747676 187.6875 289.5 C187.42807617 288.61159424 187.16865234 287.72318848 186.90136719 286.80786133 C180.87236603 266.91959633 170.96605553 249.3978951 157.3125 233.75 C156.70664062 233.02296875 156.10078125 232.2959375 155.4765625 231.546875 C151.46027243 226.78548135 147.13612589 222.6848506 142.3125 218.75 C141.38824219 217.98816406 140.46398437 217.22632813 139.51171875 216.44140625 C81.71735014 169.82086122 -1.92463083 174.75980883 -54.6875 226.75 Z " fill="#000000" transform="translate(257.6875,16.25)"/>
<path d="M0 0 C0.74765625 -0.03738281 1.4953125 -0.07476562 2.265625 -0.11328125 C7.21989597 0.73579978 10.14168621 3.5408608 13.1796875 7.39453125 C14.00567738 8.63081676 14.82009611 9.87488365 15.625 11.125 C16.57948437 12.55942284 17.53529643 13.99296278 18.4921875 15.42578125 C19.0087793 16.20518066 19.52537109 16.98458008 20.05761719 17.78759766 C23.22188149 22.50843168 26.49409657 27.15463102 29.75 31.8125 C36.12558255 40.95028936 42.44433621 50.12639972 48.75 59.3125 C48.75364563 58.68689178 48.75729126 58.06128357 48.76104736 57.41671753 C48.80291474 50.8949492 48.87229045 44.37388184 48.95751953 37.85253906 C48.98571451 35.41999325 49.00693632 32.98735608 49.02099609 30.5546875 C49.04244508 27.05421218 49.08910843 23.55483369 49.140625 20.0546875 C49.14185364 18.97009247 49.14308228 17.88549744 49.14434814 16.76803589 C49.26224298 10.66598487 49.60693475 6.92144833 53.75 2.3125 C58.21792538 -0.66611692 62.51360556 -0.42059522 67.75 0.3125 C71.10109888 1.90888962 73.12960634 4.14092749 74.87944031 7.44537354 C76.04758665 11.29258049 76.08261993 15.01435792 76.11645508 18.99902344 C76.13131958 19.86311829 76.14618408 20.72721313 76.16149902 21.61749268 C76.20760735 24.46890612 76.23927034 27.32025229 76.26953125 30.171875 C76.29587923 32.16099574 76.32263395 34.15011114 76.34977722 36.13922119 C76.40418251 40.3085851 76.45096404 44.47795396 76.49291992 48.64746094 C76.54751341 53.97489225 76.62503069 59.30170884 76.70886707 64.62874985 C76.77027377 68.7380376 76.81731482 72.84739909 76.86032677 76.95691681 C76.88297394 78.92004883 76.91050487 80.8831311 76.94312477 82.84612274 C76.98714353 85.60028636 77.01122018 88.35396498 77.03051758 91.10839844 C77.04751205 91.9097522 77.06450653 92.71110596 77.08201599 93.53674316 C77.09499142 100.60377611 75.77812065 106.8280522 71.25 112.375 C67.61667104 115.00665932 63.78002374 114.83057119 59.43359375 114.78125 C54.21723312 113.8700953 51.70409104 111.477402 48.65625 107.3125 C47.51069642 105.65278443 46.37587598 103.98562644 45.25 102.3125 C44.64051514 101.42401367 44.03103027 100.53552734 43.40307617 99.62011719 C41.50994575 96.85678701 39.62994342 94.08481227 37.75 91.3125 C36.61188833 89.65021172 35.4726119 87.98872016 34.33203125 86.328125 C32.27488865 83.33153789 30.22234187 80.33194785 28.17578125 77.328125 C23.38893393 70.3080287 18.56614201 63.31251238 13.75 56.3125 C13.74857498 56.95063629 13.74714996 57.58877258 13.74568176 58.24624634 C13.72597056 64.89783519 13.67166582 71.54850812 13.59741211 78.19970703 C13.57423833 80.68075994 13.55983789 83.16191114 13.55444336 85.64306641 C13.54514989 89.21318776 13.50414637 92.78176441 13.45703125 96.3515625 C13.46293022 98.01126572 13.46293022 98.01126572 13.46894836 99.70449829 C13.30644521 108.31337444 13.30644521 108.31337444 10.33081055 111.99755859 C6.11990098 115.77466999 3.04444152 115.71751307 -2.48046875 115.65234375 C-6.94798959 115.10414303 -8.37898151 113.77244536 -11.25 110.3125 C-13.23524278 104.86302722 -13.53716719 99.9864895 -13.50878906 94.27539062 C-13.5122937 93.39803757 -13.51579834 92.52068451 -13.51940918 91.616745 C-13.52816831 88.73399807 -13.52239794 85.85149916 -13.515625 82.96875 C-13.51697332 80.9552811 -13.51891525 78.94181252 -13.52142334 76.92834473 C-13.52436672 72.71538178 -13.52010222 68.50250383 -13.51074219 64.28955078 C-13.49934817 58.89946984 -13.50591185 53.50958811 -13.51788712 48.11951447 C-13.52512691 43.96387237 -13.52280804 39.80827721 -13.51763153 35.65263367 C-13.5163009 33.66558305 -13.51792213 31.67852812 -13.52259064 29.69148254 C-13.52769072 26.91074392 -13.51989679 24.13032435 -13.50878906 21.34960938 C-13.51486176 20.12747993 -13.51486176 20.12747993 -13.52105713 18.88066101 C-13.48501467 13.99037503 -12.952503 9.91734268 -11.25 5.3125 C-7.62768216 1.87129805 -4.96278881 0.16036222 0 0 Z " fill="#000000" transform="translate(342.25,396.6875)"/>
<path d="M0 0 C1.01964844 0.43570312 2.03929688 0.87140625 3.08984375 1.3203125 C8.4381917 3.89257971 12.33315864 6.2426077 14.546875 11.91796875 C15.61125053 16.80859082 14.89234925 20.58454947 12.1875 24.875 C9.03363366 27.93875587 6.28274274 29.29924977 1.875 29.4375 C-2.97985063 29.35023961 -6.20363807 27.5331239 -10.3984375 25.25390625 C-18.16370455 21.51118745 -25.89015792 21.39133413 -34 24 C-41.78555522 26.83495761 -47.59321694 31.84967632 -51.375 39.25 C-54.85435198 46.81380865 -55.29395813 55.59811456 -53.3515625 63.70703125 C-50.17346253 71.46213844 -44.31136696 77.95541402 -37 82 C-29.13338116 85.24925561 -22.01416627 85.6810502 -14 83 C-9.87143056 81.20608937 -6.83725643 78.8738457 -3.625 75.75 C-0.87939554 73.30740144 0.94113523 72.55338316 4.625 72.4375 C9.42784901 72.78872875 12.24264837 74.36817349 15.75 77.625 C17.69720189 81.32468359 18.20539241 84.83549176 18 89 C14.48805896 98.09911997 6.15988621 103.83294452 -2.34765625 107.9921875 C-16.25081206 113.27497719 -33.41455564 112.99248368 -47 107 C-61.95851055 100.22255152 -71.26866776 89.67360394 -77.95703125 74.8359375 C-83.69233794 59.24105862 -82.47046395 42.07386422 -75.6796875 27.0859375 C-68.50058435 12.84542141 -56.88176615 3.47304623 -42 -2 C-28.55913399 -6.04503359 -12.87622697 -5.64101372 0 0 Z " fill="#000000" transform="translate(81,401)"/>
<path d="M0 0 C1.56971558 -0.00430527 1.56971558 -0.00430527 3.17114258 -0.00869751 C5.38005109 -0.01073578 7.58897775 -0.00522254 9.79785156 0.00732422 C13.17554146 0.02338065 16.55203475 0.00746687 19.9296875 -0.01171875 C22.07812764 -0.00973628 24.22656703 -0.00589252 26.375 0 C27.38344971 -0.00607269 28.39189941 -0.01214539 29.4309082 -0.0184021 C38.27206312 0.0701188 38.27206312 0.0701188 42.1875 3.3984375 C45.08300431 7.79161646 45.74628366 11.18312333 45.1875 16.3984375 C43.44137887 21.17729534 41.75473212 23.22347116 37.1875 25.3984375 C33.8659668 25.73901367 33.8659668 25.73901367 30.13671875 25.69140625 C29.47791214 25.68716141 28.81910553 25.68291656 28.14033508 25.67854309 C26.05146115 25.66184946 23.96357861 25.62421808 21.875 25.5859375 C20.45248797 25.57087847 19.0299607 25.55719219 17.60742188 25.54492188 C14.1334323 25.51453713 10.66156594 25.4558074 7.1875 25.3984375 C7.1875 31.9984375 7.1875 38.5984375 7.1875 45.3984375 C10.00667969 45.32882812 10.00667969 45.32882812 12.8828125 45.2578125 C15.35935909 45.22028907 17.83592289 45.18388952 20.3125 45.1484375 C22.16875 45.09816406 22.16875 45.09816406 24.0625 45.046875 C34.3439406 44.93632188 34.3439406 44.93632188 37.9296875 47.1640625 C41.32990297 50.52898161 42.47884198 53.00493021 42.5625 57.7734375 C42.45759746 62.32171174 41.23326708 64.92964722 38.1875 68.3984375 C34.77990454 70.63746962 31.9104973 70.63167332 27.890625 70.59375 C26.08271484 70.58408203 26.08271484 70.58408203 24.23828125 70.57421875 C22.35689453 70.54908203 22.35689453 70.54908203 20.4375 70.5234375 C19.16777344 70.51441406 17.89804687 70.50539063 16.58984375 70.49609375 C13.45564871 70.47252837 10.32155059 70.43665763 7.1875 70.3984375 C7.1875 76.9984375 7.1875 83.5984375 7.1875 90.3984375 C9.29511719 90.36363281 11.40273438 90.32882812 13.57421875 90.29296875 C15.62620694 90.26954077 17.67817996 90.25134279 19.73022461 90.23364258 C21.15119141 90.2185999 22.57211213 90.19816046 23.99291992 90.17211914 C26.04096886 90.13553403 28.0884015 90.11866653 30.13671875 90.10546875 C31.36737061 90.0897583 32.59802246 90.07404785 33.8659668 90.05786133 C37.4882869 90.42927893 39.31078004 91.20897528 42.1875 93.3984375 C45.08300431 97.79161646 45.74628366 101.18312333 45.1875 106.3984375 C43.9776687 109.70955474 42.93984418 111.75890703 40.25 114.04541016 C35.66757391 116.06994821 31.33156535 115.8267225 26.375 115.796875 C24.80528442 115.80118027 24.80528442 115.80118027 23.20385742 115.80557251 C20.99494891 115.80761078 18.78602225 115.80209754 16.57714844 115.78955078 C13.19945854 115.77349435 9.82296525 115.78940813 6.4453125 115.80859375 C4.29687236 115.80661128 2.14843297 115.80276752 0 115.796875 C-1.00844971 115.80294769 -2.01689941 115.80902039 -3.0559082 115.8152771 C-12.19668759 115.72375624 -12.19668759 115.72375624 -15.8125 112.3984375 C-19.11801303 107.19189385 -19.24202276 102.87163552 -19.20068359 96.90820312 C-19.20594055 95.97086838 -19.21119751 95.03353363 -19.21661377 94.0677948 C-19.22978073 90.97992115 -19.22108724 87.89256609 -19.2109375 84.8046875 C-19.21295918 82.65287172 -19.2158714 80.5010566 -19.21963501 78.34924316 C-19.22405389 73.84360214 -19.2176412 69.33813976 -19.20361328 64.83251953 C-19.18652181 59.06221546 -19.1963653 53.29233004 -19.21433067 47.52204132 C-19.22518018 43.07990372 -19.22171677 38.63786509 -19.2139473 34.19572449 C-19.21194853 32.06829275 -19.2143932 29.94085197 -19.22138596 27.81343079 C-19.22901947 24.83826962 -19.21736924 21.86378292 -19.20068359 18.88867188 C-19.20675629 18.01264816 -19.21282898 17.13662445 -19.21908569 16.23405457 C-19.16696439 11.20797898 -18.58267731 7.76176897 -15.8125 3.3984375 C-11.32502475 -0.72851486 -5.75071135 -0.03462969 0 0 Z " fill="#000000" transform="translate(264.8125,396.6015625)"/>
<path d="M0 0 C1.20167313 -0.0159874 2.40334625 -0.03197479 3.64143372 -0.04844666 C4.94142807 -0.05380936 6.24142242 -0.05917206 7.58081055 -0.06469727 C8.92978515 -0.07366661 10.27875874 -0.08278851 11.62773132 -0.09205627 C14.45643529 -0.10854493 17.28502094 -0.11624584 20.11376953 -0.11914062 C23.72880553 -0.12451773 27.34272048 -0.16216769 30.95744038 -0.20788479 C33.74482725 -0.23771447 36.53194641 -0.24486546 39.31947899 -0.24586678 C41.29702522 -0.25209093 43.27445452 -0.28153743 45.25178528 -0.31138611 C55.26413811 -0.26114181 55.26413811 -0.26114181 58.95654297 2.71630859 C62.57430299 6.97847584 62.54313246 10.06024469 62.5144043 15.53295898 C61.95792184 19.82755186 60.32331043 21.43985641 57.1550293 24.30639648 C53.84508217 25.96137005 50.16379929 25.40723984 46.5300293 25.36889648 C45.72823242 25.36438477 44.92643555 25.35987305 44.1003418 25.35522461 C42.11853924 25.34342817 40.13677496 25.32549253 38.1550293 25.30639648 C38.15947052 26.26804214 38.16391174 27.22968781 38.16848755 28.22047424 C38.20909084 37.29813979 38.23904115 46.37578682 38.25865364 55.45352268 C38.26907568 60.12009539 38.283206 64.78659459 38.3059082 69.453125 C38.32769295 73.95944374 38.33960981 78.46569191 38.34478378 82.97205925 C38.34846944 84.68838549 38.35566656 86.40470803 38.36648941 88.1210041 C38.38107926 90.5312741 38.38300412 92.94125521 38.38208008 95.3515625 C38.38927063 96.05575317 38.39646118 96.75994385 38.40386963 97.48547363 C38.3787976 103.5582782 37.64812322 108.50702688 33.7175293 113.24389648 C30.02848196 115.97215999 26.25349873 116.00108453 21.7878418 115.80639648 C17.66519879 115.02346131 15.94623827 113.39141693 13.1550293 110.30639648 C11.59623374 107.18880538 12.02550797 103.88125163 12.04150391 100.46020508 C12.04135788 99.65036667 12.04121185 98.84052826 12.0410614 98.00614929 C12.04175953 95.32235052 12.04954725 92.63862067 12.05737305 89.95483398 C12.05923758 88.09681232 12.06066132 86.23879016 12.06166077 84.38076782 C12.06548315 79.4849716 12.07531107 74.58920494 12.08636475 69.69342041 C12.09658486 64.69983317 12.10115968 59.70624116 12.10620117 54.71264648 C12.11693357 44.91055015 12.13400666 35.10847577 12.1550293 25.30639648 C10.99745117 25.35280273 9.83987305 25.39920898 8.6472168 25.44702148 C7.10818024 25.48455896 5.56911559 25.520957 4.0300293 25.55639648 C3.26948242 25.58991211 2.50893555 25.62342773 1.7253418 25.65795898 C-3.63217579 25.75032998 -6.58663379 24.85459962 -10.8449707 21.30639648 C-13.57682988 17.31124983 -13.51736768 12.98077064 -12.8449707 8.30639648 C-9.61484026 2.18028702 -6.87026786 0.06903232 0 0 Z " fill="#000000" transform="translate(449.844970703125,396.693603515625)"/>
<path d="M0 0 C3.67510869 3.3410079 4.95671385 6.76172863 5.42326355 11.67160034 C5.43187285 13.11162329 5.42418197 14.55180521 5.40307617 15.99169922 C5.40373329 17.17807228 5.40373329 17.17807228 5.40440369 18.38841248 C5.40232448 20.98576097 5.37903503 23.58245268 5.35546875 26.1796875 C5.3498697 27.98714851 5.34560106 29.7946141 5.34260559 31.6020813 C5.33118118 36.34668671 5.30173477 41.09101422 5.26849365 45.83551025 C5.23774085 50.6819686 5.22408913 55.52847209 5.20898438 60.375 C5.1768627 69.87512173 5.12569551 79.3750377 5.0625 88.875 C5.81934082 88.71346436 6.57618164 88.55192871 7.35595703 88.38549805 C14.81118809 86.97932015 24.08064888 86.60689948 31.0625 89.875 C34.05012535 92.7327286 35.74180911 94.87016856 37 98.8125 C37.07794722 102.63191401 36.50596499 105.33194958 35.0625 108.875 C28.03927917 115.54705979 19.90710504 114.20329692 10.77905273 114.2800293 C8.85178678 114.30157838 6.92461788 114.33564465 4.99780273 114.38256836 C2.21293625 114.44975712 -0.56990474 114.47706057 -3.35546875 114.49609375 C-4.20989059 114.52392441 -5.06431244 114.55175507 -5.94462585 114.58042908 C-11.58849799 114.56118888 -14.51895623 113.32214035 -18.64546204 109.45863342 C-20.84247408 106.76578554 -21.06385532 104.20948779 -21.07794189 100.87211609 C-21.08365204 100.06049011 -21.08936218 99.24886414 -21.09524536 98.41264343 C-21.09636322 97.52583389 -21.09748108 96.63902435 -21.09863281 95.7253418 C-21.10359772 94.78844513 -21.10856262 93.85154846 -21.11367798 92.88626099 C-21.12830051 89.78223947 -21.13510187 86.67826907 -21.140625 83.57421875 C-21.14637649 81.41811624 -21.15213423 79.26201374 -21.15789795 77.10591125 C-21.16840828 72.58240521 -21.1742507 68.05891693 -21.17773438 63.53540039 C-21.18321832 57.74151077 -21.20724423 51.94785624 -21.23570633 46.15404034 C-21.25433812 41.69905411 -21.25953861 37.24412445 -21.26107025 32.78910255 C-21.26409621 30.65328499 -21.27212281 28.51746841 -21.28525543 26.38168907 C-21.30232652 23.39189186 -21.30043292 20.40266809 -21.29394531 17.4128418 C-21.3031601 16.53210495 -21.31237488 15.6513681 -21.3218689 14.74394226 C-21.28762358 9.70114955 -20.72566674 6.25010635 -17.9375 1.875 C-13.0557142 -2.56298709 -5.89272618 -2.25678875 0 0 Z " fill="#000000" transform="translate(138.9375,398.125)"/>
<path d="M0 0 C3.06219472 2.78381338 4.7846324 5.79158375 5.33973312 9.95365906 C5.45208201 12.42879719 5.46785897 14.88758006 5.45068359 17.36523438 C5.45594055 18.30256912 5.46119751 19.23990387 5.46661377 20.2056427 C5.47978073 23.29351635 5.47108724 26.38087141 5.4609375 29.46875 C5.46295918 31.62056578 5.4658714 33.7723809 5.46963501 35.92419434 C5.47405389 40.42983536 5.4676412 44.93529774 5.45361328 49.44091797 C5.43652181 55.21122204 5.4463653 60.98110746 5.46433067 66.75139618 C5.47518018 71.19353378 5.47171677 75.63557241 5.4639473 80.07771301 C5.46194853 82.20514475 5.4643932 84.33258553 5.47138596 86.46000671 C5.47901947 89.43516788 5.46736924 92.40965458 5.45068359 95.38476562 C5.45979263 96.69880119 5.45979263 96.69880119 5.46908569 98.03938293 C5.41697169 103.06475474 4.83514413 106.51373166 2.0625 110.875 C-1.74471148 114.33610135 -5.6396264 114.33194497 -10.56640625 114.15625 C-13.76848709 113.77643151 -15.54409048 113.05082683 -17.9375 110.875 C-21.24559936 105.67148006 -21.36701181 101.34661721 -21.32568359 95.38476562 C-21.33094055 94.44743088 -21.33619751 93.51009613 -21.34161377 92.5443573 C-21.35478073 89.45648365 -21.34608724 86.36912859 -21.3359375 83.28125 C-21.33795918 81.12943422 -21.3408714 78.9776191 -21.34463501 76.82580566 C-21.34905389 72.32016464 -21.3426412 67.81470226 -21.32861328 63.30908203 C-21.31152181 57.53877796 -21.3213653 51.76889254 -21.33933067 45.99860382 C-21.35018018 41.55646622 -21.34671677 37.11442759 -21.3389473 32.67228699 C-21.33694853 30.54485525 -21.3393932 28.41741447 -21.34638596 26.28999329 C-21.35401947 23.31483212 -21.34236924 20.34034542 -21.32568359 17.36523438 C-21.33175629 16.48921066 -21.33782898 15.61318695 -21.34408569 14.71061707 C-21.29197169 9.68524526 -20.71014413 6.23626834 -17.9375 1.875 C-13.0557142 -2.56298709 -5.89272618 -2.25678875 0 0 Z " fill="#000000" transform="translate(217.9375,398.125)"/>
</svg>
