<svg width="19" height="18" viewBox="0 0 19 18" fill="none" xmlns="http://www.w3.org/2000/svg">
<path fill-rule="evenodd" clip-rule="evenodd" d="M0.5 2.5C0.5 1.11929 1.61929 0 3 0H6C7.38071 0 8.5 1.11929 8.5 2.5V5.5C8.5 6.88071 7.38071 8 6 8H3C1.61929 8 0.5 6.88071 0.5 5.5V2.5ZM3 2H6C6.27614 2 6.5 2.22386 6.5 2.5V5.5C6.5 5.77614 6.27614 6 6 6H3C2.72386 6 2.5 5.77614 2.5 5.5V2.5C2.5 2.22386 2.72386 2 3 2Z" fill="#667085"/>
<path fill-rule="evenodd" clip-rule="evenodd" d="M10.5 2.5C10.5 1.11929 11.6193 0 13 0H16C17.3807 0 18.5 1.11929 18.5 2.5V5.5C18.5 6.88071 17.3807 8 16 8H13C11.6193 8 10.5 6.88071 10.5 5.5V2.5ZM13 2H16C16.2761 2 16.5 2.22386 16.5 2.5V5.5C16.5 5.77614 16.2761 6 16 6H13C12.7239 6 12.5 5.77614 12.5 5.5V2.5C12.5 2.22386 12.7239 2 13 2Z" fill="#667085"/>
<path fill-rule="evenodd" clip-rule="evenodd" d="M13 10C11.6193 10 10.5 11.1193 10.5 12.5V15.5C10.5 16.8807 11.6193 18 13 18H16C17.3807 18 18.5 16.8807 18.5 15.5V12.5C18.5 11.1193 17.3807 10 16 10H13ZM16 12H13C12.7239 12 12.5 12.2239 12.5 12.5V15.5C12.5 15.7761 12.7239 16 13 16H16C16.2761 16 16.5 15.7761 16.5 15.5V12.5C16.5 12.2239 16.2761 12 16 12Z" fill="#667085"/>
<path fill-rule="evenodd" clip-rule="evenodd" d="M0.5 12.5C0.5 11.1193 1.61929 10 3 10H6C7.38071 10 8.5 11.1193 8.5 12.5V15.5C8.5 16.8807 7.38071 18 6 18H3C1.61929 18 0.5 16.8807 0.5 15.5V12.5ZM3 12H6C6.27614 12 6.5 12.2239 6.5 12.5V15.5C6.5 15.7761 6.27614 16 6 16H3C2.72386 16 2.5 15.7761 2.5 15.5V12.5C2.5 12.2239 2.72386 12 3 12Z" fill="#667085"/>
</svg>
