<?xml version="1.0" standalone="no"?>
<!DOCTYPE svg PUBLIC "-//W3C//DTD SVG 20010904//EN"
 "http://www.w3.org/TR/2001/REC-SVG-20010904/DTD/svg10.dtd">
<svg version="1.0" xmlns="http://www.w3.org/2000/svg"
 width="512.000000pt" height="512.000000pt" viewBox="0 0 512.000000 512.000000"
 preserveAspectRatio="xMidYMid meet">

<g transform="translate(0.000000,512.000000) scale(0.100000,-0.100000)"
fill="#000000" stroke="none">
<path d="M4757 5106 c-90 -32 -136 -93 -183 -237 l-27 -87 -59 -16 c-46 -13
-70 -27 -107 -64 l-48 -48 -148 -452 -149 -452 -1787 0 c-1267 0 -1803 -3
-1841 -11 -190 -40 -352 -203 -393 -396 -21 -100 -22 -2835 -1 -2934 38 -176
161 -316 336 -380 l65 -24 2145 0 2145 0 65 24 c175 64 298 204 336 380 21 99
20 2834 -1 2934 -21 102 -76 197 -157 272 l-68 63 115 350 c121 367 129 406
101 484 -7 20 -27 54 -44 76 l-31 39 31 94 c42 125 42 195 3 267 -59 109 -184
158 -298 118z m133 -186 c31 -31 26 -79 -25 -217 -3 -9 -21 -6 -67 9 -35 11
-67 25 -72 29 -14 12 31 148 57 177 26 28 79 30 107 2z m-161 -366 c95 -30
181 -64 192 -75 10 -10 19 -31 19 -46 0 -14 -148 -477 -329 -1027 -181 -551
-364 -1107 -406 -1236 l-77 -235 -97 -115 c-52 -63 -104 -123 -113 -132 -23
-23 -66 -23 -135 -1 -90 28 -93 35 -105 229 l-11 169 333 1010 c183 556 366
1114 407 1240 41 127 80 236 86 244 10 12 42 29 58 30 3 1 83 -24 178 -55z
m-752 -986 c-2 -7 -15 -46 -28 -85 l-23 -73 -1681 0 -1682 0 -43 -23 c-30 -16
-51 -37 -67 -67 l-23 -43 0 -1400 c0 -1377 0 -1401 20 -1441 11 -23 36 -52 57
-66 l37 -25 2004 -3 c1985 -2 2006 -2 2046 18 23 11 52 36 66 57 l25 37 5
1335 5 1336 64 188 63 189 30 -29 c16 -15 43 -57 61 -93 l32 -65 0 -1440 0
-1440 -27 -57 c-37 -79 -96 -140 -171 -174 l-62 -29 -2125 0 -2125 0 -67 33
c-77 38 -130 92 -167 171 l-26 56 0 1440 0 1440 28 60 c44 94 119 162 210 191
61 18 3572 20 3564 2z m-110 -335 c-3 -5 -87 -258 -187 -563 l-183 -555 11
-198 c13 -228 21 -257 97 -326 l47 -44 -26 -86 c-33 -107 -33 -122 0 -155 30
-29 77 -34 108 -11 10 8 33 56 51 107 l32 93 57 2 c99 4 134 29 278 202 l128
154 119 361 119 361 1 -1032 1 -1033 -1960 0 -1960 0 0 1365 0 1365 1636 0
c899 0 1633 -3 1631 -7z"/>
<path d="M4614 4312 c-38 -6 -53 -35 -114 -218 -60 -179 -68 -220 -50 -254 24
-45 117 -43 142 3 18 35 128 370 128 392 0 46 -55 86 -106 77z"/>
<path d="M1609 2712 c-98 -33 -159 -86 -210 -182 -20 -39 -24 -62 -27 -177 -4
-130 -5 -133 -26 -133 -35 0 -127 30 -172 56 -50 29 -83 30 -118 3 -36 -28
-37 -89 -1 -125 38 -38 126 -74 226 -92 l89 -17 -2 -255 -3 -255 -135 -5
c-120 -5 -140 -9 -185 -32 -60 -32 -124 -96 -156 -158 -20 -38 -24 -60 -24
-145 0 -120 21 -172 97 -247 94 -92 252 -120 368 -67 148 68 209 183 210 386
l0 93 33 -6 c130 -22 268 -85 363 -164 135 -114 185 -131 267 -91 37 18 64 50
191 226 81 113 150 205 154 205 4 -1 20 -17 35 -38 41 -54 123 -118 193 -152
96 -47 171 -60 341 -60 145 0 153 1 179 24 36 30 39 86 6 119 -21 21 -34 22
-195 27 -168 5 -173 6 -242 38 -54 26 -88 52 -151 117 -87 90 -132 113 -196
101 -64 -12 -93 -42 -242 -250 l-148 -207 -47 44 c-119 111 -298 197 -473 227
l-68 12 0 258 0 258 133 4 c115 3 139 7 182 28 67 33 131 99 163 168 38 81 38
193 0 274 -74 160 -251 242 -409 190z m166 -171 c98 -45 131 -155 74 -248 -35
-56 -82 -73 -204 -73 l-105 0 0 108 c0 91 3 112 21 141 50 83 131 110 214 72z
m-406 -1289 c-4 -98 -7 -113 -32 -150 -34 -53 -78 -76 -143 -76 -168 -1 -227
215 -85 311 30 21 46 23 149 23 l114 0 -3 -108z"/>
</g>
</svg>
