<?xml version="1.0" encoding="UTF-8"?>
<svg version="1.1" xmlns="http://www.w3.org/2000/svg" width="512" height="512">
<path d="M0 0 C0.68507126 -0.00367669 1.37014252 -0.00735338 2.07597351 -0.01114148 C4.37105052 -0.02215229 6.6660822 -0.02601778 8.96118164 -0.02983093 C10.60730634 -0.03609775 12.25342964 -0.04274474 13.89955139 -0.04974365 C19.30680357 -0.07076753 24.71405597 -0.08114723 30.12133789 -0.09111023 C31.98583999 -0.09515897 33.85034195 -0.09927593 35.71484375 -0.10346031 C44.47887715 -0.12251147 53.24290216 -0.1367404 62.00695229 -0.14507228 C72.10578179 -0.15483269 82.20439142 -0.18112121 92.3031435 -0.22157317 C100.11906012 -0.25180026 107.93491397 -0.26654755 115.75088787 -0.26985329 C120.41376698 -0.27219704 125.07641118 -0.28106856 129.73922729 -0.30631447 C134.1322237 -0.32971462 138.52483254 -0.33378081 142.91787529 -0.32355309 C144.52218355 -0.32306044 146.12651167 -0.32930007 147.73076057 -0.34310913 C162.25475115 -0.46103948 174.16162578 2.05617499 185.18383789 12.14717102 C193.8155171 21.72180678 198.32236042 32.8080675 198.29736328 45.68159485 C198.29728775 46.98256607 198.29721222 48.28353729 198.2971344 49.62393188 C198.29202851 51.03402241 198.28681253 52.44411253 198.28149414 53.85420227 C198.27962768 55.30437165 198.27820485 56.75454167 198.27720642 58.20471191 C198.27339919 62.01050068 198.26358431 65.81625093 198.25250244 69.62202454 C198.24224966 73.50995869 198.23770053 77.3978991 198.23266602 81.2858429 C198.22196035 88.90630311 198.20490559 96.52673166 198.18383789 104.14717102 C199.17383789 103.81717102 200.16383789 103.48717102 201.18383789 103.14717102 C203.14039189 103.05269456 205.10000534 103.01645385 207.05883789 103.01435852 C208.20868164 103.01306946 209.35852539 103.0117804 210.54321289 103.01045227 C212.34532227 103.01625305 212.34532227 103.01625305 214.18383789 103.02217102 C215.38524414 103.01830383 216.58665039 103.01443665 217.82446289 103.01045227 C218.97430664 103.01174133 220.12415039 103.0130304 221.30883789 103.01435852 C222.89051758 103.01605042 222.89051758 103.01605042 224.50415039 103.01777649 C227.18383789 103.14717102 227.18383789 103.14717102 230.18383789 104.14717102 C230.17384514 102.9656546 230.17384514 102.9656546 230.16365051 101.76026917 C230.10320328 94.28822455 230.05769435 86.81630074 230.02840137 79.34407425 C230.01283463 75.50375574 229.99176389 71.66364153 229.95751953 67.82344055 C229.92460116 64.10811646 229.90691754 60.39298721 229.89920616 56.67752838 C229.89372024 55.26954334 229.88301012 53.86156734 229.86664772 52.45366669 C229.687688 36.39682465 232.65573127 22.93728007 244.18383789 11.14717102 C255.91710389 1.27908224 268.06973538 -0.45311168 282.88525391 -0.3704071 C284.53418594 -0.3758389 286.18311311 -0.38296745 287.83203125 -0.39164734 C292.27625532 -0.40975665 296.7201046 -0.40286526 301.16433454 -0.390131 C305.834333 -0.37994032 310.5043013 -0.38941325 315.17430115 -0.39567566 C323.01274321 -0.40293378 330.85103406 -0.39341196 338.68945312 -0.37431335 C347.72935235 -0.35254054 356.7688907 -0.35960634 365.80878121 -0.38161898 C373.5959984 -0.39981637 381.38310745 -0.40231037 389.17033905 -0.3918643 C393.81011262 -0.38565414 398.44971699 -0.38472524 403.08947945 -0.39801025 C407.45226676 -0.40963185 411.81459219 -0.4014289 416.17733002 -0.37843323 C417.77075626 -0.37317995 419.36422192 -0.3746014 420.95763206 -0.38348389 C434.27268506 -0.45082146 444.56032454 1.84628891 455.18383789 10.14717102 C455.80000977 10.62541321 456.41618164 11.1036554 457.05102539 11.59638977 C463.70742624 17.46881452 469.69604419 28.23137409 470.33100891 37.23371887 C470.34577522 38.34813354 470.34577522 38.34813354 470.36083984 39.48506165 C470.37367508 40.33274109 470.38651031 41.18042053 470.3997345 42.05378723 C470.4108149 43.41485596 470.4108149 43.41485596 470.42211914 44.80342102 C470.43019089 45.74270447 470.43826263 46.68198792 470.44657898 47.6497345 C470.46039048 49.63339913 470.47112571 51.61708723 470.47900391 53.6007843 C470.49627564 56.63623099 470.54019434 59.67060458 470.58422852 62.70576477 C470.594351 64.63414219 470.60286849 66.56252885 470.60961914 68.49092102 C470.62712723 69.39830017 470.64463531 70.30567932 470.66267395 71.24055481 C470.6410827 77.49659286 470.6410827 77.49659286 468.37597656 80.71943665 C465.14748097 82.82214766 462.94822738 82.68494095 459.18383789 82.14717102 C456.9987793 80.56733704 456.9987793 80.56733704 455.18383789 78.14717102 C454.66967773 74.83833313 454.66967773 74.83833313 454.64477539 70.92451477 C454.62708603 69.87343285 454.62708603 69.87343285 454.60903931 68.80111694 C454.5738312 66.5620771 454.56462854 64.32396445 454.55883789 62.08467102 C454.95322362 42.25921493 454.95322362 42.25921493 446.18383789 25.14717102 C438.19038885 17.85764606 430.40783133 16.0298953 419.67680359 16.01345825 C418.41109528 16.00919327 417.14538696 16.00492828 415.84132385 16.00053406 C414.45639035 16.0008835 413.07145687 16.00134499 411.68652344 16.00190735 C410.21404943 15.99891202 408.74157621 15.99550863 407.269104 15.99172974 C403.28343278 15.98292348 399.29778305 15.98055304 395.31210303 15.97991395 C392.8179329 15.97920152 390.32376817 15.97706355 387.82959938 15.97441673 C379.11670207 15.96517441 370.40382002 15.96108044 361.69091797 15.96186829 C353.58789194 15.96246875 345.48493255 15.95192022 337.38192338 15.93612462 C330.40928133 15.92302014 323.43666098 15.91768561 316.46400672 15.9183237 C312.30656927 15.91857783 308.14919109 15.91577343 303.99176598 15.90514565 C300.07896662 15.8954156 296.16628259 15.89541888 292.253479 15.90266228 C290.8241083 15.90370205 289.39473023 15.90138164 287.96537209 15.89530182 C275.81252824 15.84699067 264.96660392 16.236624 255.18383789 24.14717102 C247.91921483 32.26733853 246.88325416 41.12481399 246.89331055 51.61128235 C246.88659332 52.62865982 246.8798761 53.64603729 246.87295532 54.69424438 C246.85404256 58.03928078 246.85005455 61.38411582 246.84790039 64.72920227 C246.84146799 67.06796347 246.8347393 69.40672387 246.82772827 71.7454834 C246.81577244 76.64184941 246.81204573 81.53814496 246.81323242 86.43452454 C246.81343555 92.6885944 246.78613131 98.94220957 246.751688 105.19617176 C246.72938056 110.02538096 246.72539606 114.85448137 246.72645187 119.6837368 C246.7241018 121.98847203 246.71531199 124.29321053 246.69978714 126.59789467 C246.68004905 129.83054 246.68599627 133.06221294 246.69799805 136.2948761 C246.68675903 137.23393799 246.67552002 138.17299988 246.66394043 139.14051819 C246.73807285 147.05359807 248.58021896 155.05046742 253.37133789 161.52217102 C261.02271726 168.66345843 269.90012423 171.45525768 280.28710938 171.41841125 C281.06532043 171.423638 281.84353149 171.42886475 282.64532471 171.43424988 C284.32362812 171.44443708 286.00196266 171.450261 287.68029594 171.45213127 C290.34219258 171.45581635 293.00372375 171.47260072 295.6655426 171.4928894 C303.22959584 171.54810009 310.79370161 171.57896621 318.35791016 171.60346985 C322.99562175 171.61939393 327.63307154 171.64965964 332.27064705 171.68823433 C334.0307645 171.69983731 335.79092883 171.70581427 337.55108452 171.70591545 C340.01805661 171.70610873 342.48431186 171.72446294 344.95117188 171.74653625 C345.66882217 171.74195908 346.38647247 171.7373819 347.12586975 171.73266602 C355.73537753 171.85438301 362.00812736 175.11027898 368.21899414 181.00263977 C371.12189429 184.17101389 372.66115999 187.15396352 374.18383789 191.14717102 C374.42763184 191.7628595 374.67142578 192.37854797 374.92260742 193.01289368 C380.18383789 206.30720052 380.18383789 206.30720052 380.18383789 210.14717102 C380.84383789 210.14717102 381.50383789 210.14717102 382.18383789 210.14717102 C382.34239258 209.50392883 382.50094727 208.86068665 382.66430664 208.19795227 C386.05933595 195.0492476 389.61909546 182.07301356 401.93383789 174.64717102 C405.87450006 172.82840387 409.06195547 172.04281885 413.37915039 171.93623352 C431.01589965 171.51331588 431.01589965 171.51331588 445.77368164 162.58076477 C453.6185615 154.00702077 454.30939787 144.49267457 454.32446289 133.41279602 C454.3427659 131.77085479 454.36233382 130.12892725 454.38305664 128.48701477 C454.4121495 125.9302947 454.43384219 123.37447842 454.43432617 120.81758118 C454.43765426 118.32769426 454.47211874 115.83983142 454.51196289 113.35029602 C454.50489319 112.58670776 454.49782349 111.82311951 454.49053955 111.03639221 C454.57837025 107.2126856 454.87174065 105.48638426 457.49926758 102.63056946 C461.16428343 100.60541156 463.20886016 101.04301054 467.18383789 102.14717102 C469.28698237 103.7423724 470.08167677 104.601411 470.57151794 107.21821594 C470.57692093 108.01332581 470.58232391 108.80843567 470.58789062 109.62763977 C470.6005748 110.53288391 470.61325897 111.43812805 470.62632751 112.37080383 C470.62192406 113.83791809 470.62192406 113.83791809 470.61743164 115.33467102 C470.62267349 116.34755188 470.62791534 117.36043274 470.63331604 118.40400696 C470.63974555 120.5525979 470.63838729 122.70122401 470.62988281 124.84980774 C470.62144163 128.10713793 470.65001002 131.36267353 470.68188477 134.61982727 C470.68349881 136.71227467 470.68291536 138.80472513 470.67993164 140.89717102 C470.69116562 141.85905334 470.7023996 142.82093567 470.713974 143.81196594 C470.58726006 156.38024699 465.36157519 166.85737579 456.80883789 175.89717102 C446.24043368 185.90934343 434.88751382 187.58507579 420.80297852 188.2311554 C412.74472758 188.70931898 412.74472758 188.70931898 406.18383789 193.14717102 C404.64637447 195.85394186 403.62508633 198.64415967 402.62133789 201.58467102 C402.32888184 202.38219788 402.03642578 203.17972473 401.73510742 204.00141907 C400.86566436 206.37702335 400.0210129 208.76002919 399.18383789 211.14717102 C393.84558933 226.29832292 393.84558933 226.29832292 386.93383789 230.52217102 C381.89188842 231.66806863 377.17142749 230.8980382 372.37133789 229.08467102 C365.72853955 223.20104963 363.44206635 211.85745567 360.62719727 203.72724915 C357.42330427 194.84094994 357.42330427 194.84094994 350.18383789 189.14717102 C347.26898419 188.98997005 344.37444153 188.88861448 341.45727539 188.83076477 C340.59445953 188.80998367 339.73164368 188.78920258 338.84268188 188.76779175 C336.08148296 188.70231068 333.32018751 188.64341804 330.55883789 188.58467102 C328.68903617 188.54148442 326.81924427 188.49787009 324.94946289 188.45381165 C320.36102061 188.34663078 315.77248106 188.24535927 311.18383789 188.14717102 C311.34811279 189.1547345 311.5123877 190.16229797 311.68164062 191.20039368 C312.16088002 194.96674473 312.26388074 198.50332481 312.21899414 202.29560852 C312.22270674 203.64457447 312.22863516 204.99353581 312.23657227 206.34248352 C312.24710443 208.43226075 312.2464032 210.51861685 312.20800781 212.60810852 C312.08889113 219.87508293 312.02178764 225.74586908 317.12133789 231.42060852 C318.47181668 232.66680441 319.82548985 233.90955729 321.18383789 235.14717102 C325.19616714 241.87752977 325.98422154 250.31841015 324.71118164 257.99873352 C322.73775729 265.13756916 319.7411671 269.97151946 313.87133789 274.52217102 C311.76260763 276.21479258 311.76260763 276.21479258 310.18383789 278.14717102 C309.7330378 285.24727239 312.85145997 291.24936814 317.24633789 296.70967102 C319.95476649 298.95709049 322.61354562 300.65010494 325.62133789 302.45967102 C334.12221638 307.76129416 338.27881951 314.64254677 341.18383789 324.14717102 C344.29712964 339.42305585 342.31063136 355.98927749 333.64868164 369.13154602 C332.18014558 371.15225165 330.69406599 373.1574343 329.18383789 375.14717102 C329.84125977 375.41529602 330.49868164 375.68342102 331.17602539 375.95967102 C333.85581501 377.063541 336.52811946 378.18393974 339.19750977 379.31269836 C340.58183873 379.89426626 341.9687772 380.46964496 343.35766602 381.04023743 C353.00268837 385.01354034 361.50656381 388.88328862 369.18383789 396.14717102 C369.81290039 396.69888977 370.44196289 397.25060852 371.09008789 397.81904602 C383.24018441 409.0099244 390.04164666 426.23236351 391.47753906 442.46806335 C391.60797809 445.8994992 391.65199685 449.31874999 391.65258789 452.75263977 C391.66020142 453.99789932 391.66781494 455.24315887 391.67565918 456.52615356 C391.6863852 459.13702911 391.68934417 461.7479473 391.68481445 464.35884094 C391.68383775 468.33523488 391.72564261 472.30972432 391.76977539 476.2858429 C391.77498032 478.83727121 391.77767062 481.38870615 391.77758789 483.94013977 C391.79398315 485.11642441 391.81037842 486.29270905 391.82727051 487.50463867 C391.76669114 494.78612833 391.00672812 501.39476547 386.18383789 507.14717102 C379.66627961 512.8888198 373.18926069 512.8568874 364.82348633 512.78208923 C363.46933827 512.78785645 362.11519804 512.79580161 360.76107407 512.80572546 C357.05466284 512.82654027 353.34889779 512.81630862 349.64248466 512.80079436 C345.63966435 512.78946255 341.63695368 512.8069526 337.63415527 512.82069397 C329.79849482 512.84291146 321.96307401 512.83813187 314.12740421 512.82363077 C307.75845945 512.81233265 301.38958179 512.8108101 295.02062988 512.81624985 C294.1137051 512.81701601 293.20678031 512.81778218 292.27237296 512.81857156 C290.42989506 512.82017021 288.58741719 512.82179128 286.74493933 512.82343452 C269.47345303 512.83768766 252.2020995 512.82130613 234.93063498 512.79443268 C220.11522989 512.77209429 205.30002069 512.77597455 190.48461914 512.79902649 C173.27437745 512.82579218 156.06425206 512.8363144 138.85399246 512.82096517 C137.01834363 512.81937245 135.18269477 512.81780059 133.3470459 512.81624985 C132.44390333 512.81547847 131.54076076 512.81470709 130.61025023 512.81391234 C124.2499447 512.80959765 117.88971304 512.81687691 111.52941895 512.82864761 C103.77686922 512.8426797 96.02457259 512.83885784 88.27205181 512.81224389 C84.31754314 512.79911513 80.36345623 512.79393693 76.40895081 512.81048965 C72.78666203 512.82542233 69.1651847 512.8171477 65.54296923 512.79060189 C63.61663626 512.78239778 61.69024668 512.79866529 59.76397324 512.81588805 C52.6419606 512.73538684 47.63582821 511.95185449 42.18383789 507.14717102 C36.55832024 500.42171459 36.45967532 492.42925023 36.55493164 484.04560852 C36.55251968 482.81033417 36.55010773 481.57505981 36.54762268 480.30235291 C36.54859793 477.69867228 36.56191394 475.09497008 36.58691406 472.4914093 C36.62105915 468.55431173 36.6075915 464.61948389 36.58813477 460.68232727 C36.59635509 444.60414652 37.1070543 429.43898515 44.74633789 414.89717102 C45.08366943 414.2429718 45.42100098 413.58877258 45.76855469 412.91474915 C57.04168202 392.15579022 77.13626043 383.96484265 98.18383789 376.14717102 C97.79711914 375.59029602 97.41040039 375.03342102 97.01196289 374.45967102 C87.8371717 361.01542254 83.19518902 347.10220966 85.72290039 330.63545227 C87.6423905 320.71105559 90.48914795 312.05434472 98.18383789 305.14717102 C99.80435274 304.12664844 101.45253851 303.14916202 103.12133789 302.20967102 C111.06092338 297.70180396 115.73647243 291.92889415 118.18383789 283.14717102 C118.5797013 280.6260479 118.5797013 280.6260479 118.18383789 278.14717102 C116.62825557 276.31684487 116.62825557 276.31684487 114.49633789 274.83467102 C108.8304268 270.20166053 104.88843191 264.79475212 103.40649414 257.47138977 C102.52676094 248.28820989 103.77832204 239.76111615 109.18383789 232.14717102 C110.73071289 230.96381165 110.73071289 230.96381165 112.30883789 229.75654602 C116.37387112 225.80423902 115.92600435 221.14011998 116.01782227 215.75068665 C116.01073242 214.45840149 116.00364258 213.16611633 115.99633789 211.83467102 C116.02080384 209.27604813 116.04808253 206.71745038 116.07836914 204.15888977 C116.07683838 203.02926819 116.07530762 201.89964661 116.07373047 200.73579407 C116.20365823 196.50118632 116.65926206 192.34843051 117.18383789 188.14717102 C111.72074401 188.2161312 106.25840941 188.30413856 100.79589844 188.40962219 C98.93856239 188.44282651 97.08112652 188.47087243 95.22363281 188.49360657 C92.54977992 188.52723544 89.87683796 188.57955476 87.20336914 188.63545227 C86.37609818 188.64184219 85.54882721 188.64823212 84.69648743 188.65481567 C80.0726235 188.77209115 76.90752314 189.11165382 73.18383789 192.14717102 C68.86036865 199.4248726 66.3867945 207.59652845 63.62719727 215.5670929 C61.17507537 222.3624879 59.22234357 226.67919533 52.93383789 230.52217102 C47.89188842 231.66806863 43.17142749 230.8980382 38.37133789 229.08467102 C31.72853955 223.20104963 29.44206635 211.85745567 26.62719727 203.72724915 C23.42330427 194.84094994 23.42330427 194.84094994 16.18383789 189.14717102 C14.50152037 188.97291213 12.81378338 188.84956054 11.12524414 188.75263977 C10.09850586 188.68367493 9.07176758 188.61471008 8.01391602 188.5436554 C5.87126931 188.40661822 3.72801623 188.27869163 1.58422852 188.1608429 C-12.62418815 187.16422522 -22.2961512 182.10546279 -32.06616211 171.89717102 C-38.01377502 164.97609652 -41.91690038 156.4776858 -41.96333313 147.29840088 C-41.97048843 146.32434296 -41.97764374 145.35028503 -41.98501587 144.34671021 C-41.98770477 143.2843364 -41.99039368 142.22196259 -41.99316406 141.12739563 C-42.00302086 139.44127167 -42.00302086 139.44127167 -42.01307678 137.72108459 C-42.03280247 133.9972273 -42.04447221 130.27341036 -42.05444336 126.54951477 C-42.05851889 125.27610292 -42.06259441 124.00269108 -42.06679344 122.69069099 C-42.08550313 116.64278813 -42.10006761 110.59490964 -42.10840541 104.54698557 C-42.11815877 97.58875928 -42.14443101 90.63085273 -42.1849063 83.67273897 C-42.21884559 77.62859601 -42.23056205 71.58460675 -42.2346096 65.5403614 C-42.23946897 62.97884011 -42.25106427 60.41732207 -42.2696476 57.85586357 C-42.29410096 54.26122285 -42.29306187 50.66740727 -42.28613281 47.07270813 C-42.3053479 45.50040184 -42.3053479 45.50040184 -42.32495117 43.89633179 C-42.2478725 32.8648586 -38.5765411 23.79914024 -31.81616211 15.14717102 C-31.33791992 14.53099915 -30.85967773 13.91482727 -30.36694336 13.27998352 C-22.87393176 4.78664543 -11.11746682 0.03872097 0 0 Z M-20.19116211 26.58467102 C-26.86668802 35.01691428 -26.96682518 44.52715749 -26.96142578 54.78511047 C-26.96478439 55.71470581 -26.96814301 56.64430115 -26.97160339 57.60206604 C-26.98105048 60.65487529 -26.98305334 63.70762934 -26.98413086 66.76045227 C-26.98734771 68.89743064 -26.9907121 71.0344088 -26.99421692 73.17138672 C-27.00019254 77.6440329 -27.00205842 82.1166598 -27.00146484 86.58930969 C-27.0013633 92.29843602 -27.01501488 98.00743778 -27.03223705 103.71653461 C-27.04339781 108.12882039 -27.0453828 112.54107642 -27.04485512 116.95337486 C-27.04602911 119.05714027 -27.05041802 121.16090659 -27.05818748 123.26465797 C-27.80817933 144.80573419 -27.80817933 144.80573419 -17.95678711 163.08857727 C-8.9789822 171.42262485 0.18659944 172.31643094 11.97094727 172.57685852 C19.34125181 172.85875065 25.78234512 174.33618687 31.43383789 179.33467102 C32.05774414 179.86447571 32.68165039 180.3942804 33.32446289 180.94013977 C38.16889567 186.69035935 40.43306567 194.16003491 42.93383789 201.14717102 C43.2496582 202.01728821 43.56547852 202.8874054 43.89086914 203.78388977 C44.65950716 205.90346734 45.42373444 208.02452126 46.18383789 210.14717102 C46.84383789 210.14717102 47.50383789 210.14717102 48.18383789 210.14717102 C48.41981689 209.4620343 48.6557959 208.77689758 48.89892578 208.07099915 C49.99557715 204.92267703 51.12065283 201.78522337 52.24633789 198.64717102 C52.61694336 197.56951477 52.98754883 196.49185852 53.36938477 195.38154602 C56.93379393 185.55695607 61.60454626 178.66570481 71.18383789 174.14717102 C75.01286219 172.84154606 78.91617424 172.99518664 82.91479492 172.98945618 C83.68935532 172.98437546 84.46391571 172.97929474 85.26194763 172.97406006 C86.94194541 172.96337333 88.62195727 172.95474651 90.30197525 172.94794083 C92.96830824 172.93611529 95.63448192 172.91665079 98.30075073 172.89482117 C105.88119129 172.83334453 113.46161631 172.77928699 121.04223633 172.74580383 C125.68300201 172.72475693 130.32347787 172.68937063 134.964077 172.64504623 C136.72532596 172.63096145 138.48662622 172.62218094 140.24792862 172.61899185 C153.75737667 172.59195243 165.04735055 172.18349545 175.18383789 162.14717102 C181.4591584 154.35659019 182.48380616 146.48928557 182.45849609 136.78071594 C182.46360703 135.7618782 182.46871796 134.74304047 182.47398376 133.69332886 C182.48784012 130.33803876 182.48692574 126.98295502 182.48461914 123.62763977 C182.48850863 121.28505375 182.49284382 118.94246844 182.49760437 116.59988403 C182.50505838 111.6933412 182.50478149 106.78687032 182.49951172 101.88032532 C182.4937225 95.60938565 182.51063911 89.33874185 182.53385639 83.06785107 C182.54862821 78.23010552 182.54946065 73.39243063 182.54634666 68.55466652 C182.54685828 66.24353259 182.55206588 63.93239453 182.56215858 61.62128258 C182.57457044 58.38126599 182.56770224 55.14181799 182.55615234 51.90180969 C182.56379608 50.95758148 182.57143982 50.01335327 182.57931519 49.04051208 C182.50984167 40.17069452 180.76812296 31.95522491 175.03930664 24.96748352 C164.71880587 14.84252908 151.99790593 14.84581005 138.34594727 14.88838196 C136.87302986 14.88566663 135.40011382 14.88210268 133.92720032 14.87776184 C129.95407294 14.86869992 125.98105026 14.87215633 122.00792122 14.87852001 C117.83393209 14.88361228 113.65995143 14.87887964 109.48596191 14.87574768 C102.47882491 14.8721174 95.47173018 14.87688246 88.46459961 14.88642883 C80.3836578 14.89731157 72.30281694 14.89378533 64.22187757 14.88277602 C57.26190822 14.87367636 50.30196911 14.87243094 43.34199572 14.87765336 C39.1946704 14.88075836 35.0473924 14.88122307 30.90007019 14.87458038 C26.99953209 14.86876844 23.09912313 14.87287362 19.19859886 14.8843689 C17.77406719 14.88699502 16.3495245 14.88628577 14.92499733 14.88184357 C0.81854737 14.84193739 -10.25769161 15.72146683 -20.19116211 26.58467102 Z M198.18383789 120.14717102 C198.16925537 120.93253235 198.15467285 121.71789368 198.13964844 122.52705383 C198.06430748 126.15087394 197.96793528 129.77385762 197.87133789 133.39717102 C197.8487793 134.6320929 197.8262207 135.86701477 197.80297852 137.13935852 C197.38081652 151.72313648 194.50516564 165.58671972 183.49633789 176.02217102 C171.5324609 185.46855266 158.79066283 187.31666903 143.99633789 187.77217102 C142.94897461 187.8108429 141.90161133 187.84951477 140.82250977 187.88935852 C138.27644676 187.98236539 135.73036826 188.06820386 133.18383789 188.14717102 C132.2488757 195.20723987 132.06297012 202.09329337 132.12133789 209.20967102 C132.12584961 210.26605774 132.13036133 211.32244446 132.13500977 212.4108429 C132.14667871 214.9896801 132.16304904 217.56839396 132.18383789 220.14717102 C137.62409173 220.1972229 143.06420671 220.23319367 148.50463867 220.2570343 C150.34906351 220.26699028 152.19347301 220.28055994 154.0378418 220.29804993 C177.56431203 220.97285118 177.56431203 220.97285118 197.95336914 210.61982727 C202.0904376 206.33612854 204.02978101 201.23644881 206.10571289 195.72138977 C207.18383789 193.14717102 207.18383789 193.14717102 209.18383789 191.14717102 C212.26464536 190.32562236 214.64911324 190.07078178 217.80883789 190.52217102 C221.01042787 192.71273259 221.67639761 195.10707 223.10180664 198.63935852 C226.98501346 207.63942631 232.98266651 214.1352359 242.05883789 217.95967102 C249.71301151 220.42322435 257.94344351 220.29476997 265.91040039 220.24482727 C266.78409271 220.24341232 267.65778503 220.24199738 268.55795288 220.24053955 C271.30828492 220.23500776 274.05853107 220.22246876 276.80883789 220.20967102 C278.69034712 220.20464718 280.57185764 220.20008583 282.45336914 220.19599915 C287.03022441 220.18506081 291.60701666 220.16784464 296.18383789 220.14717102 C296.2131377 216.31385403 296.23073686 212.48056631 296.24633789 208.64717102 C296.2547168 207.56951477 296.2630957 206.49185852 296.27172852 205.38154602 C296.28955674 199.5338872 296.07489752 193.92853431 295.18383789 188.14717102 C294.56041504 188.1325885 293.93699219 188.11800598 293.29467773 188.10298157 C260.68429536 187.25272008 260.68429536 187.25272008 248.18383789 178.14717102 C247.54961914 177.71791321 246.91540039 177.2886554 246.26196289 176.84638977 C237.11819107 169.98856091 233.11187329 159.02758633 231.18383789 148.14717102 C230.73383496 143.23057135 230.58648557 138.33211246 230.49633789 133.39717102 C230.46217773 132.1158429 230.42801758 130.83451477 230.39282227 129.51435852 C230.31126944 126.3920504 230.24182212 123.26999043 230.18383789 120.14717102 C226.7504822 119.37266628 223.57602404 119.01895186 220.05883789 119.01435852 C219.10493164 119.01306946 218.15102539 119.0117804 217.16821289 119.01045227 C216.18336914 119.01431946 215.19852539 119.01818665 214.18383789 119.02217102 C213.19899414 119.01830383 212.21415039 119.01443665 211.19946289 119.01045227 C209.76860352 119.01238586 209.76860352 119.01238586 208.30883789 119.01435852 C207.44516602 119.01548645 206.58149414 119.01661438 205.69165039 119.01777649 C203.10405619 119.15128748 200.70837709 119.57767932 198.18383789 120.14717102 Z M213.18383789 216.14717102 C211.99639042 217.48639749 210.8590791 218.87025589 209.74633789 220.27217102 C201.41178001 229.85766616 189.68684711 233.81068994 177.30102539 234.87763977 C174.88772315 235.04158693 172.47359512 235.19376709 170.05883789 235.33467102 C168.19485352 235.45745422 168.19485352 235.45745422 166.29321289 235.5827179 C163.25725855 235.7812226 160.22104936 235.969132 157.18383789 236.14717102 C157.10898424 242.31779917 157.05490685 248.48815574 157.01904297 254.65913391 C157.00407233 256.75293082 156.98368856 258.84669702 156.95751953 260.94038391 C156.69545369 282.46575283 158.73736567 299.39381634 174.39086914 315.63935852 C184.35668001 324.58768101 196.77941957 330.11606192 210.18383789 331.14717102 C211.13709961 331.22451477 211.13709961 331.22451477 212.10961914 331.30342102 C227.17261645 331.96432035 241.67645546 326.17757129 253.05883789 316.52217102 C263.39044602 306.47966533 270.70404035 292.50983322 271.27052307 277.91360474 C271.29923114 275.25390604 271.29623206 272.5960465 271.28149414 269.93623352 C271.28007919 268.96809723 271.27866425 267.99996094 271.27720642 267.00248718 C271.27163154 263.92568303 271.25908367 260.84895299 271.24633789 257.77217102 C271.24131964 255.67972416 271.2367573 253.58727615 271.23266602 251.49482727 C271.22167034 246.37891352 271.20442304 241.26305481 271.18383789 236.14717102 C270.0355249 236.07985779 270.0355249 236.07985779 268.86401367 236.01118469 C265.34475987 235.79790463 261.82692237 235.56641206 258.30883789 235.33467102 C257.10485352 235.26441711 255.90086914 235.19416321 254.66040039 235.1217804 C239.75021152 234.10885996 227.83642962 229.92749167 217.18383789 219.14717102 C216.52383789 218.15717102 215.86383789 217.16717102 215.18383789 216.14717102 C214.52383789 216.14717102 213.86383789 216.14717102 213.18383789 216.14717102 Z M122.37133789 241.83467102 C119.79522705 245.73563886 118.88668777 248.50082363 119.18383789 253.14717102 C120.88086679 259.03685955 123.38025812 261.67224097 128.18383789 265.14717102 C131.45094308 266.96706261 131.45094308 266.96706261 141.18383789 266.14717102 C141.18383789 256.24717102 141.18383789 246.34717102 141.18383789 236.14717102 C130.21885574 235.90976489 130.21885574 235.90976489 122.37133789 241.83467102 Z M287.18383789 236.14717102 C287.18383789 246.04717102 287.18383789 255.94717102 287.18383789 266.14717102 C298.81104857 266.3623595 298.81104857 266.3623595 306.49633789 259.89717102 C308.6542519 256.38057041 309.3700029 253.21953056 309.18383789 249.14717102 C307.48951138 243.26686136 305.02347595 240.57524798 300.18383789 237.14717102 C296.12974534 235.62012474 296.12974534 235.62012474 287.18383789 236.14717102 Z M135.18383789 282.14717102 C134.9530957 282.98119446 134.72235352 283.8152179 134.48461914 284.67451477 C130.78160677 297.4521029 126.33713766 306.89430906 114.74633789 313.83467102 C107.03120061 318.7052547 103.72329358 323.34460726 101.37133789 332.20967102 C101.30946289 333.17904602 101.24758789 334.14842102 101.18383789 335.14717102 C101.13356445 335.79943665 101.08329102 336.45170227 101.03149414 337.12373352 C100.61221242 346.61627167 103.25802185 355.6874244 109.18383789 363.14717102 C109.93987305 364.10236633 109.93987305 364.10236633 110.71118164 365.07685852 C112.48542044 366.95546431 113.84163158 368.05368797 116.18383789 369.14717102 C118.46468871 368.91242143 118.46468871 368.91242143 120.80493164 368.02656555 C122.12859741 367.58223175 122.12859741 367.58223175 123.47900391 367.12892151 C124.81789673 366.64295502 124.81789673 366.64295502 126.18383789 366.14717102 C126.99457764 365.85300293 127.80531738 365.55883484 128.640625 365.25575256 C131.12426283 364.32630651 133.59241785 363.36353285 136.05883789 362.38935852 C136.94998291 362.04083832 137.84112793 361.69231812 138.75927734 361.33323669 C141.56892456 360.23323156 144.37635304 359.12768157 147.18383789 358.02217102 C149.09646467 357.27313179 151.00922399 356.52443088 152.92211914 355.77607727 C154.73864473 355.06414211 156.55505524 354.35191324 158.37133789 353.63935852 C159.65403564 353.13624649 159.65403564 353.13624649 160.96264648 352.62297058 C161.75106934 352.31239716 162.53949219 352.00182373 163.35180664 351.68183899 C164.39244263 351.27238541 164.39244263 351.27238541 165.45410156 350.85466003 C167.25018914 350.14537959 167.25018914 350.14537959 169.18383789 349.14717102 C170.4606874 338.50925571 170.4606874 338.50925571 167.61352539 328.63935852 C165.55317698 326.95504328 163.44207566 325.55138432 161.18383789 324.14717102 C151.65091043 315.3656073 146.28972509 302.42359885 143.18383789 290.14717102 C142.95954102 289.29252258 142.73524414 288.43787415 142.50415039 287.55732727 C142.04278438 285.75926386 141.60900613 283.95413605 141.18383789 282.14717102 C139.20383789 282.14717102 137.22383789 282.14717102 135.18383789 282.14717102 Z M287.18383789 282.14717102 C286.93633789 283.03404602 286.68883789 283.92092102 286.43383789 284.83467102 C286.24692383 285.47533508 286.06000977 286.11599915 285.86743164 286.77607727 C285.36214104 288.52871383 284.87839475 290.28759442 284.40649414 292.04951477 C280.71529282 305.119219 274.23200257 320.28710268 262.18383789 327.64717102 C260.29019196 329.48977059 259.28645189 330.61655432 258.77978516 333.23652649 C258.77003662 333.98821106 258.76028809 334.73989563 258.75024414 335.51435852 C258.73670898 336.32969055 258.72317383 337.14502258 258.70922852 337.98506165 C258.76381536 341.71707786 258.93787701 345.42262061 259.18383789 349.14717102 C266.28161315 352.08062073 273.39087209 354.9840513 280.51654053 357.8490448 C284.72081709 359.54333456 288.89969706 361.29121981 293.07446289 363.05732727 C295.19360265 363.92220755 297.3133657 364.7855627 299.43383789 365.64717102 C300.41352539 366.0750592 301.39321289 366.50294739 302.40258789 366.94380188 C307.25950571 369.00947574 307.25950571 369.00947574 312.2902832 368.40742493 C319.87580769 363.30599065 323.67134183 354.57349368 325.71508789 345.93623352 C327.06251924 337.91901699 326.88390433 329.5473039 323.18383789 322.14717102 C319.79021189 318.27388057 316.07333363 315.64932379 311.74633789 312.89717102 C300.8866772 305.61488178 296.02482911 294.76361588 293.18383789 282.14717102 C291.20383789 282.14717102 289.22383789 282.14717102 287.18383789 282.14717102 Z M185.18383789 341.14717102 C185.14645508 342.09978821 185.10907227 343.0524054 185.07055664 344.03388977 C185.00481445 345.28814758 184.93907227 346.5424054 184.87133789 347.83467102 C184.81333008 349.07603821 184.75532227 350.3174054 184.69555664 351.59638977 C184.16011579 355.31177708 183.50829914 357.22868078 181.18383789 360.14717102 C178.91430664 361.62373352 178.91430664 361.62373352 176.37133789 362.77217102 C175.53989258 363.15631165 174.70844727 363.54045227 173.85180664 363.93623352 C172.53116211 364.53564758 172.53116211 364.53564758 171.18383789 365.14717102 C169.18189699 366.14327977 167.18166407 367.14283514 165.18383789 368.14717102 C165.00908958 373.6238982 164.88298163 379.09895802 164.79931641 384.57783508 C164.7643957 386.436196 164.71683946 388.29436865 164.65576172 390.15205383 C164.27397878 402.07394781 164.44421516 410.50643478 172.18383789 420.14717102 C172.93528076 421.08762268 173.68672363 422.02807434 174.4609375 422.99702454 C181.35807952 431.29879806 189.13003445 435.95808625 198.99633789 440.06904602 C201.18383789 441.14717102 201.18383789 441.14717102 202.18383789 443.14717102 C202.67534494 448.30799502 202.67534494 448.30799502 202.18383789 451.14717102 C200.24633789 453.27217102 200.24633789 453.27217102 197.18383789 454.14717102 C186.11430503 453.96306237 175.41233956 445.97823011 167.79321289 438.65107727 C166.42917836 437.03337762 166.42917836 437.03337762 165.18383789 437.14717102 C165.18383789 456.94717102 165.18383789 476.74717102 165.18383789 497.14717102 C197.52383789 497.14717102 229.86383789 497.14717102 263.18383789 497.14717102 C263.18383789 477.34717102 263.18383789 457.54717102 263.18383789 437.14717102 C260.54383789 439.12717102 257.90383789 441.10717102 255.18383789 443.14717102 C248.01202051 448.45383455 239.29674462 454.22040792 230.12133789 454.64717102 C227.18383789 454.14717102 227.18383789 454.14717102 225.24633789 453.14717102 C223.58026761 450.01103873 223.30208268 446.59087642 224.18383789 443.14717102 C227.02424957 440.41294295 230.2155143 439.25436566 233.87133789 437.89717102 C246.04040687 432.92899705 255.77141813 423.3085903 261.95556641 411.72773743 C264.62084756 403.95810647 263.78638218 395.57183954 263.55883789 387.45967102 C263.52868803 385.58276087 263.50132112 383.70580385 263.47680664 381.82881165 C263.41123697 377.26709115 263.30799773 372.70765751 263.18383789 368.14717102 C262.58563232 367.88742493 261.98742676 367.62767883 261.37109375 367.36006165 C253.22766277 363.78952479 253.22766277 363.78952479 249.74633789 361.64717102 C249.10825195 361.26560852 248.47016602 360.88404602 247.81274414 360.49092102 C244.72363686 357.94259271 244.2420769 355.63286234 243.76977539 351.69404602 C243.66536133 349.8145929 243.66536133 349.8145929 243.55883789 347.89717102 C243.44668945 346.00224915 243.44668945 346.00224915 243.33227539 344.06904602 C243.28329102 343.10482727 243.23430664 342.14060852 243.18383789 341.14717102 C242.19383789 341.42431946 241.20383789 341.7014679 240.18383789 341.98701477 C226.6946692 345.7131156 226.6946692 345.7131156 220.18383789 346.14717102 C219.03334961 346.22451477 219.03334961 346.22451477 217.85961914 346.30342102 C206.83631002 346.69887606 195.69950881 344.31288347 185.18383789 341.14717102 Z M279.18383789 374.14717102 C279.18383789 414.73717102 279.18383789 455.32717102 279.18383789 497.14717102 C292.71383789 497.14717102 306.24383789 497.14717102 320.18383789 497.14717102 C320.20961914 492.86232727 320.23540039 488.57748352 320.26196289 484.16279602 C320.29364321 480.74400989 320.32929339 477.32531641 320.36763 473.90660095 C320.40699609 470.2989457 320.43938174 466.69153814 320.45483398 463.08369446 C320.46999007 459.60800512 320.50441499 456.13298969 320.55214691 452.6576004 C320.57418161 450.68793982 320.57631254 448.71808922 320.57818604 446.74830627 C320.59790466 445.54736328 320.61762329 444.34642029 320.63793945 443.10908508 C320.65126312 441.52356842 320.65126312 441.52356842 320.66485596 439.90602112 C321.31069595 436.47280774 322.45383826 435.26328539 325.18383789 433.14717102 C327.54321289 432.97529602 327.54321289 432.97529602 329.93383789 433.39717102 C330.73305664 433.52607727 331.53227539 433.65498352 332.35571289 433.78779602 C332.95899414 433.90638977 333.56227539 434.02498352 334.18383789 434.14717102 C335.17765269 437.4787089 335.33726938 440.54801949 335.38916016 444.01728821 C335.41907799 445.78867157 335.41907799 445.78867157 335.44960022 447.59584045 C335.46631271 448.86574829 335.48302521 450.13565613 335.50024414 451.44404602 C335.52102524 452.74795288 335.54180634 454.05185974 335.56321716 455.39527893 C335.61829025 458.8541291 335.66776429 462.31303742 335.71606445 465.77198792 C335.76638761 469.3046534 335.82201711 472.83723491 335.87719727 476.36982727 C335.9845981 483.29553565 336.08608286 490.22131996 336.18383789 497.14717102 C341.09509992 497.22141103 346.00603423 497.27581513 350.91772461 497.31196594 C352.5880299 497.32703856 354.2582957 497.34750022 355.9284668 497.37348938 C358.33139802 497.40994075 360.73380533 497.42691233 363.13696289 497.44013977 C364.25436859 497.46336555 364.25436859 497.46336555 365.39434814 497.48706055 C369.69410449 497.48845155 372.10849899 497.20545465 375.18383789 494.14717102 C375.78192854 491.80271154 375.78192854 491.80271154 375.68554688 489.13179016 C375.6996183 487.59857872 375.6996183 487.59857872 375.713974 486.03439331 C375.70274002 484.92821152 375.69150604 483.82202972 375.67993164 482.68232727 C375.68211449 480.96679909 375.68211449 480.96679909 375.68434143 479.21661377 C375.6826793 476.78971316 375.67108326 474.36280234 375.65039062 471.93598938 C375.62169337 468.25526476 375.62972514 464.57600383 375.64282227 460.8952179 C375.63657665 458.53258078 375.62817932 456.16994819 375.61743164 453.80732727 C375.62036728 452.71936356 375.62330292 451.63139984 375.62632751 450.51046753 C375.42912883 434.1783615 370.12371797 420.94548303 359.23461914 408.81513977 C351.49096185 401.52270232 341.7707276 397.43666503 331.95727539 393.75654602 C330.72901031 393.28525269 329.50074524 392.81395935 328.23526001 392.3283844 C325.00425988 391.08906723 321.76784659 389.86455742 318.53009033 388.64302063 C315.9001919 387.64796354 313.27438402 386.64237303 310.64871788 385.6362114 C305.19116637 383.54516222 299.73041462 381.46245173 294.26342773 379.39619446 C293.30399261 379.03314209 292.3445575 378.67008972 291.35604858 378.29603577 C287.32561306 376.83635174 283.25048014 375.50271844 279.18383789 374.14717102 Z M143.56665039 375.87202454 C142.08745117 376.43875633 142.08745117 376.43875633 140.57836914 377.01693726 C138.95995117 377.64021156 138.95995117 377.64021156 137.30883789 378.27607727 C135.64014648 378.91705605 135.64014648 378.91705605 133.93774414 379.57098389 C131.56665332 380.48234088 129.19589561 381.39456491 126.82543945 382.30757141 C123.25583797 383.68194935 119.68477 385.05245995 116.11352539 386.42256165 C106.17010712 390.24308438 96.22701949 394.06894684 86.34790039 398.05342102 C85.68798096 398.31413895 85.02806152 398.57485687 84.34814453 398.84347534 C78.40145777 401.27591135 73.75704466 404.68613725 69.18383789 409.14717102 C68.54188477 409.76205383 67.89993164 410.37693665 67.23852539 411.01045227 C56.0361783 422.72199696 52.70784125 438.09258347 52.75024414 453.80732727 C52.74500229 454.95962326 52.73976044 456.11191925 52.73435974 457.2991333 C52.72798669 459.70997822 52.72921463 462.12085443 52.73779297 464.5316925 C52.74638871 468.23154313 52.71733716 471.92989094 52.68579102 475.6295929 C52.68418093 477.98050389 52.68475283 480.33141763 52.68774414 482.68232727 C52.67651016 483.78850906 52.66527618 484.89469086 52.65370178 486.03439331 C52.66777321 487.56760475 52.66777321 487.56760475 52.68212891 489.13179016 C52.68229507 490.03047318 52.68246124 490.92915619 52.68263245 491.85507202 C52.99704988 494.28525318 52.99704988 494.28525318 54.98600769 495.93934631 C58.292834 497.75662342 61.55869303 497.51646437 65.23071289 497.44013977 C66.00191467 497.43589493 66.77311646 497.43165009 67.56768799 497.42727661 C70.02343104 497.41052485 72.47834418 497.37288041 74.93383789 497.33467102 C76.60179476 497.3196196 78.26976454 497.30593199 79.93774414 497.2936554 C84.02009367 497.26063296 88.10182521 497.20887586 92.18383789 497.14717102 C92.19414536 496.41689697 92.20445282 495.68662292 92.21507263 494.93421936 C92.31309676 488.04823379 92.4156182 481.16232825 92.52317715 474.27648544 C92.57831445 470.73650409 92.6317195 467.19651434 92.68115234 463.65644836 C92.73807374 459.58555789 92.80255346 455.51481752 92.86743164 451.44404602 C92.88414413 450.17413818 92.90085663 448.90423035 92.91807556 447.59584045 C92.93802078 446.41491821 92.957966 445.23399597 92.97851562 444.01728821 C92.99405991 442.97804199 93.00960419 441.93879578 93.02561951 440.86805725 C93.16477378 438.47501705 93.50114896 436.43573027 94.18383789 434.14717102 C95.59537888 433.8696886 97.01363588 433.62623586 98.43383789 433.39717102 C99.22274414 433.25795227 100.01165039 433.11873352 100.82446289 432.97529602 C103.18383789 433.14717102 103.18383789 433.14717102 105.29718018 434.78529358 C107.67339349 437.76003806 107.6980003 439.33249734 107.72973633 443.10908508 C107.74945496 444.31002808 107.76917358 445.51097107 107.78948975 446.74830627 C107.79071838 448.04008789 107.79194702 449.33186951 107.79321289 450.66279602 C107.80819815 452.00231423 107.82492604 453.34181398 107.84332275 454.68128967 C107.886971 458.19938515 107.90698929 461.71723143 107.92205811 465.23554993 C107.94163867 468.82863428 107.98339174 472.42145653 108.02368164 476.01435852 C108.1010483 483.05879677 108.1414487 490.10208752 108.18383789 497.14717102 C121.71383789 497.14717102 135.24383789 497.14717102 149.18383789 497.14717102 C149.18383789 456.55717102 149.18383789 415.96717102 149.18383789 374.14717102 C147.23720959 374.14717102 145.35495049 375.18532235 143.56665039 375.87202454 Z " fill="#000000" transform="translate(41.816162109375,-0.1471710205078125)"/>
<path d="M0 0 C2.05938216 1.57885966 2.84571211 2.69142423 4 5 C4.08342159 6.44848582 4.10732861 7.90070869 4.09765625 9.3515625 C4.09282227 10.62773438 4.09282227 10.62773438 4.08789062 11.9296875 C4.07532227 13.26386719 4.07532227 13.26386719 4.0625 14.625 C4.05798828 15.5221875 4.05347656 16.419375 4.04882812 17.34375 C4.03702591 19.56256648 4.02056155 21.78125018 4 24 C4.55266037 23.99111755 5.10532074 23.98223511 5.67472839 23.9730835 C11.43351892 23.88450094 17.19211551 23.82422079 22.95141602 23.78027344 C25.0999335 23.76017414 27.2483964 23.73289007 29.39672852 23.69824219 C32.48727905 23.64965087 35.57710555 23.62701421 38.66796875 23.609375 C39.62648239 23.58872986 40.58499603 23.56808472 41.57255554 23.54681396 C45.91931351 23.54535569 48.32864545 23.589505 52.10644531 25.89941406 C54.14780414 28.16396426 54.66209118 29.00054788 54.5625 32 C54.56378906 32.66 54.56507813 33.32 54.56640625 34 C53.67495182 37.14775633 52.73672481 38.13497272 50 40 C46.42356307 40.63567583 42.87620027 40.69688655 39.25 40.75 C38.26644531 40.77964844 37.28289062 40.80929688 36.26953125 40.83984375 C33.84627224 40.91042411 31.42396846 40.96317701 29 41 C28.67128906 42.05316406 28.34257812 43.10632813 28.00390625 44.19140625 C23.64637116 57.6004101 17.23336427 68.6266708 9 80 C19.95984071 86.91825086 30.66956984 91.4720609 43.18310547 94.76953125 C49.50871114 96.52359868 49.50871114 96.52359868 52.0625 99 C53.44030431 101.93931587 53.52356269 103.79317851 53 107 C50.9375 109.875 50.9375 109.875 48 112 C42.78920481 112.41355517 38.21050118 111.55312589 33.25 110.0625 C32.52554688 109.84650146 31.80109375 109.63050293 31.0546875 109.40795898 C18.76776794 105.54077686 6.25990529 99.85668423 -4 92 C-5.05574219 92.63615234 -5.05574219 92.63615234 -6.1328125 93.28515625 C-40.16943023 113.50272944 -40.16943023 113.50272944 -57 112 C-60.04332421 109.91772554 -60.84308189 108.53800495 -61.875 105 C-62.06677266 100.39745628 -62.06677266 100.39745628 -60 98 C-55.75100433 96.26395436 -51.46509539 94.81352103 -47.08203125 93.45703125 C-36.3845132 90.14079059 -27.15276918 86.53769227 -18 80 C-19.4288528 76.91925397 -21.16006639 74.3437096 -23.1875 71.625 C-29.28735795 63.00369764 -37 50.85194854 -37 40 C-37.60996826 40.02618408 -38.21993652 40.05236816 -38.84838867 40.0793457 C-41.62782758 40.18365719 -44.40685439 40.24842982 -47.1875 40.3125 C-48.14720703 40.35439453 -49.10691406 40.39628906 -50.09570312 40.43945312 C-57.23950685 40.56304835 -57.23950685 40.56304835 -61.14453125 37.671875 C-63.40173009 34.42150867 -63.66033319 32.8794575 -63 29 C-61.22015595 25.8640843 -60.47691793 25.15897264 -57 24 C-55.51155284 23.91349416 -54.01951743 23.88229827 -52.52856445 23.88647461 C-51.17750359 23.88658791 -51.17750359 23.88658791 -49.79914856 23.88670349 C-48.83031235 23.89186478 -47.86147614 23.89702606 -46.86328125 23.90234375 C-45.37141548 23.90446617 -45.37141548 23.90446617 -43.84941101 23.90663147 C-40.67041018 23.91223239 -37.49147957 23.92478504 -34.3125 23.9375 C-32.15820414 23.94251488 -30.00390718 23.94707781 -27.84960938 23.95117188 C-22.56638226 23.96220212 -17.28319615 23.97894114 -12 24 C-12.02618408 23.38479492 -12.05236816 22.76958984 -12.0793457 22.13574219 C-12.18345921 19.34075592 -12.24836749 16.54617742 -12.3125 13.75 C-12.35439453 12.78191406 -12.39628906 11.81382813 -12.43945312 10.81640625 C-12.56289343 3.65686882 -12.56289343 3.65686882 -9.70703125 0.32421875 C-6.02524173 -1.47682981 -3.90277181 -1.08410328 0 0 Z M-21 40 C-16.54311694 51.58789596 -12.81570866 60.54658074 -4 69 C3.20276577 60.11658888 9.18070078 51.27719688 12 40 C1.11 40 -9.78 40 -21 40 Z " fill="#000000" transform="translate(124,36)"/>
<path d="M0 0 C3.81581872 0.62299081 5.25892269 1.86919751 8.0625 4.5 C9.44273376 7.0478363 9.44273376 7.0478363 10.51928711 9.96655273 C10.93464722 11.06930542 11.35000732 12.17205811 11.7779541 13.30822754 C12.21087769 14.50459839 12.64380127 15.70096924 13.08984375 16.93359375 C13.55937808 18.19635256 14.03031531 19.45859051 14.50256348 20.72033691 C15.75989909 24.09081775 16.99866742 27.46783791 18.23371506 30.84653854 C19.51079037 34.33129351 20.80379479 37.8101203 22.09594727 41.28930664 C23.6410253 45.45201325 25.18476394 49.61518546 26.72080994 53.78123474 C29.6528809 61.73057242 32.63149399 69.65981938 35.6875 77.5625 C36.02302383 78.43302505 36.35854767 79.30355011 36.70423889 80.20045471 C38.53966947 84.96114352 38.53966947 84.96114352 40.39254761 89.71505737 C41.20673844 91.79502821 42.00890324 93.87926439 42.80859375 95.96484375 C43.24872803 97.095271 43.6888623 98.22569824 44.14233398 99.39038086 C45.10651245 102.64873614 45.39595773 105.12348023 45.0625 108.5 C42.60655875 111.82274404 41.1368356 113.27618008 37.0625 114.125 C32.9844007 113.27539598 31.74896584 111.66544812 29.0625 108.5 C27.70284007 105.87233486 26.71425201 103.16853221 25.75 100.375 C25.35458008 99.30185547 25.35458008 99.30185547 24.95117188 98.20703125 C23.86481078 95.18779391 23.0625 92.7310908 23.0625 89.5 C8.2125 89.5 -6.6375 89.5 -21.9375 89.5 C-22.9275 92.8 -23.9175 96.1 -24.9375 99.5 C-25.72927092 101.68219791 -26.55590252 103.85251897 -27.4375 106 C-27.8396875 107.0003125 -28.241875 108.000625 -28.65625 109.03125 C-29.9375 111.5 -29.9375 111.5 -32.9375 113.5 C-36.77443587 113.91857482 -39.04953064 114.04644269 -42.375 112 C-44.57422301 108.48124318 -44.47217733 105.49541043 -43.9375 101.5 C-42.69038667 97.10983491 -41.05248494 92.89163059 -39.3984375 88.640625 C-38.91943388 87.3816717 -38.44158997 86.12227663 -37.96482849 84.86247253 C-36.69216226 81.50974119 -35.40324671 78.16349209 -34.11041641 74.81849289 C-32.77837462 71.36535051 -31.45972741 67.90709873 -30.1394043 64.44946289 C-28.0481208 58.97818766 -25.94750306 53.51058459 -23.84033203 48.04541016 C-21.69294802 42.47498625 -19.56589824 36.89720073 -17.45648193 31.31228638 C-16.18174874 27.93902396 -14.89828798 24.56914166 -13.61187744 21.20031738 C-13.04165056 19.70321438 -12.47450186 18.20493497 -11.9105835 16.70544434 C-11.14464545 14.67322239 -10.36541218 12.64664311 -9.58203125 10.62109375 C-9.16284424 9.5220874 -8.74365723 8.42308105 -8.31176758 7.29077148 C-6.31256813 3.23092978 -4.55755231 0.77575358 0 0 Z M0.0625 31.5 C-2.08014513 36.99679653 -4.21621384 42.49608517 -6.34619141 47.99780273 C-7.07192048 49.86959926 -7.79945118 51.74069828 -8.52880859 53.61108398 C-9.57602219 56.29750742 -10.61676038 58.98636125 -11.65625 61.67578125 C-11.98435669 62.51337479 -12.31246338 63.35096832 -12.6505127 64.21394348 C-12.95082397 64.99452621 -13.25113525 65.77510895 -13.56054688 66.5793457 C-13.82702026 67.26551468 -14.09349365 67.95168365 -14.36804199 68.65864563 C-15.08522704 70.65644524 -15.08522704 70.65644524 -14.9375 73.5 C-4.7075 73.5 5.5225 73.5 16.0625 73.5 C14.22935394 67.38951315 12.40570139 61.45872677 10.14453125 55.5234375 C9.88242355 54.82731354 9.62031586 54.13118958 9.3502655 53.41397095 C8.52831155 51.23311513 7.70175722 49.05403879 6.875 46.875 C6.31023854 45.37902262 5.74578305 43.88292968 5.18164062 42.38671875 C3.8121153 38.75647161 2.43846702 35.12781019 1.0625 31.5 C0.7325 31.5 0.4025 31.5 0.0625 31.5 Z " fill="#000000" transform="translate(391.9375,34.5)"/>
</svg>
