<svg width="20" height="20" viewBox="0 0 20 20" fill="none" xmlns="http://www.w3.org/2000/svg">
<path d="M13.3333 15C13.3333 16.8409 11.8409 18.3333 10 18.3333H5.83333C3.99238 18.3333 2.5 16.8409 2.5 15V4.99996C2.5 3.15901 3.99238 1.66663 5.83333 1.66663H10C11.8409 1.66663 13.3333 3.15901 13.3333 4.99996V6.66663C13.3333 7.12686 12.9602 7.49996 12.5 7.49996C12.0398 7.49996 11.6667 7.12686 11.6667 6.66663V4.99996C11.6667 4.07948 10.9205 3.33329 10 3.33329H5.83333C4.91286 3.33329 4.16667 4.07949 4.16667 4.99996V15C4.16667 15.9204 4.91286 16.6666 5.83333 16.6666H10C10.9205 16.6666 11.6667 15.9204 11.6667 15V13.3333C11.6667 12.8731 12.0398 12.5 12.5 12.5C12.9602 12.5 13.3333 12.8731 13.3333 13.3333V15Z" fill="#667085"/>
<path d="M14.6191 13.0892C14.2936 12.7638 14.2936 12.2361 14.6191 11.9107L15.6965 10.8333H7.70831C7.24807 10.8333 6.87498 10.4602 6.87498 9.99996C6.87498 9.53972 7.24807 9.16663 7.70831 9.16663H15.6965L14.6191 8.08922C14.2936 7.76378 14.2936 7.23614 14.6191 6.9107C14.9445 6.58527 15.4721 6.58527 15.7976 6.9107L18.5922 9.70533C18.7549 9.86805 18.7549 10.1319 18.5922 10.2946L15.7976 13.0892C15.4721 13.4147 14.9445 13.4147 14.6191 13.0892Z" fill="#667085"/>
</svg>
