<?xml version="1.0" encoding="UTF-8"?>
<svg version="1.1" xmlns="http://www.w3.org/2000/svg" width="512" height="512">
<path d="M0 0 C1.53573418 0.58649826 1.53573418 0.58649826 3.10249329 1.18484497 C5.25793191 2.01012131 7.41197801 2.83904276 9.56469727 3.67138672 C12.85892083 4.94362849 16.15851669 6.2010902 19.45898438 7.45703125 C21.55632652 8.26214366 23.65334326 9.06810436 25.75 9.875 C26.7354631 10.25010712 27.72092621 10.62521423 28.73625183 11.01168823 C30.1133709 11.54706711 30.1133709 11.54706711 31.51831055 12.09326172 C32.32326462 12.40335175 33.12821869 12.71344177 33.95756531 13.03292847 C36.3445284 14.1492298 38.21535867 15.30687592 40.17578125 17.0703125 C41.29848039 22.88064507 39.23793457 26.20149192 36.16796875 30.88867188 C35.63429687 31.67048828 35.100625 32.45230469 34.55078125 33.2578125 C33.48152 34.8247894 32.42605359 36.4012969 31.38671875 37.98828125 C30.91540527 38.67688232 30.4440918 39.3654834 29.95849609 40.07495117 C28.91698718 42.084804 28.91698718 42.084804 29.94287109 44.19506836 C31.35736165 46.34649448 32.87076915 48.39297671 34.42578125 50.4453125 C40.36396139 58.82570869 43.85994913 68.13289203 46.17578125 78.0703125 C46.40128662 77.18678101 46.40128662 77.18678101 46.63134766 76.28540039 C47.33695205 73.56298345 48.06866104 70.84821357 48.80078125 68.1328125 C49.03667969 67.20662109 49.27257812 66.28042969 49.515625 65.32617188 C52.46780847 54.53934765 58.26388079 45.72145063 68.04296875 39.97265625 C74.76629522 36.97366208 82.57600044 37.36565742 89.66796875 38.75390625 C93.82629498 39.12898913 95.58838134 38.32785594 99.23828125 36.3828125 C115.53340275 28.35657854 132.82808356 25.61698121 150.41015625 31.07421875 C157.2529601 33.7053984 162.71948966 37.20617659 168.17578125 42.0703125 C168.7790625 42.58078125 169.38234375 43.09125 170.00390625 43.6171875 C183.25555274 55.67499196 190.90716799 76.50313298 192.17578125 94.0703125 C192.32859346 100.21050378 192.29288332 106.34711551 192.15380859 112.48730469 C192.13141113 113.65293945 192.10901367 114.81857422 192.0859375 116.01953125 C192.05636963 117.06455811 192.02680176 118.10958496 191.99633789 119.1862793 C192.18553369 122.22705478 192.94095129 124.30790376 194.17578125 127.0703125 C194.99914878 132.93919968 194.46123532 138.03637046 191.578125 143.23828125 C190.00246592 145.29673281 188.32651004 146.54262905 186.23828125 148.0703125 C180.15075333 152.92895628 178.88790548 160.80201588 177.17578125 168.0703125 C177.17578125 168.7303125 177.17578125 169.3903125 177.17578125 170.0703125 C178.07707764 169.67239502 178.97837402 169.27447754 179.90698242 168.86450195 C183.31448259 167.36109106 186.72376452 165.86175655 190.13354492 164.36352539 C191.59723511 163.71974531 193.06046708 163.07492225 194.52319336 162.42895508 C203.6577658 158.39595517 212.81218531 154.5480456 222.17578125 151.0703125 C223.02447808 144.89203112 223.02447808 144.89203112 220.8984375 139.3046875 C219.68838022 138.21810545 218.46871974 137.14216904 217.2421875 136.07421875 C209.81956921 128.8761031 206.45792311 119.49155439 203.40307617 109.90380859 C201.46851836 104.15491793 199.22023885 101.5626293 194.17578125 98.0703125 C192.2845626 94.44289313 191.92738704 91.44058125 191.98828125 87.3828125 C191.99472656 86.43019531 192.00117188 85.47757812 192.0078125 84.49609375 C192.17578125 82.0703125 192.17578125 82.0703125 193.17578125 80.0703125 C193.23721493 78.30964162 193.23573073 76.54659682 193.203125 74.78515625 C193.18926758 73.70508301 193.17541016 72.62500977 193.16113281 71.51220703 C193.1453418 70.35575684 193.12955078 69.19930664 193.11328125 68.0078125 C192.89604474 30.22417736 192.89604474 30.22417736 205.17578125 16.0703125 C210.74813044 11.05837035 214.58846293 8.93548728 222.22998047 9.23706055 C230.22064158 9.51618526 236.08727433 8.91007885 243.40234375 5.3828125 C254.81353146 -0.01741154 269.87170364 -1.25917311 281.87109375 3.0234375 C296.49519706 9.66625053 306.14352794 20.22971699 312.17578125 35.0703125 C316.20711583 47.2186103 317.31489244 58.01046042 317.04882812 70.70898438 C316.99015632 75.99289819 317.25169452 80.08137616 319.17578125 85.0703125 C319.49287419 91.31704336 317.71527239 96.01389659 314.17578125 101.0703125 C310.88545867 104.0703125 310.88545867 104.0703125 308.17578125 104.0703125 C308.0984375 104.8746875 308.0984375 104.8746875 308.01953125 105.6953125 C306.07845461 119.10638744 298.78881717 130.79383801 289.17578125 140.0703125 C287.91629076 141.10437923 287.91629076 141.10437923 288.078125 143.35546875 C288.08972656 144.27199219 288.10132813 145.18851563 288.11328125 146.1328125 C288.12681641 147.51146484 288.12681641 147.51146484 288.140625 148.91796875 C288.15222656 149.62824219 288.16382813 150.33851563 288.17578125 151.0703125 C288.79171143 151.31040039 289.4076416 151.55048828 290.04223633 151.79785156 C302.75867064 156.77349145 315.37321542 161.92761961 327.86328125 167.4453125 C329.00192627 167.94450195 330.14057129 168.44369141 331.3137207 168.95800781 C342.52118793 173.95407722 349.65688295 178.53434506 354.20788574 190.24484253 C355.82537268 194.96659268 356.79808252 199.77604154 357.75390625 204.66796875 C357.97020691 205.74227646 358.18650757 206.81658417 358.40936279 207.92344666 C358.86093597 210.17890534 359.30775234 212.43532121 359.75 214.69262695 C360.42510189 218.12935411 361.11967166 221.56174145 361.81640625 224.99414062 C362.25507482 227.19768436 362.69261335 229.40145342 363.12890625 231.60546875 C363.43819061 233.12926903 363.43819061 233.12926903 363.75372314 234.68385315 C364.89475214 240.58149081 365.65307037 246.06171534 365.17578125 252.0703125 C363.97520733 253.79357624 363.97520733 253.79357624 362.17578125 255.0703125 C359.85446644 255.45507336 359.85446644 255.45507336 357.0695343 255.46903992 C355.48569443 255.48784714 355.48569443 255.48784714 353.86985779 255.5070343 C352.7118013 255.50559921 351.55374481 255.50416412 350.3605957 255.50268555 C349.1409613 255.5128772 347.9213269 255.52306885 346.66473389 255.53356934 C343.31984906 255.55860906 339.97540357 255.57042944 336.63046288 255.57642341 C333.13501748 255.58579603 329.63969963 255.61199845 326.14433289 255.63642883 C319.52521375 255.6801283 312.90611933 255.708654 306.28689975 255.73175222 C298.75122924 255.75878549 291.21568683 255.80269809 283.68010771 255.84804094 C268.17873136 255.94093652 252.6773309 256.01259466 237.17578125 256.0703125 C237.35339493 256.90889801 237.53100861 257.74748352 237.71400452 258.61148071 C239.38802515 266.52466142 241.05165128 274.43994114 242.70371342 282.35773659 C243.55336762 286.42803128 244.40698119 290.49741001 245.26977539 294.56494141 C246.10267161 298.49224934 246.92499381 302.42163746 247.7401104 306.35267258 C248.05252952 307.85011608 248.36871512 309.34677898 248.68876839 310.84260941 C249.13730427 312.94210492 249.57222052 315.04400723 250.00415039 317.14697266 C250.2550795 318.34166168 250.50600861 319.53635071 250.76454163 320.76724243 C251.19067393 324.18993024 251.03958675 326.7395673 250.17578125 330.0703125 C247.76004616 332.48604759 247.20926136 332.32163038 243.90878391 332.32758141 C243.00793585 332.3340303 242.10708779 332.34047919 241.17894131 332.3471235 C240.18294869 332.3440263 239.18695607 332.3409291 238.16078186 332.33773804 C237.1076332 332.34226915 236.05448454 332.34680026 234.96942228 332.35146868 C231.41715246 332.36419586 227.86503433 332.36248697 224.31274414 332.36083984 C221.77547507 332.36681987 219.23820782 332.37362419 216.70094299 332.38119507 C210.51053914 332.39707199 204.32019147 332.40330573 198.12976915 332.40441982 C193.0998021 332.40536907 188.06984764 332.40947316 183.03988457 332.41582108 C168.78980913 332.43343991 154.53976386 332.44265888 140.28967745 332.44116013 C139.52095157 332.44108022 138.75222568 332.4410003 137.96020508 332.44091797 C136.80571406 332.44079533 136.80571406 332.44079533 135.6279 332.44067021 C123.14960594 332.43985701 110.67143251 332.45900148 98.19317336 332.4871947 C85.39117644 332.51589196 72.58923841 332.52973676 59.7872085 332.52800715 C52.59555021 332.52734217 45.40401838 332.53288127 38.21238899 332.55436325 C31.45152801 332.57442853 24.69097915 332.57393382 17.93008995 332.55932999 C15.4431685 332.55722929 12.95623068 332.56201703 10.46933746 332.5740509 C7.08515938 332.58937103 3.70192056 332.58028269 0.31776428 332.56478882 C-0.67599761 332.57507594 -1.66975951 332.58536307 -2.6936354 332.59596193 C-3.59709121 332.58676434 -4.50054702 332.57756675 -5.43138027 332.56809044 C-6.60365945 332.56874254 -6.60365945 332.56874254 -7.79962105 332.56940782 C-9.82421875 332.0703125 -9.82421875 332.0703125 -11.58822733 330.17013896 C-13.07314831 327.64740594 -13.071478 326.55117168 -12.6796875 323.67919922 C-12.56028809 322.79697693 -12.44088867 321.91475464 -12.31787109 321.00579834 C-11.37855356 315.42018054 -10.28618384 309.87402082 -9.13671875 304.328125 C-8.87415283 303.04219452 -8.61158691 301.75626404 -8.34106445 300.43136597 C-7.64887952 297.04220234 -6.95059664 293.65432324 -6.25109863 290.2666626 C-5.68049893 287.49794055 -5.11432217 284.72832274 -4.5483551 281.95865059 C-3.3780134 276.23206443 -2.20428873 270.50616656 -1.0234375 264.78173828 C-0.81549561 263.77265411 -0.60755371 262.76356995 -0.39331055 261.72390747 C0.08552166 259.49118025 0.61539134 257.28342411 1.17578125 255.0703125 C0.58586741 255.07307788 -0.00404642 255.07584326 -0.61183643 255.07869244 C-14.95825476 255.14491287 -29.30465946 255.19457384 -43.65119648 255.22574902 C-50.58905331 255.24122539 -57.5268082 255.26232948 -64.46459961 255.29663086 C-71.15596613 255.32969814 -77.8472047 255.34715005 -84.53865623 255.35494423 C-87.0956203 255.36050094 -89.65257836 255.37135135 -92.20949745 255.38750267 C-95.78212805 255.40917889 -99.35431652 255.41228349 -102.92700195 255.41088867 C-103.99155106 255.4216745 -105.05610016 255.43246033 -106.15290833 255.443573 C-107.12466003 255.43944901 -108.09641174 255.43532501 -109.09761047 255.43107605 C-109.94289464 255.43384143 -110.78817881 255.43660681 -111.65907764 255.43945599 C-114.36490103 254.97812944 -115.24515058 254.29673597 -116.82421875 252.0703125 C-117.37994107 245.05797427 -116.18997885 238.6068838 -114.77734375 231.75390625 C-114.45863312 230.17005882 -114.45863312 230.17005882 -114.13348389 228.55421448 C-113.68390121 226.33382801 -113.22982512 224.1143471 -112.77148438 221.89575195 C-112.07617734 218.51732907 -111.40252305 215.13506858 -110.73046875 211.75195312 C-110.28906399 209.58567147 -109.84639775 207.4196464 -109.40234375 205.25390625 C-109.2042511 204.25161484 -109.00615845 203.24932343 -108.80206299 202.21665955 C-106.69278907 192.1784815 -103.52004462 184.91649273 -94.82421875 179.0703125 C-90.59060247 176.83521214 -86.24534186 174.96355248 -81.82421875 173.1328125 C-80.08978516 172.39321289 -80.08978516 172.39321289 -78.3203125 171.63867188 C-75.49370253 170.43561061 -72.66202505 169.24665991 -69.82421875 168.0703125 C-69.82421875 165.61802297 -70.57616212 164.62712328 -71.79272461 162.51245117 C-74.13394493 157.92554289 -74.38057036 154.078001 -74.328125 148.99609375 C-74.33754623 148.15040329 -74.34696747 147.30471283 -74.35667419 146.43339539 C-74.38512162 143.7496178 -74.38841238 141.06672777 -74.38671875 138.3828125 C-74.4025459 126.79417349 -74.78602078 116.33562256 -77.82421875 105.0703125 C-80.95299936 88.25807927 -77.17111481 68.63133725 -68.01953125 54.23046875 C-66.3386809 51.7998615 -64.60203595 49.43028646 -62.82421875 47.0703125 C-60.59069131 44.35788773 -60.59069131 44.35788773 -60.91796875 41.81640625 C-62.34154302 37.50273077 -65.00481724 34.01796358 -67.5859375 30.33007812 C-70.06103191 26.6654966 -71.97372911 23.64906729 -71.82421875 19.0703125 C-67.66731098 13.62085055 -62.1195337 11.7911777 -55.86328125 9.390625 C-54.7993515 8.97360321 -53.73542175 8.55658142 -52.63925171 8.12692261 C-50.39424133 7.25147573 -48.14657735 6.38280732 -45.89648438 5.52050781 C-42.45986686 4.19940584 -39.03658842 2.84734903 -35.61328125 1.4921875 C-33.42651704 0.64393404 -31.23903926 -0.20248261 -29.05078125 -1.046875 C-28.03078033 -1.45195282 -27.01077942 -1.85703064 -25.95986938 -2.27438354 C-16.00368933 -6.03582893 -9.60547821 -3.71860966 0 0 Z M-29.765625 13.625 C-30.44850082 13.88660919 -31.13137665 14.14821838 -31.83494568 14.41775513 C-33.27891993 14.97250848 -34.72218614 15.52910777 -36.16479492 16.08740234 C-38.37852273 16.94214792 -40.59629196 17.78574413 -42.81445312 18.62890625 C-44.21510571 19.16859145 -45.61550524 19.70893397 -47.015625 20.25 C-47.68227676 20.50216278 -48.34892853 20.75432556 -49.03578186 21.01412964 C-52.60642571 22.2271699 -52.60642571 22.2271699 -54.82421875 25.0703125 C-53.37597604 28.25053017 -51.41502503 31.166054 -49.57421875 34.1328125 C-49.07019531 34.97392578 -48.56617187 35.81503906 -48.046875 36.68164062 C-47.55574219 37.48150391 -47.06460938 38.28136719 -46.55859375 39.10546875 C-46.10709961 39.841604 -45.65560547 40.57773926 -45.19042969 41.33618164 C-43.84711631 43.36795789 -43.84711631 43.36795789 -40.82421875 44.0703125 C-38.68480306 43.93518135 -38.68480306 43.93518135 -36.375 43.51171875 C-35.52744141 43.37314453 -34.67988281 43.23457031 -33.80664062 43.09179688 C-32.92556641 42.94033203 -32.04449219 42.78886719 -31.13671875 42.6328125 C-30.24404297 42.48521484 -29.35136719 42.33761719 -28.43164062 42.18554688 C-26.22800738 41.82023869 -24.02571275 41.44826362 -21.82421875 41.0703125 C-21.82421875 38.4303125 -21.82421875 35.7903125 -21.82421875 33.0703125 C-23.10296875 32.9465625 -24.38171875 32.8228125 -25.69921875 32.6953125 C-29.57421875 32.3203125 -29.57421875 32.3203125 -31.82421875 30.0703125 C-32.13671875 26.5703125 -32.13671875 26.5703125 -31.82421875 23.0703125 C-28.37971138 20.77397426 -25.88609592 20.53014765 -21.82421875 20.0703125 C-21.49421875 17.1003125 -21.16421875 14.1303125 -20.82421875 11.0703125 C-24.01521832 11.0703125 -26.82155461 12.4900727 -29.765625 13.625 Z M-9.82421875 11.0703125 C-9.49421875 14.0403125 -9.16421875 17.0103125 -8.82421875 20.0703125 C-4.36921875 21.0603125 -4.36921875 21.0603125 0.17578125 22.0703125 C1.50175748 28.45910707 1.50175748 28.45910707 0.17578125 30.9453125 C-2.72071695 32.57459274 -5.54996863 32.76142098 -8.82421875 33.0703125 C-9.15421875 35.7103125 -9.48421875 38.3503125 -9.82421875 41.0703125 C-2.56421875 42.0603125 4.69578125 43.0503125 12.17578125 44.0703125 C14.20641953 40.9512998 16.22549577 37.82581238 18.23828125 34.6953125 C18.81900391 33.80585938 19.39972656 32.91640625 19.99804688 32 C20.81499023 30.72382813 20.81499023 30.72382813 21.6484375 29.421875 C22.15640869 28.63635254 22.66437988 27.85083008 23.18774414 27.04150391 C23.51379639 26.39101074 23.83984863 25.74051758 24.17578125 25.0703125 C22.60946459 21.93767917 19.49253386 21.43217047 16.3671875 20.25 C15.6852684 19.98647736 15.0033493 19.72295471 14.30076599 19.45144653 C12.85697662 18.89514031 11.41187016 18.34224228 9.96557617 17.79248047 C7.74800604 16.94901139 5.53490835 16.09458162 3.32226562 15.23828125 C1.92082351 14.69986811 0.51913862 14.16208637 -0.8828125 13.625 C-1.54744003 13.36878876 -2.21206757 13.11257751 -2.89683533 12.84860229 C-6.26578945 11.51250218 -6.26578945 11.51250218 -9.82421875 11.0703125 Z M240.86328125 20.8828125 C236.10555086 23.39980535 233.29163373 23.13736165 228.17578125 22.0703125 C223.24698265 21.50581762 220.19205742 21.45671179 215.86328125 24.0703125 C207.71875848 32.10203025 206.91380948 43.96486919 206.48828125 54.7578125 C206.44123047 55.66853516 206.39417969 56.57925781 206.34570312 57.51757812 C206.13858289 62.1930627 206.16005091 66.46515917 207.17578125 71.0703125 C213.04634665 68.29810106 215.16544144 63.82068199 217.30078125 58.0078125 C218.81155947 52.15354689 219.39550653 46.05518561 220.17578125 40.0703125 C227.42686142 39.45581418 227.42686142 39.45581418 230.61328125 42.0703125 C231.45890625 43.0603125 232.30453125 44.0503125 233.17578125 45.0703125 C243.61520258 55.42621846 255.4496395 61.01565683 270.30078125 61.4453125 C276.67811076 61.32163096 282.85031677 60.24556159 289.08447266 58.96240234 C294.61036448 57.88930745 294.61036448 57.88930745 297.640625 58.859375 C299.17578125 60.0703125 299.17578125 60.0703125 300.17578125 62.0703125 C300.44819795 64.63016468 300.62143106 67.18961186 300.796875 69.7578125 C300.97584023 72.25934883 300.97584023 72.25934883 303.17578125 74.0703125 C305.12407206 72.12202169 304.41572206 68.53295195 304.42578125 65.8828125 C304.38515146 50.07252327 300.19135495 34.38384252 288.9921875 22.68359375 C281.13705559 15.70688519 273.07163265 13.57440232 262.6484375 13.75390625 C254.78723676 14.47016863 247.74638263 17.11499859 240.86328125 20.8828125 Z M99.80078125 50.3828125 C94.67238043 52.7701715 90.62196245 52.88570623 85.17578125 51.0703125 C80.56517913 50.53460444 77.12246929 50.59696848 72.92578125 52.6953125 C63.58079365 60.76598361 60.61589718 71.03692357 59.17578125 83.0703125 C58.95078977 88.47045588 58.98460749 93.85466272 59.05078125 99.2578125 C59.06083946 100.70116561 59.06996025 102.14452556 59.078125 103.58789062 C59.09989434 107.08217644 59.1342645 110.57619887 59.17578125 114.0703125 C65.34827038 112.24237151 67.92681088 109.62047287 71.26953125 104.34375 C75.20318008 96.86385715 75.77221572 88.16431487 76.8503418 79.89868164 C77.17578125 78.0703125 77.17578125 78.0703125 78.17578125 76.0703125 C81.73270802 75.21974305 83.66848703 74.90121443 87.17578125 76.0703125 C88.71875 77.671875 88.71875 77.671875 90.36328125 79.6953125 C101.91538655 93.14081265 116.11662644 99.99234275 133.79296875 101.34765625 C141.49702962 101.55125194 148.75911559 100.68345522 156.27856445 99.13818359 C166.96221947 96.96353161 166.96221947 96.96353161 171.17578125 99.0703125 C171.51953125 100.85546875 171.51953125 100.85546875 171.67578125 103.1328125 C172.07166231 107.62426306 172.99029438 111.72352729 174.17578125 116.0703125 C176.15578125 116.5653125 176.15578125 116.5653125 178.17578125 117.0703125 C183.47735467 106.46716565 178.35349521 87.13791166 175.109375 76.609375 C170.56101023 63.72984705 162.65095235 52.32076755 150.48828125 45.6953125 C133.55582251 37.90978499 115.71214663 41.63311843 99.80078125 50.3828125 Z M-40.08984375 56.4140625 C-44.49337325 57.47090958 -48.49588309 57.40210809 -52.82421875 56.0703125 C-58.93886327 64.50852193 -63.0473761 72.58293667 -63.82421875 83.0703125 C-46.76962608 83.71523407 -29.5582492 81.38685974 -15.99609375 70.1015625 C-10.8887578 65.32491736 -5.85652126 60.42701622 -2.82421875 54.0703125 C-21.63535374 53.39599207 -21.63535374 53.39599207 -40.08984375 56.4140625 Z M20.17578125 55.0703125 C19.51578125 55.7303125 18.85578125 56.3903125 18.17578125 57.0703125 C15.4873874 57.34023156 12.88436189 57.15768607 10.17578125 57.0703125 C11.36021145 65.82886213 13.03101769 72.13835012 20.25 77.90234375 C24.24449094 80.32496605 28.74459846 81.65895713 33.17578125 83.0703125 C32.52311803 76.28261504 30.24660136 70.60867344 27.23828125 64.5703125 C26.89023438 63.86390625 26.5421875 63.1575 26.18359375 62.4296875 C24.4571516 59.06801147 23.37311966 57.20187144 20.17578125 55.0703125 Z M230.17578125 60.0703125 C229.716875 61.02292969 229.25796875 61.97554688 228.78515625 62.95703125 C228.16569151 64.22411822 227.54588144 65.4910364 226.92578125 66.7578125 C226.62542969 67.38365234 226.32507813 68.00949219 226.015625 68.65429688 C222.54816882 75.69987272 219.0536834 79.60136974 211.92578125 82.8828125 C211.27609375 83.19412109 210.62640625 83.50542969 209.95703125 83.82617188 C208.36856154 84.58536696 206.77286862 85.32941769 205.17578125 86.0703125 C205.49078609 88.5112389 205.49078609 88.5112389 206.17578125 91.0703125 C209.36005003 93.46314616 209.36005003 93.46314616 213.17578125 94.0703125 C213.39492188 95.08609375 213.6140625 96.101875 213.83984375 97.1484375 C217.13900213 111.76026914 222.22164916 124.73408671 234.73046875 133.953125 C243.55875673 139.50770133 251.80066361 141.08071588 262.17578125 140.0703125 C273.4672341 137.06957024 283.02947555 129.70120602 289.203125 119.828125 C292.84445844 112.91498033 295.11436862 106.44576862 296.27734375 98.71484375 C297.45451257 95.24987292 298.96638589 94.65786074 302.17578125 93.0703125 C304.46867597 91.11221727 304.46867597 91.11221727 306.17578125 89.0703125 C306.17578125 88.4103125 306.17578125 87.7503125 306.17578125 87.0703125 C305.51191406 86.98394531 304.84804688 86.89757812 304.1640625 86.80859375 C299.84635746 86.12154288 296.82498634 85.53995023 293.23828125 82.9453125 C290.70269728 79.41086211 289.5073047 76.20504321 288.17578125 72.0703125 C287.53253906 72.1425 286.88929688 72.2146875 286.2265625 72.2890625 C265.29421839 74.43903222 247.81504892 71.82982428 230.17578125 60.0703125 Z M-5.32421875 77.1953125 C-22.21608005 92.56907499 -42.85041461 95.08097061 -64.82421875 96.0703125 C-63.28073713 102.42063687 -60.97262473 106.49338163 -56.51953125 111.25390625 C-53.54360969 114.44239364 -51.3936906 117.83763586 -49.56640625 121.79296875 C-44.46625307 132.81543095 -38.03649807 139.91007736 -26.859375 144.96875 C-17.294668 148.44011084 -9.0525531 147.13405872 0.17578125 143.0703125 C9.07706557 137.85092306 14.82226603 130.14627738 19.17578125 120.9453125 C21.40466151 116.23724992 23.73571485 113.19306673 27.5625 109.72265625 C31.41557016 105.77629142 33.17578125 101.5169858 33.17578125 96.0703125 C32.19738281 95.77898437 31.21898437 95.48765625 30.2109375 95.1875 C18.68309503 91.63628286 9.7528482 87.72300455 3.17578125 77.0703125 C2.49072576 75.7463332 1.81842825 74.41538761 1.17578125 73.0703125 C-1.94384847 73.0703125 -3.1153205 75.07728664 -5.32421875 77.1953125 Z M87.17578125 96.0703125 C86.95664063 96.82054687 86.7375 97.57078125 86.51171875 98.34375 C83.20210359 109.0260038 79.31166729 118.43368941 69.17578125 124.0703125 C65.23189318 125.8969044 61.24258756 127.53848212 57.17578125 129.0703125 C56.8671757 133.47464491 56.8671757 133.47464491 58.80078125 137.2578125 C61.12844851 139.22546716 61.12844851 139.22546716 64.17578125 140.13671875 C67.41095816 142.22189137 67.64485677 142.51678568 68.57421875 145.9921875 C68.91746776 147.59787484 69.24199572 149.20764291 69.55078125 150.8203125 C73.176048 166.7754366 80.56509905 180.21994132 94.421875 189.46484375 C105.47373021 195.90784019 116.39472656 198.71491702 128.98828125 195.9453125 C143.58324476 191.96153001 153.93146581 182.87625711 161.6484375 169.984375 C165.42948823 162.77040097 167.94438169 155.48948193 169.48828125 147.5078125 C170.61632703 142.52342419 170.61632703 142.52342419 173.06640625 140.5390625 C175.23828125 139.5078125 175.23828125 139.5078125 177.3359375 138.81640625 C179.54911277 138.11980776 179.54911277 138.11980776 181.17578125 135.0703125 C181.34291694 132.44499726 181.34291694 132.44499726 181.17578125 130.0703125 C180.36753906 129.98394531 179.55929687 129.89757812 178.7265625 129.80859375 C169.9756833 128.65799564 169.9756833 128.65799564 166.11328125 125.8203125 C162.96344236 121.34957343 161.15380846 117.43135054 160.17578125 112.0703125 C159.26699219 112.1425 158.35820312 112.2146875 157.421875 112.2890625 C132.42131726 114.13525753 111.44906204 113.02750827 90.6953125 97.86328125 C88.55538412 95.9736786 88.55538412 95.9736786 87.17578125 96.0703125 Z M45.17578125 109.0703125 C41.03430229 120.03379337 41.73275563 131.45234675 41.73999023 142.98120117 C41.73640364 145.6297847 41.70902693 148.277376 41.6796875 150.92578125 C41.68787003 151.72493454 41.69605255 152.52408783 41.70448303 153.34745789 C41.62739502 159.22165705 40.10092981 162.97569993 37.17578125 168.0703125 C41.1075157 169.90547705 45.04023465 171.73850985 48.97387695 173.56958008 C50.31171442 174.19269356 51.64928186 174.81638713 52.98657227 175.44067383 C54.90961012 176.33828192 56.83361169 177.23379442 58.7578125 178.12890625 C59.91514893 178.66829834 61.07248535 179.20769043 62.26489258 179.76342773 C65.1520821 181.11800937 65.1520821 181.11800937 68.17578125 182.0703125 C66.77938709 178.47859221 65.24128458 174.96371363 63.66381836 171.44824219 C61.27693813 166.1216775 59.02014801 161.00710524 57.61328125 155.3203125 C56.63874076 151.7109033 56.39107874 151.23522122 53.23828125 148.8203125 C52.22765625 148.2428125 51.21703125 147.6653125 50.17578125 147.0703125 C46.36804711 142.02763756 45.02734353 138.46090186 44.98828125 132.1953125 C44.97410156 131.16664063 44.95992187 130.13796875 44.9453125 129.078125 C45.17578125 126.0703125 45.17578125 126.0703125 46.2109375 123.58203125 C47.4327217 120.40143513 47.17088941 118.12579678 46.80078125 114.7578125 C46.68992188 113.68917969 46.5790625 112.62054688 46.46484375 111.51953125 C46.36945313 110.71128906 46.2740625 109.90304687 46.17578125 109.0703125 C45.84578125 109.0703125 45.51578125 109.0703125 45.17578125 109.0703125 Z M-60.82421875 130.0703125 C-60.88205717 134.36192297 -60.91775995 138.65343395 -60.94921875 142.9453125 C-60.96597656 144.16863281 -60.98273438 145.39195312 -61 146.65234375 C-61.00644531 147.81894531 -61.01289062 148.98554688 -61.01953125 150.1875 C-61.03000488 151.26628418 -61.04047852 152.34506836 -61.05126953 153.45654297 C-61.09261852 156.23075272 -61.09261852 156.23075272 -58.82421875 158.0703125 C-55.69607361 158.31391323 -55.69607361 158.31391323 -52.19921875 158.1953125 C-51.01070312 158.17726563 -49.8221875 158.15921875 -48.59765625 158.140625 C-47.68242188 158.11742187 -46.7671875 158.09421875 -45.82421875 158.0703125 C-44.95489074 151.8530473 -44.95489074 151.8530473 -47.13671875 146.234375 C-48.33797854 145.13500778 -49.56227385 144.0604481 -50.8046875 143.0078125 C-54.05652744 139.8880589 -56.13504476 136.07268082 -58.44140625 132.23046875 C-58.89773437 131.51761719 -59.3540625 130.80476562 -59.82421875 130.0703125 C-60.15421875 130.0703125 -60.48421875 130.0703125 -60.82421875 130.0703125 Z M28.17578125 131.0703125 C26.32450954 133.71717206 24.53103213 136.3930763 22.765625 139.09765625 C20.79663491 142.028093 19.26200286 144.0053128 16.3984375 146.1640625 C13.93463511 147.87551774 13.93463511 147.87551774 13.6875 150.6484375 C13.74550781 151.53015625 13.80351562 152.411875 13.86328125 153.3203125 C13.90839844 154.21234375 13.95351562 155.104375 14 156.0234375 C14.05800781 156.69890625 14.11601562 157.374375 14.17578125 158.0703125 C16.48821917 158.09716662 18.80074395 158.11664091 21.11328125 158.1328125 C22.40105469 158.14441406 23.68882812 158.15601563 25.015625 158.16796875 C28.03876528 158.43563799 28.03876528 158.43563799 29.17578125 157.0703125 C29.26326332 155.14363743 29.28275459 153.21379389 29.2734375 151.28515625 C29.27021484 150.11533203 29.26699219 148.94550781 29.26367188 147.74023438 C29.25529297 146.50853516 29.24691406 145.27683594 29.23828125 144.0078125 C29.23376953 142.77224609 29.22925781 141.53667969 29.22460938 140.26367188 C29.21277733 137.19917133 29.19629298 134.13476529 29.17578125 131.0703125 C28.84578125 131.0703125 28.51578125 131.0703125 28.17578125 131.0703125 Z M236.17578125 149.0703125 C235.8725208 152.11337425 235.75852142 153.5513853 237.71484375 155.984375 C243.2916503 160.55860958 248.66981973 164.92596709 256.17578125 165.0703125 C263.13556593 163.30107431 269.68437854 159.79120533 274.17578125 154.0703125 C274.17578125 152.7503125 274.17578125 151.4303125 274.17578125 150.0703125 C273.56734375 150.2146875 272.95890625 150.3590625 272.33203125 150.5078125 C260.11756751 153.09440482 248.02846215 153.28906333 236.17578125 149.0703125 Z M-32.82421875 156.0703125 C-33.17506787 158.39390064 -33.17506787 158.39390064 -32.82421875 161.0703125 C-31.05695503 163.3382985 -31.05695503 163.3382985 -28.63671875 165.2578125 C-27.47076172 166.26908203 -27.47076172 166.26908203 -26.28125 167.30078125 C-21.53746668 170.71721025 -17.86733768 171.52967937 -12.171875 170.75 C-8.01433282 169.5463189 -4.98412324 166.94425278 -1.82421875 164.0703125 C-0.96957031 163.35488281 -0.96957031 163.35488281 -0.09765625 162.625 C1.59822197 160.88951378 1.59822197 160.88951378 1.17578125 157.0703125 C0.39976562 157.22628906 -0.37625 157.38226563 -1.17578125 157.54296875 C-11.82733533 159.46228219 -22.50872219 159.75441841 -32.82421875 156.0703125 Z M219.21484375 166.34375 C218.03075928 166.83415771 216.8466748 167.32456543 215.62670898 167.82983398 C214.35111441 168.36765057 213.07581088 168.90615792 211.80078125 169.4453125 C210.49749568 169.99231289 209.1941915 170.53926891 207.89086914 171.08618164 C204.6049471 172.46954727 201.32477968 173.8659814 198.04730225 175.26922607 C196.27417247 176.02819709 194.49967409 176.78396843 192.72509766 177.53955078 C189.67959274 178.84437099 186.64463486 180.1704963 183.61328125 181.5078125 C182.71109863 181.89565918 181.80891602 182.28350586 180.87939453 182.68310547 C176.20247892 184.7864035 172.80380964 186.46462638 170.17578125 191.0703125 C169.30190588 193.75297118 168.59063418 196.27053777 167.98828125 199.0078125 C167.74174805 200.04325195 167.74174805 200.04325195 167.49023438 201.09960938 C166.56081362 205.06940249 165.82975104 209.04777463 165.17578125 213.0703125 C165.89306396 213.37622314 166.61034668 213.68213379 167.34936523 213.99731445 C175.32284459 217.40021931 183.29011663 220.81733232 191.253479 224.24383545 C193.09991536 225.03769462 194.94715758 225.82967866 196.79443359 226.62158203 C200.13318986 228.05530823 203.46752858 229.49884497 206.80078125 230.9453125 C207.79907959 231.37239502 208.79737793 231.79947754 209.82592773 232.23950195 C210.77927002 232.65546631 211.7326123 233.07143066 212.71484375 233.5 C213.53162598 233.85304199 214.3484082 234.20608398 215.18994141 234.56982422 C218.17578125 236.0703125 218.17578125 236.0703125 220.21800613 237.5053978 C227.08457492 242.19222253 232.41062093 242.91005809 240.60205078 242.75146484 C241.80320023 242.752341 243.00434967 242.75321716 244.24189758 242.75411987 C247.50423134 242.75067976 250.76497821 242.72079756 254.026999 242.67867613 C257.4475238 242.64091804 260.86808678 242.63762422 264.28878784 242.63052368 C270.75216422 242.6119477 277.21492455 242.56281089 283.67803085 242.50242674 C291.04200137 242.43513384 298.40600285 242.40231574 305.77020478 242.37225413 C320.90573893 242.3097038 336.04069819 242.20431229 351.17578125 242.0703125 C350.86037083 239.99730994 350.54397152 237.92445783 350.22715759 235.85166931 C349.96302519 234.12016585 349.96302519 234.12016585 349.69355679 232.35368252 C349.07110285 228.40651536 348.34868652 224.48989977 347.5546875 220.57421875 C347.4092601 219.85217758 347.2638327 219.13013641 347.11399841 218.38621521 C346.81070587 216.88806927 346.50570401 215.39026833 346.19897461 213.89282227 C345.73426303 211.61310042 345.28214329 209.33108702 344.83007812 207.04882812 C344.53071437 205.5779688 344.23061102 204.10725976 343.9296875 202.63671875 C343.79832901 201.96475967 343.66697052 201.2928006 343.53163147 200.60047913 C342.26054392 194.52146274 340.33726394 189.2587698 335.29101562 185.37011719 C330.15148888 182.21189461 324.47626431 180.02422321 318.92578125 177.6953125 C317.57354614 177.12071355 316.22149617 176.54567871 314.86962891 175.97021484 C310.97880038 174.31957628 307.07834207 172.69301612 303.17578125 171.0703125 C301.6429248 170.42835938 301.6429248 170.42835938 300.07910156 169.7734375 C297.57586972 168.73109354 295.06649944 167.70708041 292.55078125 166.6953125 C291.84276367 166.40350098 291.13474609 166.11168945 290.40527344 165.81103516 C287.90019843 164.83239252 285.75873477 164.04464115 283.046875 164.1640625 C280.3886834 165.45153735 278.19936237 167.14121025 275.86328125 168.9453125 C267.93996566 174.80395459 260.91651124 177.67794659 250.88671875 176.890625 C243.46043161 175.60480143 236.43228046 171.72033159 231.30078125 166.1953125 C230.59953125 165.4940625 229.89828125 164.7928125 229.17578125 164.0703125 C225.02603815 164.0703125 222.99448085 164.76914197 219.21484375 166.34375 Z M-41.82421875 171.0703125 C-44.69749312 172.04666787 -47.46041637 173.10103014 -50.26171875 174.2578125 C-51.55831421 174.78834229 -51.55831421 174.78834229 -52.88110352 175.32958984 C-55.8679249 176.56304372 -58.84635401 177.81539432 -61.82421875 179.0703125 C-62.98179688 179.5535498 -64.139375 180.03678711 -65.33203125 180.53466797 C-68.98424584 182.067992 -72.62412215 183.62765766 -76.26171875 185.1953125 C-77.42823975 185.68539795 -78.59476074 186.1754834 -79.79663086 186.68041992 C-88.15941989 190.23953048 -88.15941989 190.23953048 -93.82421875 197.0703125 C-95.18320897 201.51661096 -96.08715822 206.00476289 -96.94921875 210.5703125 C-97.43098958 212.9765625 -97.91276042 215.3828125 -98.39453125 217.7890625 C-98.6255957 218.98015625 -98.85666016 220.17125 -99.09472656 221.3984375 C-100.07986902 226.35711977 -101.17001785 231.28986734 -102.26904297 236.22460938 C-102.91996008 239.07783504 -102.91996008 239.07783504 -102.82421875 242.0703125 C-88.24643481 242.21075775 -73.66874097 242.3164175 -59.09041691 242.38118553 C-52.32070805 242.41206409 -45.55142067 242.45412785 -38.78198242 242.52294922 C-32.24623138 242.58936288 -25.71075329 242.62404294 -19.17468071 242.63957596 C-16.68402666 242.65064215 -14.1933959 242.67225212 -11.70292854 242.70469284 C-8.20776218 242.74840039 -4.71439085 242.75424021 -1.21899414 242.75146484 C-0.19471817 242.7730365 0.8295578 242.79460815 1.88487244 242.8168335 C8.30067701 242.76189264 12.09101882 241.49425503 17.19165993 237.56261826 C20.4336949 235.12420514 24.0744442 233.68450922 27.796875 232.125 C28.5816774 231.78783966 29.3664798 231.45067932 30.17506409 231.103302 C32.65095261 230.04216956 35.13196297 228.99367493 37.61328125 227.9453125 C39.27052532 227.23647854 40.92742911 226.52684847 42.58398438 225.81640625 C50.40833281 222.4691071 58.24557987 219.1606566 66.17578125 216.0703125 C65.52970412 208.18817156 64.82937004 199.76925445 60.11328125 193.1953125 C52.14882431 187.43379046 42.59079965 184.0163464 33.5612793 180.2487793 C31.4792501 179.37903986 29.4006849 178.50137264 27.32226562 177.62304688 C25.97806454 177.05941872 24.63367012 176.49625138 23.2890625 175.93359375 C22.09063721 175.43126221 20.89221191 174.92893066 19.6574707 174.41137695 C16.1526011 173.06138406 12.83096701 171.92550176 9.17578125 171.0703125 C6.91905835 172.17713252 6.91905835 172.17713252 5.23828125 174.1953125 C0.42737368 178.93163235 -4.96208466 182.400836 -11.82421875 183.0703125 C-12.46875 183.13347656 -13.11328125 183.19664062 -13.77734375 183.26171875 C-23.51710769 183.78957309 -30.70516236 179.65173988 -38.01171875 173.55859375 C-39.762633 172.00861569 -39.762633 172.00861569 -41.82421875 171.0703125 Z M73.17578125 188.0703125 C73.45292969 189.23949219 73.73007813 190.40867187 74.015625 191.61328125 C74.38155526 193.16144773 74.74743818 194.70962541 75.11328125 196.2578125 C75.29568359 197.02673828 75.47808594 197.79566406 75.66601562 198.58789062 C76.56698238 202.40471342 77.44216122 206.21687676 78.17578125 210.0703125 C79.49578125 210.0703125 80.81578125 210.0703125 82.17578125 210.0703125 C83.23840586 201.35097481 83.23840586 201.35097481 80.4296875 193.359375 C77.28106721 189.81624687 77.28106721 189.81624687 73.17578125 188.0703125 Z M95.17578125 205.0703125 C94.58916079 208.29672501 94.3486823 209.96226985 95.17578125 213.0703125 C100.5892977 219.85658159 107.80343108 224.75630599 116.31640625 226.51171875 C124.37871726 227.19324504 131.49783798 222.86690531 137.71875 218.13671875 C141.61701183 214.66385584 141.61701183 214.66385584 143.66015625 210.00390625 C143.73285912 207.8813234 143.73285912 207.8813234 143.17578125 205.0703125 C140.42688742 205.60152463 137.70208374 206.18194085 134.9765625 206.82421875 C122.15788575 209.79562534 112.94686741 209.07986028 100.17578125 206.0703125 C98.51067564 205.72926677 96.84458026 205.39280086 95.17578125 205.0703125 Z M79.80078125 223.3203125 C76.77894115 224.8590409 75.41418707 225.70353431 73.55078125 228.5703125 C72.59117911 237.52659913 72.35345584 246.68636418 76.17578125 255.0703125 C79.29257518 256.10924381 81.12340272 256.05188938 84.36328125 255.8828125 C89.84145923 255.85386572 93.81144528 256.66593252 98.17578125 260.0703125 C103.51916371 265.93337554 104.54935059 271.16095696 104.4453125 278.9921875 C104.0586958 283.40746224 103.03261924 286.65160333 100.17578125 290.0703125 C93.9175741 295.10709894 88.11880431 296.75372195 80.17578125 296.0703125 C74.4501018 294.93969826 70.90958609 292.49696661 67.36328125 287.890625 C64.13879613 282.94782874 63.57896291 277.85731887 64.17578125 272.0703125 C64.57934937 270.64985893 64.99654324 269.23322095 65.42578125 267.8203125 C66.66121438 262.75846841 65.0930626 259.43114573 63.26953125 254.6875 C61.06055926 247.38211407 60.77839194 239.65052071 60.17578125 232.0703125 C43.42470633 238.83515804 43.42470633 238.83515804 26.98828125 246.3203125 C26.04758789 246.75827148 26.04758789 246.75827148 25.08789062 247.20507812 C20.14491059 249.66837536 16.52398897 252.85386516 14.38586426 257.95483398 C12.33618393 264.12363524 10.95108834 270.33763789 9.6953125 276.7109375 C9.47759689 277.79614685 9.25988129 278.8813562 9.03556824 279.99945068 C8.57990861 282.27804617 8.12709601 284.55721267 7.67700195 286.83691406 C6.98731257 290.32521186 6.28628767 293.81109739 5.58398438 297.296875 C5.14125142 299.5180946 4.69917127 301.73944444 4.2578125 303.9609375 C4.04848587 305.00058655 3.83915924 306.0402356 3.62348938 307.11138916 C3.43296494 308.08299988 3.24244049 309.0546106 3.04614258 310.05566406 C2.87754227 310.90565979 2.70894196 311.75565552 2.53523254 312.63140869 C2.05427521 315.48386503 2.05427521 315.48386503 2.17578125 320.0703125 C79.39578125 320.0703125 156.61578125 320.0703125 236.17578125 320.0703125 C235.36261087 312.62939826 235.36261087 312.62939826 234.14770508 305.31030273 C233.94691849 304.27570419 233.7461319 303.24110565 233.53926086 302.17515564 C232.61035885 297.51082429 231.67746963 292.84741296 230.73022461 288.18676758 C230.23559531 285.73412892 229.7499119 283.27966913 229.27319336 280.82348633 C228.58006561 277.25422463 227.85949756 273.69146835 227.1328125 270.12890625 C226.92630569 269.03911972 226.71979889 267.94933319 226.5070343 266.82652283 C224.80850218 258.73617005 222.10305671 252.70009568 215.08984375 248.00390625 C213.46175781 247.26333984 213.46175781 247.26333984 211.80078125 246.5078125 C211.21006836 246.23388672 210.61935547 245.95996094 210.01074219 245.67773438 C208.74586303 245.09637772 207.47613889 244.52546434 206.20214844 243.96435547 C204.04904868 243.01439748 201.9135086 242.03037038 199.77734375 241.04296875 C198.32768413 240.38352017 196.87717937 239.72592591 195.42578125 239.0703125 C194.73436035 238.75505615 194.04293945 238.4397998 193.33056641 238.11499023 C191.63811204 237.37165682 189.90900427 236.71287323 188.17578125 236.0703125 C187.51578125 236.4003125 186.85578125 236.7303125 186.17578125 237.0703125 C187.38234375 238.4625 187.38234375 238.4625 188.61328125 239.8828125 C192.6621677 244.55460456 192.59128627 249.14222217 192.17578125 255.0703125 C191.61567981 258.26937299 190.79024753 261.36375511 189.91015625 264.48828125 C189.55815155 265.77959709 189.55815155 265.77959709 189.19903564 267.09700012 C188.70358928 268.90272862 188.20242981 270.70689853 187.69580078 272.50952148 C186.92613399 275.25655351 186.18071016 278.00937918 185.4375 280.76367188 C184.95065474 282.52643889 184.46242056 284.28882303 183.97265625 286.05078125 C183.75268982 286.86653122 183.53272339 287.68228119 183.30609131 288.52275085 C181.6593696 294.29815331 179.73193642 299.0111875 174.92578125 302.8828125 C169.33312601 305.29782272 164.10692027 305.40481878 158.17578125 304.0703125 C158.09481322 302.61288787 158.03660351 301.15418443 157.98828125 299.6953125 C157.95347656 298.88320313 157.91867187 298.07109375 157.8828125 297.234375 C157.97949219 296.52023437 158.07617188 295.80609375 158.17578125 295.0703125 C161.17578125 293.0703125 161.17578125 293.0703125 164.67578125 292.8828125 C166.40828125 292.480625 166.40828125 292.480625 168.17578125 292.0703125 C170.59287939 287.36274039 172.06957675 282.43862403 173.47265625 277.34375 C173.67054749 276.63304352 173.86843872 275.92233704 174.07232666 275.19009399 C174.48497335 273.7000583 174.89491518 272.20927107 175.30224609 270.71777344 C175.92689112 268.44126762 176.56857025 266.16999706 177.2109375 263.8984375 C177.61172746 262.44299717 178.01150265 260.98727694 178.41015625 259.53125 C178.60277039 258.85718109 178.79538452 258.18311218 178.99383545 257.48861694 C180.01546362 253.6692427 180.31896697 250.87940731 179.17578125 247.0703125 C176.42914421 246.20374252 173.67935695 245.35179464 170.92578125 244.5078125 C170.14847656 244.26095703 169.37117187 244.01410156 168.5703125 243.75976562 C167.81621094 243.53095703 167.06210937 243.30214844 166.28515625 243.06640625 C165.59389648 242.85169678 164.90263672 242.6369873 164.19042969 242.41577148 C161.79032756 242.00421738 160.45140453 242.21186448 158.17578125 243.0703125 C156.96096456 245.77467083 156.02398549 248.25361393 155.17578125 251.0703125 C154.97262299 251.71867065 154.76946472 252.36702881 154.56015015 253.03503418 C153.96231158 254.99341797 153.39752417 256.95840778 152.84375 258.9296875 C152.64348709 259.64135071 152.44322418 260.35301392 152.2368927 261.08624268 C151.82054642 262.57462876 151.4063961 264.06363076 150.99438477 265.55322266 C150.57115126 267.07358876 150.14138029 268.59214907 149.70532227 270.10888672 C149.07073035 272.31630746 148.4551611 274.52824964 147.84375 276.7421875 C147.54708687 277.75632721 147.54708687 277.75632721 147.24443054 278.79095459 C146.47092355 281.66715628 146.02629128 283.6010444 146.94262695 286.47753906 C148.08959913 288.2393996 148.08959913 288.2393996 150.23828125 288.8828125 C152.17578125 290.0703125 152.17578125 290.0703125 153.11328125 293.5078125 C153.17578125 297.0703125 153.17578125 297.0703125 152.23828125 299.0703125 C148.84782445 300.71417034 145.66790205 300.05439351 142.17578125 299.0703125 C137.93638682 296.71509337 136.08776549 293.88506926 134.66621399 289.36517334 C133.21683959 282.583178 135.7479143 275.14862497 137.5390625 268.6171875 C137.77231735 267.7539386 138.0055722 266.8906897 138.24589539 266.00128174 C138.7374617 264.1919475 139.23261056 262.38358307 139.73120117 260.57617188 C140.48908442 257.81738888 141.22640917 255.05362517 141.96289062 252.2890625 C142.44537344 250.52309794 142.92905609 248.75746065 143.4140625 246.9921875 C143.63089188 246.17127625 143.84772125 245.35036499 144.07112122 244.50457764 C145.36631537 239.89394528 146.72034913 236.55518608 150.17578125 233.0703125 C154.79617439 230.62935009 158.99445347 229.59901942 164.17578125 229.0703125 C163.50168863 225.94231051 163.50168863 225.94231051 161.03125 224.83203125 C159.71060547 224.30029297 159.71060547 224.30029297 158.36328125 223.7578125 C157.49058594 223.39042969 156.61789062 223.02304687 155.71875 222.64453125 C153.22831478 221.85339847 153.22831478 221.85339847 151.0703125 222.76171875 C149.07368667 224.14083144 147.41398888 225.62784718 145.67578125 227.3203125 C136.86772277 235.23431993 127.23853256 238.46479374 115.62890625 238.34765625 C105.84415857 237.56177719 98.1843931 232.92591177 91.2578125 226.2109375 C87.20401149 222.55361603 85.13578488 221.46532561 79.80078125 223.3203125 Z M77.17578125 272.0703125 C76.01129244 274.97382374 76.01129244 274.97382374 76.17578125 278.0703125 C78.09624771 281.52715212 79.35800809 282.79192164 83.11328125 284.0703125 C86.74819419 284.0703125 88.32442958 283.26992664 91.17578125 281.0703125 C92.6200898 278.18169541 92.55266631 276.27383549 92.17578125 273.0703125 C89.68975676 269.70686761 88.26152602 268.26973501 84.11328125 267.5078125 C80.46322546 268.20675935 79.32013514 269.05233295 77.17578125 272.0703125 Z " fill="#000000" transform="translate(131.82421875,164.9296875)"/>
<path d="M0 0 C17.91117421 13.84774364 29.86353301 33.38409639 32.8515625 55.99804688 C35.09758207 77.97992358 30.59259539 100.22973059 17.0625 118.0625 C1.2406267 137.14611334 -18.03350964 148.96392335 -42.91796875 151.80859375 C-66.47116435 153.62397016 -88.85011598 146.21679472 -106.9375 131.0625 C-122.63015752 117.13874107 -132.57033641 97.94266937 -134.9375 77.0625 C-136.43678207 51.87750103 -130.25916329 30.18251096 -113.625 10.875 C-83.48667624 -21.15978291 -35.75252685 -24.94709742 0 0 Z M-101.28515625 17.31640625 C-115.08530048 31.60433172 -122.69877571 49.79575148 -122.40600586 69.70410156 C-121.47221464 91.03257566 -111.82854878 108.04051069 -96.50390625 122.33203125 C-82.60577289 134.26753822 -65.15432805 139.66401874 -46.9375 139.0625 C-27.33621861 137.44698565 -10.76627352 129.01445449 2.78125 114.78515625 C16.11711339 98.86889463 21.83914251 79.56886224 20.0625 59.0625 C17.98305609 43.88713356 11.29830056 30.42199124 1.0625 19.0625 C0.50949219 18.42828125 -0.04351562 17.7940625 -0.61328125 17.140625 C-12.64101958 4.16559463 -31.07816043 -2.94662123 -48.48046875 -3.9375 C-68.55263739 -3.9375 -87.00801217 3.23313454 -101.28515625 17.31640625 Z " fill="#000000" transform="translate(306.9375,30.9375)"/>
<path d="M0 0 C1.2219104 0.00607269 1.2219104 0.00607269 2.46850586 0.01226807 C3.30438232 0.01035461 4.14025879 0.00844116 5.00146484 0.00646973 C6.77010397 0.00510771 8.53875309 0.0088053 10.30737305 0.01715088 C13.02016579 0.02785031 15.7322963 0.01725631 18.44506836 0.00445557 C20.16121566 0.00577716 21.87736255 0.00833955 23.59350586 0.01226807 C24.40811279 0.0082196 25.22271973 0.00417114 26.06201172 0 C31.80108658 0.04797379 31.80108658 0.04797379 34.03100586 2.27789307 C34.25805664 4.61627197 34.25805664 4.61627197 34.22631836 7.50445557 C34.21987305 8.53570557 34.21342773 9.56695557 34.20678711 10.62945557 C34.18165039 12.24980713 34.18165039 12.24980713 34.15600586 13.90289307 C34.14698242 14.99086182 34.13795898 16.07883057 34.12866211 17.19976807 C34.10503995 19.89269458 34.07210142 22.58518562 34.03100586 25.27789307 C34.67650391 25.2569458 35.32200195 25.23599854 35.98706055 25.2144165 C38.91821654 25.13115102 41.84912363 25.07920101 44.78100586 25.02789307 C45.79678711 24.99437744 46.81256836 24.96086182 47.85913086 24.92633057 C48.83881836 24.91343994 49.81850586 24.90054932 50.82788086 24.88726807 C51.72861328 24.8663208 52.6293457 24.84537354 53.55737305 24.8237915 C56.98210699 25.45249316 58.05263766 26.41723373 60.03100586 29.27789307 C60.42906873 32.04931189 60.59285975 34.4159373 60.56225586 37.18414307 C60.56799622 38.3267157 60.56799622 38.3267157 60.57385254 39.49237061 C60.57656899 41.09943975 60.5692263 42.70655331 60.55249023 44.3135376 C60.53107372 46.77010894 60.55229764 49.22375618 60.57788086 51.68023682 C60.57523753 53.24404534 60.57011244 54.80785205 60.56225586 56.37164307 C60.57035278 57.10403198 60.57844971 57.8364209 60.58679199 58.59100342 C60.52529039 61.94451083 60.24924953 63.96231946 58.32299805 66.74761963 C55.57048331 68.58536594 54.11447424 68.74495047 50.82788086 68.66851807 C49.84819336 68.65562744 48.86850586 68.64273682 47.85913086 68.62945557 C46.84334961 68.59593994 45.82756836 68.56242432 44.78100586 68.52789307 C43.74975586 68.50984619 42.71850586 68.49179932 41.65600586 68.47320557 C39.11339522 68.42612018 36.57267424 68.36037357 34.03100586 68.27789307 C34.05718994 68.9589209 34.08337402 69.63994873 34.11035156 70.34161377 C34.21422117 73.42430596 34.27929903 76.50663066 34.34350586 79.59039307 C34.38540039 80.66224854 34.42729492 81.734104 34.47045898 82.83843994 C34.48657227 83.86646729 34.50268555 84.89449463 34.51928711 85.95367432 C34.54547119 86.90153809 34.57165527 87.84940186 34.59863281 88.82598877 C34.03100586 91.27789307 34.03100586 91.27789307 31.95751953 93.08575439 C28.37208463 94.54630988 25.58920816 94.66611891 21.71850586 94.67633057 C20.68149536 94.68063583 20.68149536 94.68063583 19.62353516 94.68502808 C18.16787899 94.68706146 16.71219505 94.68158245 15.2565918 94.66900635 C13.03754161 94.65294039 10.82031239 94.66887768 8.60131836 94.68804932 C7.18204354 94.68606675 5.76276984 94.6822228 4.34350586 94.67633057 C3.06088867 94.67294678 1.77827148 94.66956299 0.45678711 94.66607666 C-3.23781984 94.24743177 -5.16642576 93.72143703 -7.96899414 91.27789307 C-8.53662109 88.82598877 -8.53662109 88.82598877 -8.45727539 85.95367432 C-8.44116211 84.92564697 -8.42504883 83.89761963 -8.40844727 82.83843994 C-8.36655273 81.76658447 -8.3246582 80.694729 -8.28149414 79.59039307 C-8.25893555 78.50693604 -8.23637695 77.423479 -8.21313477 76.30718994 C-8.15415204 73.62937402 -8.07189721 70.9543228 -7.96899414 68.27789307 C-8.93724121 68.30931396 -8.93724121 68.30931396 -9.92504883 68.34136963 C-12.85620482 68.42463512 -15.78711191 68.47658513 -18.71899414 68.52789307 C-19.73477539 68.56140869 -20.75055664 68.59492432 -21.79711914 68.62945557 C-22.77680664 68.64234619 -23.75649414 68.65523682 -24.76586914 68.66851807 C-25.66660156 68.68946533 -26.56733398 68.7104126 -27.49536133 68.73199463 C-30.92009528 68.10329298 -31.99062594 67.1385524 -33.96899414 64.27789307 C-34.36705701 61.50647424 -34.53084803 59.13984883 -34.50024414 56.37164307 C-34.50407104 55.60992798 -34.50789795 54.84821289 -34.51184082 54.06341553 C-34.51455727 52.45634638 -34.50721458 50.84923283 -34.49047852 49.24224854 C-34.469062 46.7856772 -34.49028593 44.33202996 -34.51586914 41.87554932 C-34.51322581 40.31174079 -34.50810072 38.74793409 -34.50024414 37.18414307 C-34.50834106 36.45175415 -34.51643799 35.71936523 -34.52478027 34.96478271 C-34.46327867 31.6112753 -34.18723781 29.59346667 -32.26098633 26.8081665 C-29.50847159 24.97042019 -28.05246252 24.81083566 -24.76586914 24.88726807 C-23.78618164 24.90015869 -22.80649414 24.91304932 -21.79711914 24.92633057 C-20.78133789 24.95984619 -19.76555664 24.99336182 -18.71899414 25.02789307 C-17.68774414 25.04593994 -16.65649414 25.06398682 -15.59399414 25.08258057 C-13.0513835 25.12966595 -10.51066253 25.19541256 -7.96899414 25.27789307 C-7.97946777 24.59162842 -7.98994141 23.90536377 -8.00073242 23.19830322 C-8.04221288 20.09987018 -8.06829483 17.00149546 -8.09399414 13.90289307 C-8.11075195 12.82265869 -8.12750977 11.74242432 -8.14477539 10.62945557 C-8.1512207 9.59820557 -8.15766602 8.56695557 -8.16430664 7.50445557 C-8.17478027 6.55135498 -8.18525391 5.59825439 -8.19604492 4.61627197 C-7.69996853 -0.4927815 -4.32667475 0.03616732 0 0 Z M5.03100586 12.27789307 C4.94012695 14.35650635 4.94012695 14.35650635 4.84741211 16.47711182 C4.76297659 18.30654814 4.6783301 20.13597473 4.59350586 21.96539307 C4.55418945 22.87740479 4.51487305 23.7894165 4.47436523 24.72906494 C4.4324707 25.61529541 4.39057617 26.50152588 4.34741211 27.41461182 C4.31075439 28.22631836 4.27409668 29.0380249 4.23632812 29.87432861 C4.03100586 32.27789307 4.03100586 32.27789307 3.03100586 37.27789307 C-4.88899414 37.60789307 -12.80899414 37.93789307 -20.96899414 38.27789307 C-20.96899414 43.88789307 -20.96899414 49.49789307 -20.96899414 55.27789307 C-19.41567383 55.29207275 -17.86235352 55.30625244 -16.26196289 55.32086182 C-14.22677666 55.36775551 -12.19162131 55.41600292 -10.15649414 55.46539307 C-9.13233398 55.47119385 -8.10817383 55.47699463 -7.05297852 55.48297119 C0.37992843 55.70230287 0.37992843 55.70230287 3.18725586 58.18414307 C4.40591591 62.65256324 4.60434225 66.97492155 4.71850586 71.59039307 C4.76974609 72.98741455 4.76974609 72.98741455 4.82202148 74.41265869 C4.90415474 76.70065647 4.96926583 78.98925419 5.03100586 81.27789307 C10.31100586 81.27789307 15.59100586 81.27789307 21.03100586 81.27789307 C21.06838867 79.89215088 21.10577148 78.50640869 21.14428711 77.07867432 C21.2099598 75.24922075 21.27640669 73.41979487 21.34350586 71.59039307 C21.36606445 70.67838135 21.38862305 69.76636963 21.41186523 68.82672119 C21.56023985 65.11735586 21.89636237 61.77158585 22.87475586 58.18414307 C26.64551986 54.85056909 31.37125567 55.4928476 36.21850586 55.46539307 C37.25426758 55.44025635 38.2900293 55.41511963 39.35717773 55.38922119 C41.91471079 55.33029186 44.47290057 55.30124506 47.03100586 55.27789307 C47.03100586 49.66789307 47.03100586 44.05789307 47.03100586 38.27789307 C39.11100586 37.94789307 31.19100586 37.61789307 23.03100586 37.27789307 C22.22656889 34.06014518 21.85375422 31.55371191 21.71459961 28.29351807 C21.67270508 27.35894775 21.63081055 26.42437744 21.58764648 25.46148682 C21.54833008 24.49340088 21.50901367 23.52531494 21.46850586 22.52789307 C21.42532227 21.54433838 21.38213867 20.56078369 21.33764648 19.54742432 C21.23178636 17.1244038 21.13091274 14.70116635 21.03100586 12.27789307 C15.75100586 12.27789307 10.47100586 12.27789307 5.03100586 12.27789307 Z " fill="#000000" transform="translate(242.968994140625,51.72210693359375)"/>
<path d="M0 0 C0.99 0.66 1.98 1.32 3 2 C3.29296875 5.2578125 3.29296875 5.2578125 3.1875 9.125 C3.16042969 10.40632813 3.13335937 11.68765625 3.10546875 13.0078125 C3.07066406 13.99523437 3.03585937 14.98265625 3 16 C3.89203125 15.95359375 4.7840625 15.9071875 5.703125 15.859375 C6.87359375 15.82328125 8.0440625 15.7871875 9.25 15.75 C10.99023438 15.68039062 10.99023438 15.68039062 12.765625 15.609375 C16 16 16 16 18.42578125 17.82421875 C20 20 20 20 19.9375 23.0625 C18.95647234 26.13638667 18.57640182 27.15971299 16 29 C12.86328125 29.29296875 12.86328125 29.29296875 9.3125 29.1875 C8.13300781 29.16042969 6.95351563 29.13335937 5.73828125 29.10546875 C4.83464844 29.07066406 3.93101562 29.03585937 3 29 C3.05220703 30.35544922 3.05220703 30.35544922 3.10546875 31.73828125 C3.13253906 32.91777344 3.15960938 34.09726562 3.1875 35.3125 C3.23970703 37.07013672 3.23970703 37.07013672 3.29296875 38.86328125 C3 42 3 42 1.67578125 43.89453125 C-0.94082981 45.62064064 -2.95307606 45.38086549 -6 45 C-8.55949546 43.14657225 -8.97918798 42.06243607 -10 39 C-10.06802967 37.27204648 -10.08495645 35.54164635 -10.0625 33.8125 C-10.05347656 32.91144531 -10.04445313 32.01039063 -10.03515625 31.08203125 C-10.02355469 30.39496094 -10.01195312 29.70789063 -10 29 C-10.81984375 29.04640625 -11.6396875 29.0928125 -12.484375 29.140625 C-14.10085938 29.19476563 -14.10085938 29.19476563 -15.75 29.25 C-17.35101563 29.31960938 -17.35101563 29.31960938 -18.984375 29.390625 C-22 29 -22 29 -24.39453125 27.2109375 C-26 25 -26 25 -25.9375 21.375 C-25 18 -25 18 -22 16 C-19.08203125 15.8046875 -19.08203125 15.8046875 -15.8125 15.875 C-14.72582031 15.89304687 -13.63914062 15.91109375 -12.51953125 15.9296875 C-11.27236328 15.96449219 -11.27236328 15.96449219 -10 16 C-10.02320313 15.33613281 -10.04640625 14.67226563 -10.0703125 13.98828125 C-10.25634597 4.88592918 -10.25634597 4.88592918 -8 1 C-5.22899606 -0.38550197 -3.0665294 -0.1877467 0 0 Z " fill="#000000" transform="translate(441,360)"/>
</svg>
