<?xml version="1.0" encoding="UTF-8"?>
<svg version="1.1" xmlns="http://www.w3.org/2000/svg" width="512" height="512">
<path d="M0 0 C12.7261802 8.62450486 20.1542889 20.24414721 23.83984375 35.1328125 C26.17677911 50.04468576 23.01207841 62.98904262 15.25 75.75 C15.96542969 75.70359375 16.68085938 75.6571875 17.41796875 75.609375 C29.09403998 75.1864384 39.54155542 77.68127528 48.25 85.75 C49.216972 86.69961609 50.17631128 87.65711815 51.125 88.625 C51.82625 89.32625 52.5275 90.0275 53.25 90.75 C53.91 90.75 54.57 90.75 55.25 90.75 C56.41342038 89.58657962 57.57485071 88.42110606 58.7265625 87.24609375 C66.95470755 79.16563335 76.4863604 75.52733445 88.0625 75.5 C89.79253894 75.56266635 91.52245693 75.63794315 93.25 75.75 C92.76789063 74.84378906 92.28578125 73.93757813 91.7890625 73.00390625 C84.2526767 58.59570144 81.53475693 44.76306172 86.21875 28.5859375 C91.33098868 14.52728114 101.35901259 2.88991924 114.96484375 -3.53125 C122.33990334 -6.56357993 128.4350359 -7.45564266 136.375 -7.5 C137.27476562 -7.520625 138.17453125 -7.54125 139.1015625 -7.5625 C153.33756987 -7.64431613 165.45010656 -1.87033629 175.63671875 7.8984375 C185.31067477 18.45447321 190.16876741 31.18272855 190.6875 45.4375 C190.26606763 54.79329852 188.19936113 67.80063887 181.25 74.75 C182.31476563 74.81316406 183.37953125 74.87632813 184.4765625 74.94140625 C197.58455937 75.95263362 209.40474784 79.28836831 218.5703125 89.45703125 C226.37735316 100.11454955 228.59565745 111.18539856 228.4453125 124.1328125 C228.44106766 125.54323318 228.44106766 125.54323318 228.43673706 126.98214722 C228.42565978 129.94656827 228.40057951 132.91067231 228.375 135.875 C228.36495407 137.90103726 228.35583106 139.92707932 228.34765625 141.953125 C228.32576144 146.88553635 228.29131957 151.81771468 228.25 156.75 C228.81883408 156.74555878 229.38766815 156.74111755 229.97373962 156.73654175 C235.92786125 156.69207837 241.88193521 156.6620386 247.83618164 156.64013672 C250.05430011 156.63011826 252.2724055 156.61649974 254.49047852 156.59912109 C257.69029989 156.57468949 260.88994567 156.56347504 264.08984375 156.5546875 C265.07145981 156.54436493 266.05307587 156.53404236 267.06443787 156.52340698 C275.51999205 156.52204857 283.61276565 157.01784306 290.25 162.75 C294.34207389 168.23936741 296.36939396 172.68705832 296.39717102 179.59965515 C296.40790398 181.43119896 296.40790398 181.43119896 296.41885376 183.29974365 C296.421694 184.65515111 296.42440573 186.01055885 296.42700195 187.3659668 C296.43326776 188.7918362 296.43991466 190.21770396 296.44691467 191.64356995 C296.46794651 196.32877467 296.47831738 201.01397968 296.48828125 205.69921875 C296.49232937 207.31337819 296.49644631 208.92753746 296.50063133 210.54169655 C296.5196824 218.12679406 296.53391266 225.71188185 296.5422433 233.29699868 C296.55201076 242.04545126 296.57831766 250.79365049 296.61874419 259.54201382 C296.64893499 266.30817523 296.66371505 273.07426415 296.66702431 279.84049159 C296.66937176 283.87952562 296.67829189 287.91828898 296.70348549 291.9572506 C296.72682283 295.76010126 296.73097699 299.56250414 296.72072411 303.36540794 C296.72022997 304.75692741 296.72651418 306.14846934 296.74028015 307.53992081 C296.82250577 316.34800952 296.50492411 322.9165555 290.46875 329.7734375 C289.9015625 330.21945312 289.334375 330.66546875 288.75 331.125 C288.1828125 331.58648437 287.615625 332.04796875 287.03125 332.5234375 C283.22669929 335.14323777 280.6610603 335.99765948 276 335.875 C275.10796875 335.85695313 274.2159375 335.83890625 273.296875 335.8203125 C272.28367187 335.78550781 272.28367187 335.78550781 271.25 335.75 C271.40597656 336.46542969 271.56195313 337.18085938 271.72265625 337.91796875 C274.71600246 353.24152251 272.34876303 366.49747867 264.25 379.75 C265.28898437 379.84796875 266.32796875 379.9459375 267.3984375 380.046875 C282.12034835 381.56556377 293.21605849 385.28901957 303.0625 397 C309.31685092 405.73706813 310.92453083 414.61047159 310.8125 425.1875 C310.83634766 426.24904297 310.86019531 427.31058594 310.88476562 428.40429688 C310.87033785 436.01735055 310.87033785 436.01735055 307.94140625 439.4765625 C304.26968642 441.21383487 302.11987693 440.82496581 298.25 439.75 C296.1404869 438.145283 295.35625286 437.2539138 294.80517578 434.64038086 C294.7689209 433.83995361 294.73266602 433.03952637 294.6953125 432.21484375 C294.64101074 431.32740479 294.58670898 430.43996582 294.53076172 429.52563477 C294.47936035 428.58905029 294.42795898 427.65246582 294.375 426.6875 C293.69330497 417.84119604 292.90611988 410.56166954 286.49609375 403.9375 C281.30143463 399.57188749 277.09925787 398.80477736 270.25 396.75 C270.25 427.44 270.25 458.13 270.25 489.75 C282.13 489.255 282.13 489.255 294.25 488.75 C294.27578125 486.99171875 294.3015625 485.2334375 294.328125 483.421875 C294.38440102 481.11455834 294.44174846 478.80726763 294.5 476.5 C294.51417969 475.34113281 294.52835937 474.18226563 294.54296875 472.98828125 C294.57519531 471.87324219 294.60742188 470.75820313 294.640625 469.609375 C294.6720459 468.06975098 294.6720459 468.06975098 294.70410156 466.49902344 C295.38677426 463.06123514 296.48996078 461.85741911 299.25 459.75 C303.10886594 459.19873344 305.24541535 459.0100278 308.43554688 461.35986328 C310.84517033 464.53400397 310.76633104 466.53173639 310.78125 470.4921875 C310.78640625 471.80574219 310.7915625 473.11929687 310.796875 474.47265625 C310.78849609 475.15473145 310.78011719 475.83680664 310.77148438 476.53955078 C310.75013183 478.61220342 310.77125764 480.68136333 310.796875 482.75390625 C310.78914062 484.72810547 310.78914062 484.72810547 310.78125 486.7421875 C310.77673828 487.94214355 310.77222656 489.14209961 310.76757812 490.37841797 C309.97094881 495.56778159 307.50110845 498.64783304 303.625 502.0625 C299.48635597 505.00311549 296.30729913 504.89362586 291.36815262 504.88422108 C290.1264328 504.88774942 290.1264328 504.88774942 288.85962772 504.89134905 C286.05559585 504.89806347 283.25161006 504.89758009 280.4475708 504.89717102 C278.42896794 504.90046812 276.41036575 504.90419336 274.3917644 504.9083125 C268.82109463 504.91835804 263.25043563 504.92205338 257.67975807 504.92470181 C251.68098108 504.92859729 245.68221268 504.93817611 239.68344116 504.94691467 C225.8705242 504.96576469 212.0576066 504.97593816 198.24468044 504.98437535 C191.42158306 504.98857954 184.59848656 504.99380183 177.77538993 504.99905988 C154.42773212 505.01695121 131.08007407 505.03194817 107.73241043 505.03938007 C106.26619841 505.03985483 104.79998639 505.04033072 103.33377437 505.04080774 C102.24309003 505.0411623 102.24309003 505.0411623 101.13037166 505.04152403 C97.44628944 505.04272525 93.76220722 505.04394069 90.078125 505.04516602 C89.34700241 505.04540617 88.61587981 505.04564632 87.86260199 505.04589374 C64.1519962 505.0537886 40.44144041 505.0772237 16.73085645 505.10972196 C-8.32631806 505.14400331 -33.38346331 505.16372963 -58.44066167 505.16702431 C-61.1902512 505.16744187 -63.93984072 505.16792143 -66.68943024 505.16844749 C-67.70499953 505.16863228 -67.70499953 505.16863228 -68.74108538 505.1688208 C-79.64675934 505.17115493 -90.55237533 505.18682671 -101.45802862 505.20728934 C-112.41577224 505.22752384 -123.37345554 505.23270192 -134.33121583 505.22351871 C-140.27012588 505.21895915 -146.20884733 505.22095618 -152.14773178 505.24028015 C-157.5809158 505.25780651 -163.01377217 505.25700013 -168.44695917 505.24138286 C-170.41604147 505.23899071 -172.38514585 505.24341278 -174.35419425 505.25521151 C-177.02479441 505.27022708 -179.69421802 505.26073002 -182.36478806 505.24498463 C-183.13458354 505.25520683 -183.90437903 505.26542904 -184.69750166 505.27596101 C-189.863076 505.20919918 -192.76409355 503.99464221 -196.75 500.75 C-202.37744759 494.36208653 -201.99874044 489.16668156 -202.04516602 481.00146484 C-202.06238067 478.88963928 -202.10626939 476.77937941 -202.15039062 474.66796875 C-202.16051795 473.32292816 -202.16903393 471.97787429 -202.17578125 470.6328125 C-202.19036377 469.40965332 -202.20494629 468.18649414 -202.2199707 466.92626953 C-201.75 463.75 -201.75 463.75 -199.94213867 461.35107422 C-196.74526684 459.01617218 -194.60694166 459.19900833 -190.75 459.75 C-187.98996078 461.85741911 -186.88677426 463.06123514 -186.20410156 466.49902344 C-186.1831543 467.52543945 -186.16220703 468.55185547 -186.140625 469.609375 C-186.09470215 471.11709473 -186.09470215 471.11709473 -186.04785156 472.65527344 C-186.03206055 473.9240332 -186.01626953 475.19279297 -186 476.5 C-185.9175 480.5425 -185.835 484.585 -185.75 488.75 C-170.9 489.08 -156.05 489.41 -140.75 489.75 C-140.09 485.46 -139.43 481.17 -138.75 476.75 C-137.95218464 472.85989477 -137.1286855 468.98728525 -136.26171875 465.11328125 C-135.79755974 462.96837304 -135.33470717 460.82318178 -134.87304688 458.67773438 C-134.15620866 455.35734371 -133.43228023 452.03931213 -132.6862793 448.7253418 C-131.9595119 445.48414552 -131.26436725 442.23744469 -130.57421875 438.98828125 C-130.34627121 438.00886063 -130.11832367 437.02944 -129.88346863 436.02033997 C-128.45433372 429.10741967 -129.15704784 424.27760274 -131.75 417.75 C-132.06750214 416.90964203 -132.38500427 416.06928406 -132.71212769 415.20346069 C-133.89818643 412.09134231 -135.15439956 409.00914354 -136.40820312 405.92382812 C-136.71048828 405.16650391 -137.01277344 404.40917969 -137.32421875 403.62890625 C-137.59838623 402.9541626 -137.87255371 402.27941895 -138.1550293 401.58422852 C-138.75 399.75 -138.75 399.75 -138.75 396.75 C-142.89659235 396.83165958 -147.04179715 396.94443323 -151.1875 397.0625 C-152.35216797 397.08505859 -153.51683594 397.10761719 -154.71679688 397.13085938 C-163.16882707 397.39275327 -171.96428549 397.98660693 -178.40625 404.16015625 C-184.83226202 411.76302512 -185.49670208 419.80726164 -185.85449219 429.4375 C-186.21901805 436.15064747 -186.21901805 436.15064747 -189.0859375 439.38671875 C-192.73993581 441.25658006 -194.84747844 440.83403377 -198.75 439.75 C-201.03560565 438.07183457 -201.67289406 437.20210638 -202.15405273 434.38085938 C-202.18632207 431.33634131 -202.20767572 428.29469954 -202.1875 425.25 C-202.20748047 424.21101563 -202.22746094 423.17203125 -202.24804688 422.1015625 C-202.24081941 410.5087106 -198.79685263 401.16261866 -190.75 392.75 C-180.37735189 383.01359239 -169.40254967 381.03733719 -155.75 379.75 C-156.14832031 379.1415625 -156.54664063 378.533125 -156.95703125 377.90625 C-164.41213963 365.57176411 -166.46393743 351.45870148 -163.203125 337.390625 C-163.05359375 336.84921875 -162.9040625 336.3078125 -162.75 335.75 C-163.3790625 335.80800781 -164.008125 335.86601562 -164.65625 335.92578125 C-171.43516095 336.28310336 -175.56055127 335.16507665 -180.75 330.75 C-184.8422029 326.77233713 -187.47004737 322.65563629 -188.02415466 316.90454102 C-188.03479446 315.86483154 -188.04543427 314.82512207 -188.05639648 313.75390625 C-188.07238388 312.56917725 -188.08837128 311.38444824 -188.10484314 310.16381836 C-188.11288719 308.25741577 -188.11288719 308.25741577 -188.12109375 306.3125 C-188.13012222 304.99967041 -188.1391507 303.68684082 -188.14845276 302.33422852 C-188.16490402 299.56035914 -188.17263626 296.78660996 -188.17553711 294.01269531 C-188.18092956 290.46487261 -188.2186588 286.91818383 -188.26428127 283.37068176 C-188.30122855 279.97629277 -188.30256547 276.58208326 -188.30859375 273.1875 C-188.32812607 271.91656494 -188.34765839 270.64562988 -188.36778259 269.33618164 C-188.31754216 259.54283481 -188.31754216 259.54283481 -185.40258789 256.44921875 C-182.10649745 254.33777932 -180.58925437 253.95015534 -176.75 254.75 C-174.21362292 256.40872342 -173.17835364 257.17165955 -171.75 259.75 C-171.03588014 264.0320427 -171.14861868 268.27030524 -171.21875 272.6015625 C-171.21548706 273.8525473 -171.21222412 275.1035321 -171.2088623 276.39242554 C-171.19901568 280.38707099 -171.219667 284.38051567 -171.25 288.375 C-171.28989232 293.63842068 -171.29500015 298.90043029 -171.28125 304.1640625 C-171.30086792 305.37969879 -171.32048584 306.59533508 -171.34069824 307.84780884 C-171.3371936 308.97262665 -171.33368896 310.09744446 -171.33007812 311.25634766 C-171.33849731 312.24720367 -171.3469165 313.23805969 -171.35559082 314.25894165 C-170.97171025 316.97073268 -170.97171025 316.97073268 -168.39465332 318.56137085 C-165.45738046 319.88151671 -163.14298565 320.24439845 -159.9375 320.4375 C-158.47376953 320.53611328 -158.47376953 320.53611328 -156.98046875 320.63671875 C-156.24441406 320.67410156 -155.50835937 320.71148437 -154.75 320.75 C-154.46125 320.14800781 -154.1725 319.54601562 -153.875 318.92578125 C-148.30295586 308.1492931 -136.76640778 302.52082133 -125.75 298.75 C-112.73326115 295.26852129 -97.63459314 297.16516985 -85.828125 303.2578125 C-79.18924159 307.20079574 -71.28975932 312.67048135 -67.75 319.75 C-57.75337886 320.00569516 -47.75754426 320.2007289 -37.75831032 320.31993389 C-33.11422267 320.37717064 -28.47238339 320.45469379 -23.82958984 320.57983398 C-19.34249442 320.70001044 -14.85755027 320.76525621 -10.36896896 320.79364967 C-8.66316238 320.81386162 -6.95746413 320.85333619 -5.25258255 320.91303062 C4.77263202 321.51826071 4.77263202 321.51826071 13.46051025 317.32351685 C16.0203986 314.68278669 18.09070029 311.72245949 20.25 308.75 C24.36336007 305.27746476 29.41237387 303.05040963 34.25 300.75 C35.04664063 300.3684375 35.84328125 299.986875 36.6640625 299.59375 C47.47390593 295.46843873 62.91204265 296.1640136 73.51171875 300.421875 C91.71182884 309.24931784 91.71182884 309.24931784 96.37579346 317.81842041 C98.67580976 320.18884461 100.26671763 320.25184613 103.4954834 320.33654785 C104.20305786 320.33473511 104.91063232 320.33292236 105.63964844 320.33105469 C106.38962097 320.34448914 107.13959351 320.35792358 107.91229248 320.37176514 C110.39492211 320.4097995 112.87647204 320.41757726 115.359375 320.421875 C117.08710169 320.43472922 118.81482399 320.44818581 120.5425415 320.46221924 C124.16746098 320.48618542 127.79199906 320.49357924 131.41699219 320.49121094 C136.05257761 320.49080513 140.68570246 320.54532932 145.32070541 320.61429977 C148.89140948 320.65888519 152.46152446 320.66688466 156.03247833 320.66477203 C157.74050604 320.66948005 159.44855047 320.68710595 161.15630341 320.7181015 C170.4073179 321.1665107 170.4073179 321.1665107 178.78356934 318.01672363 C180.54450497 316.01160002 181.87363222 314.02763542 183.25 311.75 C191.3547753 303.23150436 203.02254701 298.01788784 214.73046875 297.4140625 C231.44811463 297.09368643 245.12449267 300.90424163 257.77734375 312.30078125 C259.82390565 314.31477188 261.61243732 316.39190974 263.25 318.75 C263.25 319.41 263.25 320.07 263.25 320.75 C264.98007151 320.66213297 266.70911665 320.55394326 268.4375 320.4375 C269.40042969 320.37949219 270.36335938 320.32148438 271.35546875 320.26171875 C274.70906686 319.66884243 276.554509 318.83187735 279.25 316.75 C279.99987743 314.1369211 279.99987743 314.1369211 279.87818909 311.09448242 C279.89084305 309.91671234 279.90349701 308.73894226 279.91653442 307.52548218 C279.90484222 306.23187775 279.89315002 304.93827332 279.88110352 303.60546875 C279.88624106 302.23059159 279.89352111 300.85572101 279.90278625 299.48086548 C279.92133018 295.74517648 279.90834365 292.01019947 279.88869596 288.27453995 C279.87233238 284.36815791 279.88111913 280.46182178 279.88621521 276.55541992 C279.89073877 269.99483848 279.87485036 263.4345419 279.84692383 256.87402344 C279.81487051 249.28545203 279.81488665 241.69739447 279.8321386 234.10878658 C279.84799375 226.81355778 279.84127673 219.51851765 279.82420158 212.22329712 C279.81732282 209.11645496 279.8183719 206.00976366 279.82574654 202.90292358 C279.833399 199.24526878 279.82131835 195.58819982 279.79389763 191.93064499 C279.7837078 189.94529298 279.7932071 187.95987072 279.80322266 185.97451782 C279.7904982 184.79674774 279.77777374 183.61897766 279.7646637 182.40551758 C279.76185678 181.37977127 279.75904985 180.35402496 279.75615788 179.29719543 C279.47609766 176.69161109 279.47609766 176.69161109 277.67985862 175.1143955 C274.41893702 173.28334792 271.50651517 173.33581773 267.86610413 173.37247658 C267.11642597 173.36811626 266.36674781 173.36375593 265.59435213 173.35926348 C263.06800963 173.34826569 260.54220817 173.35875008 258.01586914 173.36904907 C256.19210307 173.36559429 254.36833909 173.36083094 252.54457951 173.35486734 C247.52178726 173.34230297 242.49916523 173.34855237 237.47637224 173.35782599 C232.06389727 173.36459395 226.65145224 173.35414648 221.23898315 173.34588623 C210.63152687 173.33252257 200.02413414 173.33543835 189.41667533 173.34412415 C180.7983776 173.35088995 172.18009772 173.35182221 163.5617981 173.3485527 C162.33678528 173.348093 161.11177246 173.34763331 159.84963804 173.34715968 C157.3613131 173.34620053 154.87298816 173.34522789 152.38466322 173.3442419 C129.03296782 173.33568029 105.68130771 173.34553423 82.3296181 173.361643 C62.27799609 173.37520846 42.22642577 173.372719 22.17480469 173.35888672 C-1.09139267 173.34284451 -24.35755907 173.33650434 -47.62376118 173.34572351 C-50.10310681 173.34667919 -52.58245245 173.3476223 -55.0617981 173.3485527 C-56.28179203 173.34901553 -57.50178597 173.34947836 -58.75874943 173.34995521 C-67.37008813 173.35254918 -75.98140725 173.34816535 -84.59274292 173.34111404 C-95.08221866 173.33271393 -105.57162702 173.33494776 -116.061095 173.35095628 C-121.41646074 173.35885908 -126.77171401 173.36189647 -132.12707901 173.35200882 C-137.02466036 173.34310291 -141.92202443 173.34792669 -146.81958592 173.36394148 C-148.59610501 173.36730675 -150.37264226 173.36555631 -152.14914978 173.35831411 C-154.55506604 173.34925456 -156.96022795 173.35848338 -159.36610413 173.37247658 C-160.06357337 173.36545308 -160.76104261 173.35842958 -161.47964728 173.35119325 C-164.51388078 173.38671554 -166.51748103 173.61849127 -169.18115997 175.12502229 C-171.37652821 177.39894722 -171.23722684 178.84121576 -171.21655273 181.96826172 C-171.2201329 183.03301727 -171.22371307 184.09777283 -171.22740173 185.1947937 C-171.2129451 186.34480865 -171.19848846 187.49482361 -171.18359375 188.6796875 C-171.19320041 191.10807355 -171.20297113 193.53645896 -171.21289062 195.96484375 C-171.20428783 199.79873944 -171.18745681 203.63246794 -171.1652832 207.46630859 C-171.15077888 211.16277067 -171.16600848 214.85826011 -171.18359375 218.5546875 C-171.16711288 219.70065399 -171.15063202 220.84662048 -171.13365173 222.02731323 C-171.18359224 229.97244824 -171.18359224 229.97244824 -174.09790039 233.97314453 C-176.75 235.75 -176.75 235.75 -179.75 236.375 C-182.83593716 235.73209643 -184.53297688 234.92103784 -186.70016479 232.62197876 C-189.12803618 228.29280058 -188.43234612 222.8945441 -188.37890625 218.07421875 C-188.38252419 216.2155291 -188.38252419 216.2155291 -188.38621521 214.31929016 C-188.38498591 211.02904169 -188.3599571 207.73999084 -188.32647705 204.44995117 C-188.31254271 202.44365003 -188.31606346 200.43819872 -188.32641602 198.43188477 C-188.34525727 194.56227347 -188.33571867 190.69381031 -188.31640625 186.82421875 C-188.32136612 185.63438889 -188.32632599 184.44455902 -188.33143616 183.21867371 C-188.21278128 174.79372451 -186.91847773 169.50214468 -181.375 162.9375 C-173.59236102 156.45196751 -165.525046 156.60243268 -155.8828125 156.65234375 C-154.33072586 156.65446617 -154.33072586 156.65446617 -152.74728394 156.65663147 C-149.45649268 156.66220961 -146.16577054 156.67475812 -142.875 156.6875 C-140.63802182 156.69251782 -138.40104257 156.69708024 -136.1640625 156.70117188 C-130.69268492 156.71217188 -125.2213474 156.72888823 -119.75 156.75 C-119.76047363 155.49977051 -119.77094727 154.24954102 -119.78173828 152.96142578 C-119.81818152 148.28355825 -119.84098833 143.60570304 -119.85986328 138.92773438 C-119.86986576 136.91046024 -119.88347206 134.8932004 -119.90087891 132.87597656 C-119.92538198 129.96155246 -119.93654091 127.04732152 -119.9453125 124.1328125 C-119.95563507 123.24385284 -119.96595764 122.35489319 -119.97659302 121.43899536 C-119.9788094 108.81905482 -116.88503044 97.01756596 -108.25 87.4375 C-97.76693303 77.94527111 -86.33398989 75.55582991 -72.75 74.75 C-73.36488281 73.88375 -73.97976562 73.0175 -74.61328125 72.125 C-76.607019 68.97584202 -77.81108736 66.28095881 -78.9375 62.75 C-79.26105469 61.76 -79.58460937 60.77 -79.91796875 59.75 C-83.7120048 46.07009537 -82.09117735 30.80734016 -75.0625 18.375 C-58.20656212 -6.71880226 -26.59030798 -15.83101443 0 0 Z M-57.75 21.75 C-63.86147448 31.09560692 -66.95649416 40.36091914 -65.33203125 51.65625 C-62.67753903 63.11078612 -56.67865385 71.48686661 -46.75 77.75 C-37.68060122 82.64415727 -27.39642538 83.4528032 -17.44140625 80.90234375 C-6.36631377 76.74036632 1.20439883 69.38852178 6.25 58.75 C9.9610314 49.60687915 9.19585279 39.26927259 5.51171875 30.28515625 C0.74942815 20.71634325 -6.84442089 13.73265552 -16.75 9.75 C-31.34016711 4.95102671 -48.12717825 10.04805998 -57.75 21.75 Z M106.56640625 23.8203125 C100.43066199 32.81454889 98.88579637 42.78443815 100.7109375 53.44140625 C103.58692184 64.25172386 110.27253904 72.69094686 119.90234375 78.29296875 C129.54129049 82.91190028 139.85027304 83.46656301 150.0625 80.25 C160.99120125 75.59879679 167.90582288 68.01208465 172.3125 57.125 C175.54373303 47.20049856 174.7789333 37.82543073 170.25 28.4375 C165.35429285 19.1072478 158.47173198 13.30600055 148.62890625 9.59765625 C132.19981227 5.47613788 117.2181618 10.75957681 106.56640625 23.8203125 Z M-97.1875 99.875 C-97.80496094 100.55820313 -98.42242187 101.24140625 -99.05859375 101.9453125 C-103.37188349 109.09760356 -104.18994139 116.71985569 -104.04296875 124.9140625 C-104.03994751 125.72963623 -104.03692627 126.54520996 -104.03381348 127.38549805 C-104.01832087 130.38213063 -103.9764399 133.37858038 -103.9375 136.375 C-103.875625 143.09875 -103.81375 149.8225 -103.75 156.75 C-86.92 156.75 -70.09 156.75 -52.75 156.75 C-44.5485541 132.14566229 -43.24608754 117.32648165 -54.64501953 93.93603516 C-55.00966309 93.21464355 -55.37430664 92.49325195 -55.75 91.75 C-60.04143157 91.63257501 -64.33244273 91.56234004 -68.625 91.5 C-69.82898438 91.46648437 -71.03296875 91.43296875 -72.2734375 91.3984375 C-81.73126278 91.29563505 -90.67961086 92.2894604 -97.1875 99.875 Z M-1.75 91.75 C-3.18910665 95.46144074 -4.61261732 99.17846454 -6.02246094 102.90112305 C-6.73871798 104.78286008 -7.4669248 106.66003458 -8.1953125 108.53710938 C-8.64648438 109.73271484 -9.09765625 110.92832031 -9.5625 112.16015625 C-9.98144531 113.25465088 -10.40039062 114.34914551 -10.83203125 115.47680664 C-12.52545661 121.51503905 -11.69633692 126.89846695 -10.47265625 132.9609375 C-10.34185165 133.61454254 -10.21104706 134.26814758 -10.07627869 134.94155884 C-9.80122047 136.30853279 -9.52290837 137.67485577 -9.24145508 139.04052734 C-8.80967518 141.13872699 -8.3894523 143.23900874 -7.97070312 145.33984375 C-7.28146508 151.52958136 -7.28146508 151.52958136 -4.75 156.75 C-3.15389018 156.84333705 -1.55366572 156.86745372 0.04516602 156.86352539 C1.57664024 156.86341209 1.57664024 156.86341209 3.13905334 156.86329651 C4.2494548 156.85813522 5.35985626 156.85297394 6.50390625 156.84765625 C7.63448959 156.8462413 8.76507294 156.84482635 9.92991638 156.84336853 C13.55747065 156.83775019 17.18496424 156.82519458 20.8125 156.8125 C23.26497307 156.80748736 25.7174471 156.80292405 28.16992188 156.79882812 C34.19663545 156.7877748 40.22331339 156.77101884 46.25 156.75 C46.37435721 150.5244867 46.46469608 144.29970936 46.5246582 138.07324219 C46.54967575 135.95885611 46.58370092 133.84455541 46.62719727 131.73046875 C46.68841332 128.67686808 46.71633792 125.62441861 46.73828125 122.5703125 C46.76408768 121.63760529 46.7898941 120.70489807 46.81648254 119.743927 C46.81992866 111.52977109 44.07849595 105.38663765 39.0625 98.9375 C30.21509284 92.05618332 22.68316067 91.06737619 11.625 91.4375 C10.33464844 91.46005859 9.04429687 91.48261719 7.71484375 91.50585938 C4.5586576 91.56430727 1.40496495 91.64619725 -1.75 91.75 Z M67.25 101.75 C62.91148484 108.75022025 61.53462823 114.39863001 61.76171875 122.5703125 C61.76675415 123.44486084 61.77178955 124.31940918 61.77697754 125.22045898 C61.80283192 128.43898027 61.87263543 131.65702854 61.9375 134.875 C62.040625 142.09375 62.14375 149.3125 62.25 156.75 C79.08 156.75 95.91 156.75 113.25 156.75 C115.11451332 149.29194671 116.92870987 141.90133833 118.4375 134.375 C118.61474609 133.52550781 118.79199219 132.67601562 118.97460938 131.80078125 C119.14154297 130.97191406 119.30847656 130.14304688 119.48046875 129.2890625 C119.62895264 128.55896973 119.77743652 127.82887695 119.93041992 127.07666016 C120.6802486 121.61763244 120.10960433 117.63922009 118.09765625 112.51171875 C117.65099609 111.36251953 117.20433594 110.21332031 116.74414062 109.02929688 C116.27169922 107.84400391 115.79925781 106.65871094 115.3125 105.4375 C114.84392578 104.23287109 114.37535156 103.02824219 113.89257812 101.78710938 C112.18138835 96.40592964 112.18138835 96.40592964 109.25 91.75 C104.94601352 91.4088593 100.6282433 91.42458034 96.3125 91.375 C95.11302734 91.33761719 93.91355469 91.30023438 92.67773438 91.26171875 C82.53703753 91.16213744 73.73025705 93.41824093 67.25 101.75 Z M164.25 91.75 C151.35517101 115.80386964 153.38131307 130.19791171 160.25 156.75 C177.41 156.75 194.57 156.75 212.25 156.75 C212.311875 150.02625 212.37375 143.3025 212.4375 136.375 C212.46481201 134.27334473 212.49212402 132.17168945 212.52026367 130.00634766 C212.52903935 128.30892508 212.53668072 126.61149611 212.54296875 124.9140625 C212.55831665 124.0583667 212.57366455 123.2026709 212.58947754 122.32104492 C212.592906 114.26874159 211.24876644 106.02838458 205.6875 99.875 C205.08808594 99.17632812 204.48867188 98.47765625 203.87109375 97.7578125 C195.63130622 91.44596333 187.18244991 91.22002816 177.125 91.5 C175.88234375 91.51804687 174.6396875 91.53609375 173.359375 91.5546875 C170.32209034 91.60141496 167.28647061 91.66691409 164.25 91.75 Z M-36.75 97.75 C-35.945625 100.039375 -35.14125 102.32875 -34.3125 104.6875 C-33.93460327 105.77019165 -33.93460327 105.77019165 -33.54907227 106.87475586 C-32.58581919 110.06092155 -32.58581919 110.06092155 -30.75 112.75 C-29.08382885 112.79063832 -27.41611905 112.792721 -25.75 112.75 C-24.91260219 110.6265984 -24.08019717 108.5012272 -23.25 106.375 C-22.55390625 104.59996094 -22.55390625 104.59996094 -21.84375 102.7890625 C-20.63712206 99.9746756 -20.63712206 99.9746756 -20.75 97.75 C-26.03 97.75 -31.31 97.75 -36.75 97.75 Z M129.25 97.75 C131.4407994 105.35769452 131.4407994 105.35769452 134.25 112.75 C135.9 112.75 137.55 112.75 139.25 112.75 C139.87867668 111.37667716 140.50273891 110.00124167 141.125 108.625 C141.47304688 107.85929687 141.82109375 107.09359375 142.1796875 106.3046875 C143.35039963 103.51036001 144.29193774 100.62418679 145.25 97.75 C139.97 97.75 134.69 97.75 129.25 97.75 Z M-30.75 128.75 C-31.58802913 132.8532224 -32.41961878 136.95772362 -33.25 141.0625 C-33.48847656 142.22974609 -33.72695312 143.39699219 -33.97265625 144.59960938 C-34.19824219 145.71787109 -34.42382812 146.83613281 -34.65625 147.98828125 C-34.97045898 149.5357605 -34.97045898 149.5357605 -35.29101562 151.11450195 C-35.83578613 153.79672466 -35.83578613 153.79672466 -35.75 156.75 C-31.13 156.75 -26.51 156.75 -21.75 156.75 C-22.37077626 150.27432348 -23.41816458 144.03837757 -24.8125 137.6875 C-24.99876953 136.82189453 -25.18503906 135.95628906 -25.37695312 135.06445312 C-25.83066267 132.95877549 -26.28976004 130.85425993 -26.75 128.75 C-28.07 128.75 -29.39 128.75 -30.75 128.75 Z M135.25 128.75 C134.40808127 132.47728171 133.5779832 136.20710003 132.75 139.9375 C132.51152344 140.99259766 132.27304687 142.04769531 132.02734375 143.13476562 C131.80175781 144.15634766 131.57617188 145.17792969 131.34375 146.23046875 C131.13427734 147.16785889 130.92480469 148.10524902 130.70898438 149.07104492 C130.10927577 152.11836716 130.10927577 152.11836716 130.25 156.75 C134.87 156.75 139.49 156.75 144.25 156.75 C142.6 147.51 140.95 138.27 139.25 128.75 C137.93 128.75 136.61 128.75 135.25 128.75 Z M-139.69140625 326.078125 C-146.06277049 334.75062914 -149.46884407 343.35912922 -148.53515625 354.2578125 C-146.92243774 364.05699736 -142.34647615 373.69619721 -134.19921875 379.59765625 C-126.8253671 384.45701451 -120.88532013 387.13699422 -111.9375 387.0625 C-111.23044922 387.05686035 -110.52339844 387.0512207 -109.79492188 387.04541016 C-98.31288118 386.77918286 -90.90480828 382.27219283 -83.0625 374.125 C-76.43391851 366.097727 -73.91041047 357.47993783 -74.33203125 347.14453125 C-75.67849486 336.2092333 -81.05808677 326.99519285 -89.6640625 320.13671875 C-105.56637217 309.56495857 -127.15450595 311.0439347 -139.69140625 326.078125 Z M25.2421875 327.0390625 C19.62691376 334.4399463 16.5029908 342.92891118 16.90625 352.3046875 C18.53046985 363.85879689 23.00104608 372.70350106 32.0625 380.0625 C41.65203298 386.61991398 50.87312883 387.88306237 62.25 386.75 C71.99737118 384.46706307 79.83452734 378.33996062 85.70703125 370.37109375 C90.77713734 361.75833126 92.64076813 352.33351779 90.58984375 342.625 C87.67495369 331.72255406 82.09945939 323.4752158 72.25 317.75 C55.71258087 309.3237912 37.34641663 313.23929933 25.2421875 327.0390625 Z M190.25 327.75 C184.31072952 337.48750048 181.96181774 346.40267144 183.25 357.75 C186.17624635 369.08756433 193.30936494 377.72935122 203.25 383.75 C211.43871686 388.10744974 222.28144371 388.08340087 231.1875 386.09375 C241.9072355 382.20784588 249.23177489 374.81796572 254.24609375 364.75 C257.8120332 356.28729203 258.00595162 347.46367057 255.25 338.75 C250.74369491 327.88091905 244.59822979 321.12361303 234.125 315.63671875 C218.14956791 309.25259722 200.99170456 314.9858786 190.25 327.75 Z M-60.75 335.75 C-60.42 337.73 -60.09 339.71 -59.75 341.75 C-58.56424768 356.00028964 -60.82258161 368.13220222 -67.75 380.75 C-66.62722656 380.84796875 -65.50445312 380.9459375 -64.34765625 381.046875 C-48.79009021 382.54443189 -48.79009021 382.54443189 -41.75 386.75 C-40.14125 387.7090625 -40.14125 387.7090625 -38.5 388.6875 C-35.75 390.75 -35.75 390.75 -33.125 393.5 C-30.81129206 396.20849643 -30.81129206 396.20849643 -26.75 395.75 C-24.58204073 394.13694104 -24.58204073 394.13694104 -22.5 392 C-12.85907451 383.08371924 -2.50285776 381.65581046 10.25 380.75 C9.97285156 380.05777344 9.69570312 379.36554688 9.41015625 378.65234375 C9.02730469 377.69457031 8.64445312 376.73679687 8.25 375.75 C7.83621094 374.72003906 7.42242187 373.69007813 6.99609375 372.62890625 C6.34833984 370.98728516 6.34833984 370.98728516 5.6875 369.3125 C5.03587891 367.67474609 5.03587891 367.67474609 4.37109375 366.00390625 C2.56449313 360.76035811 2.11162676 355.89814878 2.125 350.375 C2.12113281 348.78558594 2.12113281 348.78558594 2.1171875 347.1640625 C2.26581068 343.34357261 2.77576812 339.54385503 3.25 335.75 C-17.87 335.75 -38.99 335.75 -60.75 335.75 Z M105.25 335.75 C105.58 338.39 105.91 341.03 106.25 343.75 C107.01892219 355.87531148 105.09371466 366.11455558 99.23828125 376.7890625 C98.09998082 378.68168323 98.09998082 378.68168323 98.25 380.75 C99.26578125 380.83636719 100.2815625 380.92273438 101.328125 381.01171875 C115.81974708 382.41350654 125.80986082 386.14817724 136.25 396.75 C139.3804373 395.9549729 139.3804373 395.9549729 141.5 393.5 C149.22517992 385.77482008 157.47643448 382.58010714 168.25 381.5625 C169.02472656 381.48064453 169.79945313 381.39878906 170.59765625 381.31445312 C172.48080183 381.11683908 174.36528577 380.93204626 176.25 380.75 C175.84007812 379.904375 175.43015625 379.05875 175.0078125 378.1875 C174.46898437 377.053125 173.93015625 375.91875 173.375 374.75 C172.84132813 373.63625 172.30765625 372.5225 171.7578125 371.375 C168.84699568 364.37697408 167.94152386 358.176458 168.0625 350.625 C168.0634668 349.46677734 168.0634668 349.46677734 168.06445312 348.28515625 C168.09808718 343.89778027 168.51471162 340.16173028 169.25 335.75 C148.13 335.75 127.01 335.75 105.25 335.75 Z M-83.75 396.75 C-84.97520846 399.68939595 -86.19993501 402.62898542 -87.42285156 405.56933594 C-88.190139 407.40822864 -88.96094837 409.24567671 -89.74121094 411.07910156 C-90.55737436 413.00298273 -91.343987 414.93663095 -92.125 416.875 C-92.39699219 417.50019531 -92.66898437 418.12539063 -92.94921875 418.76953125 C-96.61063944 428.02635381 -93.16490259 438.37407853 -91.24609375 447.7578125 C-91.0033522 448.9644455 -90.76061066 450.17107849 -90.51051331 451.41427612 C-89.74071924 455.23545128 -88.96421926 459.05522715 -88.1875 462.875 C-87.66111705 465.47896738 -87.13626947 468.08324128 -86.61132812 470.6875 C-85.3301303 477.04288891 -84.03985705 483.39633844 -82.75 489.75 C-67.57 489.75 -52.39 489.75 -36.75 489.75 C-36.63352298 476.99515229 -36.63352298 476.99515229 -36.5546875 464.24023438 C-36.53083989 459.03262895 -36.50272611 453.8253067 -36.44824219 448.61791992 C-36.40456008 444.41630908 -36.38081603 440.2150022 -36.37049103 436.01318169 C-36.36313955 434.41569679 -36.34878428 432.81822724 -36.32707977 431.22087288 C-36.19688886 421.23603901 -36.41726368 413.04556662 -43 405 C-49.78394938 399.44949597 -54.97680559 396.60895493 -63.828125 396.65234375 C-65.56835938 396.65717773 -65.56835938 396.65717773 -67.34375 396.66210938 C-69.15359375 396.67467773 -69.15359375 396.67467773 -71 396.6875 C-72.83304688 396.69426758 -72.83304688 396.69426758 -74.703125 396.70117188 C-77.71879946 396.71295185 -80.73437498 396.72940147 -83.75 396.75 Z M20.25 396.75 C20.25 402.03 20.25 407.31 20.25 412.75 C24.23689288 410.35786427 27.51583522 408.01093217 31.0625 405.0625 C32.03832031 404.25425781 33.01414063 403.44601562 34.01953125 402.61328125 C34.75558594 401.99839844 35.49164063 401.38351562 36.25 400.75 C33.43140613 397.93140613 30.9405546 396.84076803 26.921875 396.625 C24.69752638 396.625 22.47335826 396.6836311 20.25 396.75 Z M72.25 399.75 C76.80253059 404.60603263 81.91859736 408.77119396 87.25 412.75 C87.58 412.75 87.91 412.75 88.25 412.75 C88.25 407.47 88.25 402.19 88.25 396.75 C81.90088682 396.45696401 77.91025757 396.85965571 72.25 399.75 Z M185.25 396.75 C185.25 402.36 185.25 407.97 185.25 413.75 C190.83327587 409.66224445 196.10437922 405.37558464 201.25 400.75 C197.24058587 397.67611583 195.20889208 396.6223219 190.125 396.6875 C188.51625 396.708125 186.9075 396.72875 185.25 396.75 Z M238.25 399.75 C243.00722654 404.66580076 248.03797288 409.31977695 253.25 413.75 C253.58 413.75 253.91 413.75 254.25 413.75 C254.25 408.14 254.25 402.53 254.25 396.75 C245.84484118 396.389349 245.84484118 396.389349 238.25 399.75 Z M153.375 403.1875 C152.67375 404.033125 151.9725 404.87875 151.25 405.75 C150.528125 406.554375 149.80625 407.35875 149.0625 408.1875 C145.48118596 413.25073709 145.00186356 418.03856926 145.02294922 424.13232422 C145.02265717 424.84521103 145.02236511 425.55809784 145.02206421 426.29258728 C145.02344862 428.63008132 145.0389674 430.96724969 145.0546875 433.3046875 C145.0584208 434.93278835 145.06126628 436.56089146 145.06326294 438.18899536 C145.07087444 442.46006548 145.09050144 446.73099811 145.1126709 451.00201416 C145.13318297 455.36590719 145.1422761 459.72982258 145.15234375 464.09375 C145.17374984 472.64590325 145.20891158 481.19791864 145.25 489.75 C153.17 489.75 161.09 489.75 169.25 489.75 C169.25 459.06 169.25 428.37 169.25 396.75 C163.36083788 396.75 157.81001011 399.42738273 153.375 403.1875 Z M-119.75 402.75 C-118.945625 405.039375 -118.14125 407.32875 -117.3125 409.6875 C-116.93460327 410.77019165 -116.93460327 410.77019165 -116.54907227 411.87475586 C-115.58581919 415.06092155 -115.58581919 415.06092155 -113.75 417.75 C-112.08382885 417.79063832 -110.41611905 417.792721 -108.75 417.75 C-107.91260219 415.6265984 -107.08019717 413.5012272 -106.25 411.375 C-105.55390625 409.59996094 -105.55390625 409.59996094 -104.84375 407.7890625 C-103.63712206 404.9746756 -103.63712206 404.9746756 -103.75 402.75 C-109.03 402.75 -114.31 402.75 -119.75 402.75 Z M214.375 410.1875 C210.60812269 413.65798144 206.787202 417.01585383 202.8125 420.25 C201.96929199 420.96486572 201.12608398 421.67973145 200.25732422 422.41625977 C197.25 424.75 197.25 424.75 194.1081543 426.38818359 C190.21686396 428.71050711 187.40149455 430.69696111 185.25 434.75 C183.18684313 443.86345121 184.13673706 453.63001165 184.5 462.875 C184.7475 471.74375 184.995 480.6125 185.25 489.75 C208.02 489.75 230.79 489.75 254.25 489.75 C254.45625 480.860625 254.6625 471.97125 254.875 462.8125 C254.96604004 460.02304932 255.05708008 457.23359863 255.15087891 454.35961914 C255.18010907 452.12651364 255.20558562 449.89335452 255.2265625 447.66015625 C255.27772217 446.51865112 255.32888184 445.377146 255.3815918 444.2010498 C255.38702465 439.18598131 255.27768175 436.02432852 252.06007385 432.03448486 C249.55034907 429.75879896 246.9979496 427.72762627 244.25 425.75 C243.28449219 424.93789063 242.31898438 424.12578125 241.32421875 423.2890625 C240.53660156 422.65742188 239.74898438 422.02578125 238.9375 421.375 C234.01970666 417.3999596 229.19325787 413.3286091 224.40112305 409.20361328 C219.20384876 404.76379463 219.32281291 405.58309053 214.375 410.1875 Z M-13.6875 403.8125 C-31.05940958 426.14781232 -20.75 471.68974756 -20.75 489.75 C28.75 489.75 78.25 489.75 129.25 489.75 C134.40470479 448.91877994 134.40470479 448.91877994 122.1875 403.8125 C117.39174433 399.48487666 110.71824189 396.75 104.25 396.75 C104.2406543 397.60231201 104.23130859 398.45462402 104.22167969 399.33276367 C104.17753079 402.51083517 104.11585733 405.68795784 104.04248047 408.86547852 C104.01434625 410.23774907 103.99309414 411.61017941 103.97900391 412.98266602 C103.95747269 414.96138494 103.9087072 416.9397477 103.859375 418.91796875 C103.83842773 420.10672607 103.81748047 421.2954834 103.79589844 422.52026367 C103.15006126 426.3412744 101.92781312 428.00035979 99.25 430.75 C95.67143513 432.93690076 92.46354489 433.09205953 88.33203125 432.39453125 C84.26993443 431.13703411 81.42628485 428.49621691 78.25 425.75 C77.1500526 424.80952961 76.04976411 423.86945808 74.94921875 422.9296875 C73.73675822 421.89088282 72.52452388 420.8518141 71.3125 419.8125 C70.70591553 419.29244385 70.09933105 418.7723877 69.47436523 418.23657227 C68.57826538 417.4678479 68.57826538 417.4678479 67.6640625 416.68359375 C67.08172852 416.18456543 66.49939453 415.68553711 65.89941406 415.17138672 C64.43202998 413.9068648 62.97683539 412.62822889 61.5234375 411.34765625 C60.75257813 410.69667969 59.98171875 410.04570312 59.1875 409.375 C58.53652344 408.81039063 57.88554687 408.24578125 57.21484375 407.6640625 C55.21988045 406.48923796 55.21988045 406.48923796 52.79296875 407.33203125 C49.99975989 408.88953481 47.94528435 410.61249795 45.625 412.8125 C40.34618953 417.69795648 34.87557612 422.27037457 29.25 426.75 C28.6003125 427.29140625 27.950625 427.8328125 27.28125 428.390625 C22.87888175 431.87249807 19.74626348 432.75 14.25 432.75 C10.00055477 431.22661398 7.54151906 429.62675643 5.25 425.75 C4.81762695 422.63378906 4.81762695 422.63378906 4.73828125 419.015625 C4.70283203 417.72011719 4.66738281 416.42460937 4.63085938 415.08984375 C4.60776133 413.72656774 4.58497886 412.36328636 4.5625 411 C4.52931352 409.62106138 4.49482262 408.2421535 4.45898438 406.86328125 C4.37647709 403.49226941 4.30733229 400.12151872 4.25 396.75 C-2.21824189 396.75 -8.89174433 399.48487666 -13.6875 403.8125 Z M-112.75 433.75 C-114.88075983 439.45769801 -115.96404659 445.31383265 -117.1328125 451.2734375 C-117.35194305 452.37475006 -117.57107361 453.47606262 -117.79684448 454.61074829 C-118.49318914 458.11479092 -119.18416532 461.61986734 -119.875 465.125 C-120.34730206 467.50658069 -120.81995434 469.88809194 -121.29296875 472.26953125 C-122.4500304 478.09543818 -123.59982178 483.92271332 -124.75 489.75 C-116.17 489.75 -107.59 489.75 -98.75 489.75 C-102.00882993 470.96380396 -105.62238 452.3638348 -109.75 433.75 C-110.74 433.75 -111.73 433.75 -112.75 433.75 Z " fill="#000000" transform="translate(201.75,7.25)"/>
<path d="M0 0 C0.9590625 -0.03287109 0.9590625 -0.03287109 1.9375 -0.06640625 C5.228475 0.93709181 6.75259483 2.99830067 9 5.5625 C10.24202264 8.1192187 11.2770605 10.52217331 12.2421875 13.17578125 C12.67048607 14.30175972 12.67048607 14.30175972 13.10743713 15.45048523 C14.04326142 17.92054121 14.95946956 20.39735779 15.875 22.875 C16.52375393 24.60391639 17.17359256 26.33242611 17.82446289 28.06054688 C19.18888823 31.68848926 20.54545744 35.31925366 21.89794922 38.95166016 C23.65109798 43.64813211 25.43951459 48.33018925 27.24279785 53.00761414 C28.64525088 56.64611866 30.03806972 60.28826953 31.42950439 63.93099976 C32.0980504 65.67632381 32.77001434 67.4203427 33.44549561 69.16299438 C34.39015758 71.60458 35.31979797 74.05139817 36.24609375 76.5 C36.52659073 77.21508224 36.80708771 77.93016449 37.09608459 78.66691589 C38.75052026 83.09589313 39.40527312 86.76323268 39 91.5625 C37.5 94 37.5 94 35 95.5625 C32.19531045 96.17171535 29.75263191 96.42807371 27 95.5625 C23 90.5625 23 90.5625 18 77.5625 C-0.315 77.0675 -0.315 77.0675 -19 76.5625 C-19.99 79.8625 -20.98 83.1625 -22 86.5625 C-25.50442478 94.31471239 -25.50442478 94.31471239 -28 95.5625 C-31.54250417 95.82490772 -34.13259827 95.9733745 -37.375 94.4375 C-39.60979461 91.85889083 -39.70101639 89.94055715 -40 86.5625 C-39.34179688 83.74633789 -39.34179688 83.74633789 -38.21875 80.78515625 C-37.79609863 79.65070068 -37.37344727 78.51624512 -36.93798828 77.34741211 C-36.46345215 76.11901611 -35.98891602 74.89062012 -35.5 73.625 C-35.00782829 72.32146858 -34.51680885 71.0175016 -34.02685547 69.71313477 C-32.66835515 66.11019428 -31.29026953 62.51504277 -29.90710449 58.92150879 C-28.96267645 56.46543668 -28.02234977 54.00782625 -27.08300781 51.54980469 C-19.93828297 32.85789227 -19.93828297 32.85789227 -16.48919678 24.01838684 C-15.1507 20.58247681 -13.83929633 17.14477944 -12.62011719 13.66455078 C-12.20665039 12.50810059 -11.79318359 11.35165039 -11.3671875 10.16015625 C-11.0254248 9.16636963 -10.68366211 8.17258301 -10.33154297 7.14868164 C-8.16468547 2.94011518 -4.87435964 -0.00982734 0 0 Z M-1 28.5625 C-2.5729434 32.63519123 -4.13933576 36.71032243 -5.69970703 40.7878418 C-6.23144063 42.17459913 -6.76495802 43.56067385 -7.30029297 44.94604492 C-8.06948357 46.93752078 -8.83222484 48.93136369 -9.59375 50.92578125 C-10.05458984 52.12501221 -10.51542969 53.32424316 -10.99023438 54.55981445 C-12.15937336 57.50843251 -12.15937336 57.50843251 -12 60.5625 C-4.08 60.5625 3.84 60.5625 12 60.5625 C9.84432325 53.37691085 7.59366027 46.48289259 4.9375 39.5 C4.4105957 38.0778418 4.4105957 38.0778418 3.87304688 36.62695312 C3.53208984 35.72783203 3.19113281 34.82871094 2.83984375 33.90234375 C2.53425537 33.09144287 2.22866699 32.28054199 1.91381836 31.44506836 C1.14920977 29.383209 1.14920977 29.383209 -1 28.5625 Z " fill="#000000" transform="translate(260,203.4375)"/>
<path d="M0 0 C1.73627925 1.33463393 3.22571987 2.55171118 4.62109375 4.24609375 C5.37581073 11.03854658 5.37581073 11.03854658 3.05859375 14.74609375 C-0.42012875 16.88684606 -2.33996419 16.85193506 -6.37890625 16.24609375 C-8.5214986 15.12299409 -10.47990597 13.84510828 -12.484375 12.4921875 C-17.9959928 8.86702033 -23.97326461 8.559775 -30.37890625 9.24609375 C-34.49166534 10.78837841 -35.93671563 11.58280782 -38.37890625 15.24609375 C-39.02181027 18.68975445 -39.02181027 18.68975445 -37.37890625 22.24609375 C-30.95528 26.81501101 -23.0026379 29.21429954 -15.68945312 32.06445312 C-6.20658419 35.81624239 2.3735762 41.23829273 6.80859375 50.80859375 C9.19598171 60.90908129 7.2451515 68.25245978 1.99609375 76.93359375 C-6.2124477 84.92612095 -15.58140055 87.6662783 -26.76977539 87.60961914 C-39.200382 87.30974925 -48.33994378 82.29520212 -57.62890625 74.3125 C-60.18421553 71.29518167 -59.95208978 69.11893532 -59.7578125 65.30859375 C-59.37890625 63.24609375 -59.37890625 63.24609375 -57.81640625 61.18359375 C-54.22362004 59.8017529 -52.23216126 59.6144126 -48.37890625 60.24609375 C-45.99143006 61.85635197 -43.83225098 63.64922014 -41.6171875 65.48828125 C-34.76622269 70.86862011 -26.85415334 71.25032225 -18.37890625 70.24609375 C-15.65197694 69.23898918 -14.55060523 68.30349278 -12.37890625 66.24609375 C-11.73953125 65.64796875 -11.10015625 65.04984375 -10.44140625 64.43359375 C-8.76448512 60.98110907 -9.29762747 58.8715579 -10.37890625 55.24609375 C-16.22429977 48.88368889 -24.89132839 46.60628082 -32.7902832 43.62646484 C-42.00776789 40.125223 -49.9945745 36.82712967 -54.31640625 27.43359375 C-56.41804243 20.68486143 -56.24639856 13.61286188 -53.40625 7.12109375 C-49.14791153 -0.65077875 -42.84035608 -4.66656546 -34.48046875 -7.3671875 C-22.0601157 -9.65271715 -10.44189788 -6.84898678 0 0 Z " fill="#000000" transform="translate(156.37890625,211.75390625)"/>
<path d="M0 0 C1.20560326 -0.0099852 1.20560326 -0.0099852 2.43556213 -0.02017212 C4.13255531 -0.03028019 5.82958808 -0.03498971 7.52661133 -0.03466797 C10.11671656 -0.03904192 12.70511787 -0.07538048 15.29492188 -0.11328125 C16.94660878 -0.11914977 18.59830374 -0.12311893 20.25 -0.125 C21.40646278 -0.14655655 21.40646278 -0.14655655 22.58628845 -0.16854858 C26.34008117 -0.13679777 28.48342418 0.20343389 31.6796875 2.23974609 C33.69140625 4.3359375 33.69140625 4.3359375 34.3203125 6.3359375 C34.29839844 6.9959375 34.27648437 7.6559375 34.25390625 8.3359375 C34.25583984 9.3259375 34.25583984 9.3259375 34.2578125 10.3359375 C33.4262723 13.27213463 32.06278003 14.43688572 29.69140625 16.3359375 C26.66699219 16.79003906 26.66699219 16.79003906 23.17578125 16.7265625 C21.92539062 16.71367187 20.675 16.70078125 19.38671875 16.6875 C17.43378906 16.63722656 17.43378906 16.63722656 15.44140625 16.5859375 C14.12398438 16.56789062 12.8065625 16.54984375 11.44921875 16.53125 C8.19630469 16.48410632 4.94376408 16.41236366 1.69140625 16.3359375 C1.69140625 23.9259375 1.69140625 31.5159375 1.69140625 39.3359375 C3.4496875 39.30113281 5.20796875 39.26632813 7.01953125 39.23046875 C9.32681337 39.20233116 11.63410581 39.17503097 13.94140625 39.1484375 C15.10027344 39.12330078 16.25914062 39.09816406 17.453125 39.07226562 C18.56816406 39.06259766 19.68320312 39.05292969 20.83203125 39.04296875 C21.85844727 39.0272583 22.88486328 39.01154785 23.94238281 38.99536133 C27.11639045 39.38858874 28.44815261 40.08198008 30.69140625 42.3359375 C31.56421774 45.76483976 32.02063454 48.22853327 31.00390625 51.6484375 C29.37768126 53.7392982 28.15226141 54.35318308 25.69140625 55.3359375 C23.03417969 55.56298828 23.03417969 55.56298828 20.05078125 55.53125 C18.98085938 55.52480469 17.9109375 55.51835937 16.80859375 55.51171875 C15.69742187 55.49496094 14.58625 55.47820312 13.44140625 55.4609375 C12.31476563 55.45191406 11.188125 55.44289063 10.02734375 55.43359375 C7.2484826 55.41004408 4.47005235 55.3771543 1.69140625 55.3359375 C1.71759033 56.40553711 1.74377441 57.47513672 1.77075195 58.57714844 C1.86133732 62.55024245 1.91868482 66.52324548 1.96606445 70.49707031 C1.99118992 72.21597651 2.02529672 73.93477606 2.06860352 75.65332031 C2.12934654 78.12591864 2.15763387 80.59710356 2.1796875 83.0703125 C2.20549393 83.83712341 2.23130035 84.60393433 2.25788879 85.39398193 C2.25991941 89.26775032 2.04892366 90.95547121 -0.64770508 93.82519531 C-3.87865853 95.65959663 -5.64668774 95.88132776 -9.30859375 95.3359375 C-12.44450945 93.55609345 -13.14962111 92.81285543 -14.30859375 89.3359375 C-14.40991998 86.69515361 -14.45543423 84.0806888 -14.45385742 81.43969727 C-14.45721603 80.636138 -14.46057465 79.83257874 -14.46403503 79.00466919 C-14.47354226 76.34554503 -14.47548798 73.68648385 -14.4765625 71.02734375 C-14.47977504 69.18033319 -14.4831391 67.33332289 -14.48664856 65.48631287 C-14.49263911 61.61350922 -14.49448851 57.74072788 -14.49389648 53.86791992 C-14.49379482 48.90341938 -14.50745184 43.93906173 -14.52466869 38.97459507 C-14.53578205 35.15963584 -14.5378159 31.34471124 -14.53728676 27.52973747 C-14.53846769 25.69929448 -14.5428958 23.86885062 -14.55061913 22.03842354 C-14.5604064 19.47937097 -14.55754609 16.92062974 -14.55151367 14.36157227 C-14.55713318 13.60455521 -14.56275269 12.84753815 -14.56854248 12.06758118 C-14.5462354 8.34730674 -14.45707673 5.45461834 -12.30859375 2.3359375 C-8.70434301 -0.4227364 -4.34186746 0.01250126 0 0 Z " fill="#000000" transform="translate(323.30859375,203.6640625)"/>
<path d="M0 0 C0.80232056 -0.0038269 1.60464111 -0.00765381 2.43127441 -0.01159668 C4.12232727 -0.01431052 5.81342248 -0.00698624 7.50439453 0.00976562 C10.08591716 0.03118501 12.6646572 0.00994839 15.24609375 -0.015625 C16.89323528 -0.01298163 18.54037509 -0.00785645 20.1875 0 C21.3392572 -0.01214539 21.3392572 -0.01214539 22.51428223 -0.02453613 C26.25096682 0.04051656 28.40164687 0.40848996 31.57983398 2.43945312 C33.59375 4.53125 33.59375 4.53125 34.22265625 6.53125 C34.20074219 7.19125 34.17882812 7.85125 34.15625 8.53125 C34.15818359 9.52125 34.15818359 9.52125 34.16015625 10.53125 C33.33088704 13.45942816 31.95183637 14.63189065 29.59375 16.53125 C26.66113281 16.98535156 26.66113281 16.98535156 23.296875 16.921875 C22.09160156 16.90898437 20.88632812 16.89609375 19.64453125 16.8828125 C18.39027344 16.84929687 17.13601563 16.81578125 15.84375 16.78125 C14.57402344 16.76320312 13.30429687 16.74515625 11.99609375 16.7265625 C8.86165742 16.67942812 5.7276087 16.60768558 2.59375 16.53125 C2.59375 24.12125 2.59375 31.71125 2.59375 39.53125 C4.26824219 39.47324219 5.94273437 39.41523438 7.66796875 39.35546875 C9.87236795 39.30856664 12.07679731 39.26306697 14.28125 39.21875 C15.38404297 39.17685547 16.48683594 39.13496094 17.62304688 39.09179688 C25.81046989 38.96811979 25.81046989 38.96811979 29.83203125 41.859375 C31.97694274 45.11241149 32.2447794 46.70645225 31.59375 50.53125 C29.81390595 53.6671657 29.07066793 54.37227736 25.59375 55.53125 C23.82061149 55.61334792 22.04454225 55.63871294 20.26953125 55.62890625 C19.24150391 55.62568359 18.21347656 55.62246094 17.15429688 55.61914062 C16.08244141 55.61076172 15.01058594 55.60238281 13.90625 55.59375 C12.82279297 55.58923828 11.73933594 55.58472656 10.62304688 55.58007812 C7.94655915 55.56828743 5.27018223 55.55183063 2.59375 55.53125 C2.60422363 56.50473389 2.61469727 57.47821777 2.62548828 58.48120117 C2.66179206 62.10600075 2.6846881 65.73078436 2.70361328 69.35571289 C2.71364726 70.92214667 2.72727754 72.48856183 2.74462891 74.05493164 C2.76899225 76.31140753 2.78025916 78.56763494 2.7890625 80.82421875 C2.79938507 81.52024704 2.80970764 82.21627533 2.82034302 82.93339539 C2.82125098 86.90217525 2.51600481 90.02575042 0.59375 93.53125 C-3.1268336 96.01163907 -5.00421571 95.99462203 -9.40625 95.53125 C-11.5955658 94.03137207 -11.5955658 94.03137207 -13.40625 91.53125 C-13.80595115 88.61349918 -13.96371156 86.07186708 -13.93969727 83.15429688 C-13.94831284 82.3115773 -13.95692841 81.46885773 -13.96580505 80.6006012 C-13.98849623 77.81675448 -13.98172096 75.03391178 -13.97265625 72.25 C-13.97789021 70.3147349 -13.98416584 68.37947237 -13.99143982 66.44421387 C-14.00184966 62.38895663 -13.99727381 58.33405018 -13.98266602 54.27880859 C-13.96547164 49.07969687 -13.98897844 43.88168959 -14.02415562 38.68270111 C-14.04610539 34.68667261 -14.04469411 30.69090941 -14.0363903 26.69483948 C-14.03556956 24.77786548 -14.04245634 22.86087224 -14.05716133 20.94395447 C-14.07456414 18.2646778 -14.06010184 15.58739902 -14.03735352 12.90820312 C-14.05489182 11.71892967 -14.05489182 11.71892967 -14.07278442 10.50563049 C-14.00646045 6.67026789 -13.74975707 4.90385794 -11.10960388 2.04003906 C-7.43552442 -0.01052892 -4.10030018 -0.04323804 0 0 Z " fill="#000000" transform="translate(381.40625,203.46875)"/>
<path d="M0 0 C1.63630371 -0.00717545 1.63630371 -0.00717545 3.30566406 -0.01449585 C5.60873865 -0.01789363 7.91186155 -0.00869993 10.21484375 0.01220703 C13.73807417 0.0389719 17.25811856 0.01245249 20.78125 -0.01953125 C23.02084036 -0.01622713 25.26042874 -0.00982087 27.5 0 C29.0782959 -0.01518173 29.0782959 -0.01518173 30.68847656 -0.03067017 C37.97293944 0.08594383 37.97293944 0.08594383 41.9140625 3.01806641 C43.75 5.6640625 43.75 5.6640625 44.375 8.6640625 C43.5156833 12.78878265 42.07009424 14.09325023 38.75 16.6640625 C35.78269513 17.25766808 32.94825219 17.14060181 29.9375 16.9765625 C29.14923828 16.95400391 28.36097656 16.93144531 27.54882812 16.90820312 C25.61506071 16.84960411 23.68227833 16.75993077 21.75 16.6640625 C21.75888245 17.58003708 21.76776489 18.49601166 21.7769165 19.43974304 C21.85710069 28.0765106 21.91798392 36.71315296 21.95724869 45.35020733 C21.9781139 49.79051799 22.00641177 54.2305208 22.05175781 58.6706543 C22.09525406 62.95653619 22.11914513 67.24212218 22.12950897 71.52820778 C22.1368936 73.16249054 22.15131425 74.79675731 22.17292023 76.43091393 C22.20200559 78.72211944 22.20595403 81.01210605 22.20410156 83.3034668 C22.21298401 84.60696579 22.22186646 85.91046478 22.23101807 87.25346375 C21.67116282 91.22304771 20.56712205 92.86729941 17.75 95.6640625 C15.75 96.328125 15.75 96.328125 13.75 96.2890625 C13.09 96.30195313 12.43 96.31484375 11.75 96.328125 C8.59101078 95.27924186 7.54464887 93.41587182 5.75 90.6640625 C5.26898193 87.25346375 5.26898193 87.25346375 5.29589844 83.3034668 C5.29531433 82.58097244 5.29473022 81.85847809 5.29412842 81.11408997 C5.29690366 78.73832277 5.32796675 76.36382782 5.359375 73.98828125 C5.36683944 72.33633611 5.37253141 70.6843821 5.37652588 69.03242493 C5.39176638 64.69374964 5.43103409 60.35561371 5.4753418 56.01715088 C5.51632896 51.58637792 5.53454422 47.15551744 5.5546875 42.72460938 C5.59753029 34.03751347 5.66576189 25.35085516 5.75 16.6640625 C4.65300781 16.69886719 3.55601562 16.73367187 2.42578125 16.76953125 C0.97136955 16.79768115 -0.4830588 16.82498002 -1.9375 16.8515625 C-2.65873047 16.87669922 -3.37996094 16.90183594 -4.12304688 16.92773438 C-8.71146874 16.99058947 -11.61934474 16.53110002 -15.25 13.6640625 C-16.69430855 10.77544541 -16.62688506 8.86758549 -16.25 5.6640625 C-11.95310246 -0.60954622 -6.95763605 -0.06692596 0 0 Z " fill="#000000" transform="translate(184.25,203.3359375)"/>
<path d="M0 0 C2.4375 2.0625 2.4375 2.0625 4 5 C4.22429813 8.59577942 3.64644659 11.78315936 1.9375 15 C-1.29275918 16.66723054 -4.50607953 16.60458181 -8 16 C-10.5 14.5625 -10.5 14.5625 -12 12 C-12.48207192 8.93025468 -12.62382717 6.05169509 -12 3 C-8.64963276 -1.28807936 -5.02924341 -1.43692669 0 0 Z " fill="#000000" transform="translate(426,463)"/>
<path d="M0 0 C2.375 1.625 2.375 1.625 4 4 C4.59172793 8.06812955 4.37276489 10.27000208 2.5 13.9375 C-0.54144722 16.44669396 -2.24113553 16.69047708 -6.09375 16.41015625 C-8 16 -8 16 -10.5 14.5 C-12.60565979 10.99056702 -12.83665744 7.99462913 -12 4 C-8.34417575 -0.75257152 -5.74337249 -1.49327685 0 0 Z " fill="#000000" transform="translate(260,463)"/>
<path d="M0 0 C2.4375 2.0625 2.4375 2.0625 4 5 C4.22429813 8.59577942 3.64644659 11.78315936 1.9375 15 C-1.29275918 16.66723054 -4.50607953 16.60458181 -8 16 C-10.5 14.5625 -10.5 14.5625 -12 12 C-12.48207192 8.93025468 -12.62382717 6.05169509 -12 3 C-8.64963276 -1.28807936 -5.02924341 -1.43692669 0 0 Z " fill="#000000" transform="translate(426,432)"/>
<path d="M0 0 C2.375 1.625 2.375 1.625 4 4 C4.59172793 8.06812955 4.37276489 10.27000208 2.5 13.9375 C-0.54144722 16.44669396 -2.24113553 16.69047708 -6.09375 16.41015625 C-8 16 -8 16 -10.5 14.5 C-12.60565979 10.99056702 -12.83665744 7.99462913 -12 4 C-8.34417575 -0.75257152 -5.74337249 -1.49327685 0 0 Z " fill="#000000" transform="translate(260,432)"/>
</svg>
