<?xml version="1.0" encoding="UTF-8"?>
<svg version="1.1" xmlns="http://www.w3.org/2000/svg" width="512" height="512">
<path d="M0 0 C9.76998045 8.66290051 17.10222193 22.45635288 18.07730103 35.52357483 C18.17137696 38.66688575 18.2045696 41.8044976 18.2109375 44.94921875 C18.2209227 46.68387138 18.2209227 46.68387138 18.23110962 48.4535675 C18.24120158 50.8934267 18.24592771 53.33331331 18.24560547 55.77319336 C18.24996582 59.47101327 18.28628951 63.1676262 18.32421875 66.86523438 C18.33009045 69.2473918 18.33405748 71.62955483 18.3359375 74.01171875 C18.35749405 75.64520515 18.35749405 75.64520515 18.37948608 77.31169128 C18.31993601 87.51517168 15.84006761 97.21438905 10.6875 106.0625 C10.17832031 106.95453125 9.66914063 107.8465625 9.14453125 108.765625 C7.875 110.8125 7.875 110.8125 6.875 111.8125 C6.80294489 113.49858966 6.79113932 115.18750659 6.8125 116.875 C6.82152344 117.79410156 6.83054687 118.71320313 6.83984375 119.66015625 C6.85144531 120.37042969 6.86304688 121.08070313 6.875 121.8125 C7.61322998 122.15394043 8.35145996 122.49538086 9.11206055 122.84716797 C15.82472874 125.95348757 22.53327184 129.06841805 29.23747253 132.19296265 C33.18240661 134.02998818 37.13530595 135.84845665 41.09375 137.65625 C42.91686145 138.49957905 44.739791 139.34330148 46.5625 140.1875 C47.78682739 140.73833252 47.78682739 140.73833252 49.03588867 141.30029297 C63.11199838 147.87567374 74.16631915 159.17540395 80.13221741 173.58175659 C83.59816334 183.9907728 84.80950603 195.24149817 86.35546875 206.0703125 C86.57520698 207.59099842 86.79512558 209.11165828 87.01521301 210.6322937 C87.47143798 213.79328901 87.92385395 216.95480139 88.3737793 220.11669922 C88.94631803 224.1363961 89.53103096 228.15421748 90.11892223 232.1716938 C90.57520368 235.302414 91.02365844 238.43421999 91.4699955 241.56637192 C91.68219953 243.04728488 91.89703333 244.52782384 92.11473656 246.00793839 C95.01466213 265.78421713 95.01466213 265.78421713 93.875 271.8125 C90.76005664 275.57740683 90.76005664 275.57740683 87.875 276.34375 C87.215 276.3334375 86.555 276.323125 85.875 276.3125 C84.885 276.32796875 84.885 276.32796875 83.875 276.34375 C80.89362424 275.55182206 79.80942687 274.21159396 77.875 271.8125 C77.1516248 269.16480596 76.64863459 266.7777541 76.26904297 264.08325195 C76.15025724 263.33151105 76.03147152 262.57977015 75.90908623 261.80524921 C75.54647476 259.4766195 75.20808081 257.14551906 74.875 254.8125 C74.67301335 253.44581039 74.47089127 252.07914078 74.26861572 250.7124939 C73.77853988 247.34541376 73.31464572 243.97520393 72.85867691 240.6033535 C72.35015713 236.85972614 71.82356455 233.1186102 71.30078125 229.37695312 C70.64505315 224.6737658 69.99441215 219.97001191 69.35986328 215.26391602 C68.83889414 211.40375587 68.30178387 207.54612846 67.75439072 203.68963051 C67.55166385 202.24062369 67.35463804 200.79080535 67.16391373 199.34016991 C65.47378876 186.51905705 62.38373595 174.15770628 52.875 164.8125 C44.07907796 158.07366454 33.73532367 153.86167418 23.6875 149.375 C22.05108498 148.63683717 20.41501449 147.89791007 18.77929688 147.15820312 C14.81510839 145.36748041 10.84642367 143.58711527 6.875 141.8125 C6.60421631 142.88685303 6.33343262 143.96120605 6.05444336 145.06811523 C4.99993283 148.4158751 4.23625 150.13561117 2.00390625 152.72265625 C1.15058716 153.73175049 1.15058716 153.73175049 0.2800293 154.76123047 C-0.32800537 155.45877441 -0.93604004 156.15631836 -1.5625 156.875 C-2.83729923 158.37775214 -4.11071932 159.88167522 -5.3828125 161.38671875 C-6.01606445 162.13099121 -6.64931641 162.87526367 -7.30175781 163.64208984 C-9.9246766 166.76444496 -12.43745149 169.96651775 -14.9375 173.1875 C-32.08540458 195.15581208 -32.08540458 195.15581208 -36.1875 196.4765625 C-36.826875 196.46367187 -37.46625 196.45078125 -38.125 196.4375 C-38.764375 196.45039063 -39.40375 196.46328125 -40.0625 196.4765625 C-45.25091518 194.80605004 -48.82379822 188.9538415 -52.25 184.875 C-52.96168335 184.03074463 -52.96168335 184.03074463 -53.68774414 183.16943359 C-57.52497833 178.58854937 -61.24755173 173.92387984 -64.90844727 169.20117188 C-67.3620937 166.03789456 -69.85273625 162.91687829 -72.4140625 159.83984375 C-72.96006104 159.17774902 -73.50605957 158.5156543 -74.06860352 157.83349609 C-75.11743315 156.56465107 -76.17473644 155.30274398 -77.24194336 154.04931641 C-77.72026611 153.46714355 -78.19858887 152.8849707 -78.69140625 152.28515625 C-79.11365479 151.78250244 -79.53590332 151.27984863 -79.97094727 150.76196289 C-81.63835082 147.94533133 -82.3108455 144.96479933 -83.125 141.8125 C-88.52153774 144.23229847 -93.91044708 146.66812686 -99.29321289 149.1184082 C-101.12133157 149.94793539 -102.95138115 150.77322195 -104.78344727 151.59399414 C-121.02345933 158.87522059 -133.27257869 165.22367119 -140.10218811 182.51347351 C-142.07427734 188.87434462 -142.80154395 195.47156139 -143.67857552 202.05767059 C-144.04175137 204.78388184 -144.420731 207.50750328 -144.80357361 210.23101807 C-145.61240522 216.00626337 -146.40072544 221.78421534 -147.1875 227.5625 C-148.10379122 234.27709874 -149.02857356 240.9903833 -149.96993828 247.7015152 C-150.34157332 250.37806517 -150.7001875 253.05614654 -151.05812073 255.73455811 C-151.28693206 257.38008764 -151.51630774 259.02553884 -151.74633789 260.67089844 C-151.84147675 261.40972763 -151.9366156 262.14855682 -152.03463745 262.90977478 C-152.67580718 267.37845763 -153.79100557 270.93930372 -156.125 274.8125 C-159.25442465 276.37721233 -162.73582223 276.50951958 -166.125 275.8125 C-168.61780614 273.79482472 -169.9709749 272.60052179 -170.59527588 269.40647888 C-170.33656934 260.3299235 -169.17381788 251.44299051 -167.859375 242.47265625 C-167.62189678 240.81707429 -167.38486531 239.16142819 -167.14825439 237.50572205 C-166.65280147 234.0531852 -166.15110453 230.60162857 -165.64501953 227.15063477 C-165.00239268 222.76421121 -164.37684446 218.37555014 -163.75619125 213.9859705 C-163.27113749 210.57103651 -162.77620821 207.1575865 -162.27851105 203.74447441 C-162.04416833 202.12847597 -161.81292762 200.51202408 -161.58507538 198.89509773 C-158.84965549 179.56646059 -154.12631232 161.84863452 -138.05224609 149.17871094 C-131.50597906 144.39352845 -124.5799042 140.86323369 -117.25 137.4375 C-116.07848389 136.88167236 -114.90696777 136.32584473 -113.69995117 135.75317383 C-103.57093488 130.96755664 -93.37389714 126.33510341 -83.125 121.8125 C-82.6360465 113.87118604 -82.6360465 113.87118604 -85.875 106.8125 C-91.09471104 98.97676356 -94.19944937 90.96359999 -94.30200195 81.49414062 C-94.32125481 79.93596619 -94.32125481 79.93596619 -94.34089661 78.34631348 C-94.34828354 77.23171753 -94.35567047 76.11712158 -94.36328125 74.96875 C-94.371353 73.80807007 -94.37942474 72.64739014 -94.38774109 71.45153809 C-94.40156105 68.99374881 -94.41229252 66.53594052 -94.42016602 64.078125 C-94.43165634 61.58197345 -94.45206089 59.0858459 -94.48168945 56.58984375 C-94.52468203 52.9659775 -94.54058174 49.3428407 -94.55078125 45.71875 C-94.56828934 44.6203479 -94.58579742 43.5219458 -94.60383606 42.39025879 C-94.56416146 27.96099646 -89.32873054 13.2535266 -79.125 2.8125 C-56.1337214 -17.89865179 -24.50241979 -17.15169385 0 0 Z M-67.3046875 15.7890625 C-78.27639434 27.98507998 -78.31211656 41.97474347 -78.31030273 57.5246582 C-78.31248541 59.61104881 -78.33069885 61.69690569 -78.34960938 63.78320312 C-78.41627772 79.30361593 -77.11012925 93.16887805 -66.1484375 104.9921875 C-57.41789871 112.84630155 -47.66923513 115.66944876 -36.125 115.8125 C-24.83700806 114.98317814 -14.72777951 110.26365834 -7.125 101.8125 C1.83216388 89.27247056 2.06204746 77.05787728 2.06030273 62.1003418 C2.06248541 60.01395119 2.08069885 57.92809431 2.09960938 55.84179688 C2.16627772 40.32138407 0.86012925 26.45612195 -10.1015625 14.6328125 C-26.75914186 -0.35257742 -51.11847838 0.78241518 -67.3046875 15.7890625 Z M-66.125 125.8125 C-67.24212251 131.40697859 -67.81604527 136.83678468 -64.92822266 141.91845703 C-61.62783219 146.47343719 -57.82061239 150.58948443 -54.01123047 154.71972656 C-51.13225404 157.91395203 -48.50279553 161.28613678 -45.875 164.6875 C-45.42213623 165.26435547 -44.96927246 165.84121094 -44.50268555 166.43554688 C-42.61413854 168.84648889 -40.8249253 171.26261205 -39.125 173.8125 C-38.465 173.8125 -37.805 173.8125 -37.125 173.8125 C-35.44036307 171.84862453 -33.86979468 169.87443284 -32.3125 167.8125 C-31.32817602 166.53281223 -30.34243852 165.25421079 -29.35546875 163.9765625 C-28.83388184 163.30012695 -28.31229492 162.62369141 -27.77490234 161.92675781 C-24.40547398 157.60902333 -20.92135894 153.38354552 -17.45385742 149.14453125 C-16.43508277 147.89685919 -15.42119254 146.6451752 -14.41333008 145.38867188 C-13.406528 144.15692766 -12.34387492 142.97078451 -11.26171875 141.8046875 C-9.51769425 138.74814971 -9.84106043 136.03432457 -9.9375 132.5625 C-9.96457031 131.29921875 -9.99164063 130.0359375 -10.01953125 128.734375 C-10.05433594 127.77015625 -10.08914063 126.8059375 -10.125 125.8125 C-10.90617187 126.1734375 -11.68734375 126.534375 -12.4921875 126.90625 C-21.13884323 130.37261533 -28.99595307 131.33242832 -38.3125 131.375 C-39.39192871 131.38917969 -40.47135742 131.40335938 -41.58349609 131.41796875 C-49.39499414 131.32289499 -55.86538887 129.61592953 -63.125 126.8125 C-64.115 126.4825 -65.105 126.1525 -66.125 125.8125 Z " fill="#000000" transform="translate(294.125,196.1875)"/>
<path d="M0 0 C1.37045026 -0.00542487 2.74089468 -0.01254958 4.11132812 -0.02124023 C7.82214736 -0.03943355 11.53252041 -0.0324229 15.24334717 -0.01972389 C19.13229549 -0.00957537 23.02120638 -0.0189947 26.91015625 -0.02526855 C33.44017372 -0.03253959 39.97001005 -0.02297163 46.5 -0.00390625 C54.04255185 0.01786159 61.58467116 0.01080982 69.12721252 -0.01121187 C75.61063837 -0.02938147 82.09393423 -0.03191662 88.57737732 -0.0214572 C92.44635098 -0.01523078 96.31512153 -0.01436299 100.18408203 -0.02760315 C103.82206402 -0.03918392 107.45949 -0.03109613 111.09741211 -0.00802612 C113.06428265 -0.00024035 115.03120039 -0.01207597 116.99804688 -0.02453613 C127.99790071 0.08082645 127.99790071 0.08082645 132.5625 4.51757812 C136.87588694 9.45175475 137.14044215 13.38855665 137.08007812 19.640625 C137.0870874 20.53894547 137.09409668 21.43726593 137.10131836 22.36280823 C137.11886867 25.32096619 137.10728605 28.27816108 137.09375 31.23632812 C137.09644576 33.29846378 137.10032889 35.36059818 137.10534668 37.42272949 C137.11123772 41.7401136 137.1026913 46.05716621 137.08398438 50.37451172 C137.06119527 55.90280292 137.07432043 61.4303173 137.09827423 66.95858002 C137.11274273 71.21545238 137.10812134 75.47214121 137.09776306 79.72901917 C137.0950987 81.76713656 137.0983553 83.80527073 137.10768127 85.84336853 C137.11786403 88.69420376 137.10232146 91.54378889 137.08007812 94.39453125 C137.08817505 95.23315201 137.09627197 96.07177277 137.10461426 96.93580627 C137.02770219 102.26880012 136.06763767 105.26906682 132.5625 109.51757812 C128.63935524 113.14648703 126.04132237 114.5263001 120.71768188 114.50756836 C119.06426285 114.4177771 119.06426285 114.4177771 117.37744141 114.32617188 C115.48788979 114.23655434 115.48788979 114.23655434 113.56016541 114.14512634 C112.88637281 114.11300489 112.21258022 114.08088345 111.51836967 114.04778862 C77.4299537 112.54593853 50.42544254 111.75759884 23.23046875 135.08398438 C22.65962051 135.62777237 22.08877228 136.17156036 21.50062561 136.73182678 C18.54609119 139.45183193 16.48416798 140.88406176 12.39575195 141.10717773 C8.5625 140.51757812 8.5625 140.51757812 6.08691406 138.87011719 C4.20602886 135.96745707 4.09865693 134.31820249 4.171875 130.87695312 C4.19121094 129.27207031 4.19121094 129.27207031 4.2109375 127.63476562 C4.24445313 126.52359375 4.27796875 125.41242188 4.3125 124.26757812 C4.33054687 123.1409375 4.34859375 122.01429688 4.3671875 120.85351562 C4.41429778 118.07400917 4.48006639 115.29622473 4.5625 112.51757812 C3.18578125 112.56978516 3.18578125 112.56978516 1.78125 112.62304688 C-13.77730917 112.96625039 -13.77730917 112.96625039 -18.9921875 108.05273438 C-23.36046965 103.00576432 -23.5937506 99.47085794 -23.61450195 93.03222656 C-23.62107315 92.15399734 -23.62764435 91.27576813 -23.63441467 90.3709259 C-23.65417087 87.45626749 -23.66581597 84.54166069 -23.67578125 81.62695312 C-23.68189454 80.13499294 -23.68189454 80.13499294 -23.68813133 78.61289215 C-23.70900285 73.34756171 -23.72329939 68.08225741 -23.73266602 62.81689453 C-23.74372739 57.37825231 -23.77812119 51.94001957 -23.81783772 46.50152206 C-23.84398629 42.3201827 -23.85235634 38.1389411 -23.85594749 33.95752716 C-23.86081869 31.95287564 -23.8724478 29.94822864 -23.89098549 27.94365692 C-23.91533734 25.13561103 -23.914419 22.32862701 -23.9074707 19.52050781 C-23.92028076 18.69430435 -23.93309082 17.86810089 -23.94628906 17.01686096 C-23.89861194 11.72276414 -23.04199996 8.64714959 -19.4375 4.51757812 C-13.86738301 -0.8965282 -7.3010497 -0.04625287 0 0 Z M-7.4375 16.51757812 C-7.4375 42.58757812 -7.4375 68.65757812 -7.4375 95.51757812 C0.4825 95.84757812 8.4025 96.17757812 16.5625 96.51757812 C19.9375 99.89257812 19.9375 99.89257812 20.07421875 103.52929688 C20.12739258 104.6652832 20.12739258 104.6652832 20.18164062 105.82421875 C20.20419922 106.60990234 20.22675781 107.39558594 20.25 108.20507812 C20.30124023 109.40100586 20.30124023 109.40100586 20.35351562 110.62109375 C20.43588104 112.58609717 20.50087067 114.55181509 20.5625 116.51757812 C25.22039899 114.16452124 29.45209336 111.79872508 33.2902832 108.23168945 C48.64945343 94.5768615 66.36071065 96.84742896 85.75 97.20507812 C97.238125 97.30820312 108.72625 97.41132813 120.5625 97.51757812 C120.5625 70.78757812 120.5625 44.05757812 120.5625 16.51757812 C78.3225 16.51757812 36.0825 16.51757812 -7.4375 16.51757812 Z " fill="#000000" transform="translate(375.4375,163.482421875)"/>
<path d="M0 0 C1.37045026 -0.00542487 2.74089468 -0.01254958 4.11132812 -0.02124023 C7.82214736 -0.03943355 11.53252041 -0.0324229 15.24334717 -0.01972389 C19.13229549 -0.00957537 23.02120638 -0.0189947 26.91015625 -0.02526855 C33.44017372 -0.03253959 39.97001005 -0.02297163 46.5 -0.00390625 C54.04255185 0.01786159 61.58467116 0.01080982 69.12721252 -0.01121187 C75.61063837 -0.02938147 82.09393423 -0.03191662 88.57737732 -0.0214572 C92.44635098 -0.01523078 96.31512153 -0.01436299 100.18408203 -0.02760315 C103.82206402 -0.03918392 107.45949 -0.03109613 111.09741211 -0.00802612 C113.06428265 -0.00024035 115.03120039 -0.01207597 116.99804688 -0.02453613 C127.99790071 0.08082645 127.99790071 0.08082645 132.5625 4.51757812 C136.8240237 9.41330075 137.14125168 13.26240947 137.08007812 19.45703125 C137.0870874 20.33584457 137.09409668 21.2146579 137.10131836 22.12010193 C137.11886526 25.01333594 137.10728736 27.90558486 137.09375 30.79882812 C137.09644586 32.81612332 137.10032907 34.83341725 137.10534668 36.85070801 C137.11123725 41.07393798 137.10269285 45.29682902 137.08398438 49.52001953 C137.06119525 54.92724842 137.07432067 60.3336831 137.09827423 65.74088287 C137.11274402 69.90511026 137.10812076 74.06915007 137.09776306 78.23338318 C137.09509905 80.22684321 137.09835406 82.22032039 137.10768127 84.21376038 C137.11786622 87.00233934 137.10231864 89.78964092 137.08007812 92.578125 C137.08817505 93.39804428 137.09627197 94.21796356 137.10461426 95.06272888 C137.02689935 100.33544244 136.04947898 103.33379587 132.5625 107.51757812 C126.62706941 112.09280587 122.69742114 112.64845702 115.3125 112.58007812 C114.04921875 112.57105469 112.7859375 112.56203125 111.484375 112.55273438 C110.03804688 112.53533203 110.03804688 112.53533203 108.5625 112.51757812 C108.58344727 113.22366211 108.60439453 113.92974609 108.62597656 114.65722656 C108.70919298 117.86053188 108.76117785 121.06360976 108.8125 124.26757812 C108.84601563 125.37875 108.87953125 126.48992187 108.9140625 127.63476562 C108.92695313 128.7046875 108.93984375 129.77460938 108.953125 130.87695312 C108.97407227 131.86147461 108.99501953 132.84599609 109.01660156 133.86035156 C108.5625 136.51757812 108.5625 136.51757812 107.03808594 138.87011719 C104.19613168 140.7613901 102.02156463 141.17770296 98.61264038 140.9916687 C94.864725 140.12497129 92.61525586 137.67575753 89.89453125 135.08398438 C62.32930527 111.43890598 34.44113657 112.44792216 -0.09527588 114.37171936 C-13.47627815 115.00807182 -13.47627815 115.00807182 -19.1796875 109.98242188 C-23.16862728 104.60423065 -23.5937253 101.43961693 -23.61450195 94.84863281 C-23.62107315 93.95089645 -23.62764435 93.0531601 -23.63441467 92.1282196 C-23.65417198 89.14862998 -23.66581617 86.16909084 -23.67578125 83.18945312 C-23.67985678 82.17274788 -23.6839323 81.15604263 -23.68813133 80.10852814 C-23.70900324 74.72648826 -23.72329966 69.34447396 -23.73266602 63.96240234 C-23.74372799 58.40269585 -23.77812242 52.84338986 -23.81783772 47.28382492 C-23.84398376 43.00983943 -23.85235612 38.73594961 -23.85594749 34.46189117 C-23.86081927 32.41258288 -23.87245002 30.36327903 -23.89098549 28.31404877 C-23.91533206 25.44374387 -23.91441992 22.5744781 -23.9074707 19.70410156 C-23.92028076 18.85919662 -23.93309082 18.01429169 -23.94628906 17.14378357 C-23.89919802 11.80064021 -23.08724149 8.68112727 -19.4375 4.51757812 C-13.86738301 -0.8965282 -7.3010497 -0.04625287 0 0 Z M-7.4375 16.51757812 C-7.4375 43.24757813 -7.4375 69.97757813 -7.4375 97.51757812 C15.04416611 97.13749806 15.04416611 97.13749806 37.52075195 96.55419922 C59.32262129 96.29392934 72.77220297 100.79193345 89.56852722 114.89102173 C91.2627726 116.62292847 91.2627726 116.62292847 92.5625 116.51757812 C92.59988281 115.32519531 92.63726562 114.1328125 92.67578125 112.90429688 C92.74144032 111.33785913 92.80788768 109.77145428 92.875 108.20507812 C92.89755859 107.41939453 92.92011719 106.63371094 92.94335938 105.82421875 C92.9965332 104.68823242 92.9965332 104.68823242 93.05078125 103.52929688 C93.09005737 102.484552 93.09005737 102.484552 93.13012695 101.41870117 C93.5625 99.51757812 93.5625 99.51757812 96.5625 96.51757812 C104.4825 96.18757813 112.4025 95.85757813 120.5625 95.51757812 C120.5625 69.44757813 120.5625 43.37757813 120.5625 16.51757812 C78.3225 16.51757812 36.0825 16.51757812 -7.4375 16.51757812 Z " fill="#000000" transform="translate(23.4375,163.482421875)"/>
<path d="M0 0 C1.21750694 -0.01475876 1.21750694 -0.01475876 2.45960999 -0.02981567 C35.92063376 -0.35169627 66.00147248 4.34136914 96.3125 19.23828125 C96.95590332 19.54846191 97.59930664 19.85864258 98.26220703 20.17822266 C130.0637546 35.64946692 161.09960606 63.52082369 177.3125 95.23828125 C178.67496031 101.44432057 178.67496031 101.44432057 177 105.11328125 C174.55622643 108.19062575 173.56110343 108.20513413 169.5625 108.73828125 C165.82178544 108.6442597 165.37716627 108.29606813 162.375 105.61328125 C159.27200337 101.47036143 156.59412582 97.01802422 153.83569336 92.640625 C150.10613978 86.77868076 145.88384117 81.47126391 141.3125 76.23828125 C140.88710938 75.74585937 140.46171875 75.2534375 140.0234375 74.74609375 C133.68106156 67.43937995 127.00777902 61.14773603 119.3125 55.23828125 C118.44753906 54.53445312 117.58257812 53.830625 116.69140625 53.10546875 C92.10705919 33.64721958 60.57808683 20.9615242 29.3125 18.23828125 C28.60689941 18.1727002 27.90129883 18.10711914 27.17431641 18.03955078 C-6.7854739 15.04753038 -40.7967217 21.82330838 -70.6875 38.23828125 C-71.29674316 38.56441406 -71.90598633 38.89054687 -72.53369141 39.2265625 C-100.27784217 54.0945248 -122.03015971 76.30366976 -138.25 103.06640625 C-139.60946995 105.12038802 -140.75311676 106.71598466 -142.6875 108.23828125 C-146.7385756 108.62409797 -149.41021629 108.79504594 -153.125 107.17578125 C-154.88296529 104.99590429 -155.73586101 103.17956528 -155.96484375 100.3671875 C-153.15373895 78.78898868 -122.54201341 51.98272517 -106.4375 39.55078125 C-76.09084781 16.73922893 -38.42498058 0.38467637 0 0 Z " fill="#000000" transform="translate(244.6875,39.76171875)"/>
<path d="M0 0 C3.33761045 2.15090451 4.73470933 3.20412799 6 7 C6.70608398 7.0093457 7.41216797 7.01869141 8.13964844 7.02832031 C11.34380545 7.08205659 14.54650757 7.16569757 17.75 7.25 C19.41675781 7.27126953 19.41675781 7.27126953 21.1171875 7.29296875 C22.72207031 7.34130859 22.72207031 7.34130859 24.359375 7.390625 C25.83615723 7.4220459 25.83615723 7.4220459 27.34277344 7.45410156 C30.68113084 8.13993096 31.88902077 9.37875502 34 12 C34.53125 14 34.53125 14 34.5 16 C34.51546875 16.99 34.51546875 16.99 34.53125 18 C33.73922269 20.98174986 32.45326814 22.16411059 30 24 C26.984375 24.390625 26.984375 24.390625 23.75 24.25 C22.67234375 24.21390625 21.5946875 24.1778125 20.484375 24.140625 C19.66453125 24.09421875 18.8446875 24.0478125 18 24 C17.70996094 25.21236328 17.70996094 25.21236328 17.4140625 26.44921875 C17.02347656 28.05216797 17.02347656 28.05216797 16.625 29.6875 C16.36976562 30.74324219 16.11453125 31.79898438 15.8515625 32.88671875 C15.08094511 35.70406766 14.14501457 38.31668325 13 41 C14.093125 41.268125 15.18625 41.53625 16.3125 41.8125 C20.94808405 43.3053152 20.94808405 43.3053152 23 46 C23.85563131 50.18565586 23.66259019 53.8680751 21.5 57.5625 C16.2539459 60.57898111 11.05320967 59.01996224 5.5 57.6875 C1.33713308 56.85377665 -0.6923063 56.88509895 -4.25 59.25 C-4.88292969 59.72308594 -5.51585937 60.19617188 -6.16796875 60.68359375 C-10.79117545 64.00559942 -16.47522543 64.61386384 -22 64 C-24.9375 62.5625 -24.9375 62.5625 -27 60 C-27.89386771 55.72668505 -27.76032145 52.26720241 -25.5 48.5 C-21.9787637 46.38725822 -19.08577216 46.27238481 -15 46 C-15.5775 45.01 -16.155 44.02 -16.75 43 C-17.50407356 41.66896625 -18.2538459 40.33548936 -19 39 C-19.36996094 38.34 -19.73992188 37.68 -20.12109375 37 C-22.46694105 32.6004622 -23.58550608 28.97392703 -24 24 C-24.67546875 24.04640625 -25.3509375 24.0928125 -26.046875 24.140625 C-33.24426451 24.43184885 -33.24426451 24.43184885 -36.625 22.5 C-38.51112608 19.07067986 -39.01435425 15.81874543 -38 12 C-35.91389942 9.41371623 -34.75465362 8.13357972 -31.43457031 7.54589844 C-30.49194336 7.5668457 -29.54931641 7.58779297 -28.578125 7.609375 C-27.04091797 7.62871094 -27.04091797 7.62871094 -25.47265625 7.6484375 C-23.87744141 7.69871094 -23.87744141 7.69871094 -22.25 7.75 C-20.63158203 7.77707031 -20.63158203 7.77707031 -18.98046875 7.8046875 C-16.31941212 7.85178585 -13.66015746 7.917544 -11 8 C-10.86980469 7.21238281 -10.73960938 6.42476562 -10.60546875 5.61328125 C-10 3 -10 3 -8.3125 1.1875 C-5.24756099 -0.3863876 -3.40910465 -0.48701495 0 0 Z M-7 24 C-5.68 26.64 -4.36 29.28 -3 32 C-1.0549 29.08235 -0.54723683 27.37462715 0 24 C-2.31 24 -4.62 24 -7 24 Z " fill="#000000" transform="translate(82,188)"/>
<path d="M0 0 C2.9276725 0.6630813 4.04580232 2.24897603 6.03515625 4.4609375 C7.42730713 6.71038818 7.42730713 6.71038818 8.69238281 9.19433594 C9.4126767 10.59664459 9.4126767 10.59664459 10.14752197 12.02728271 C10.65184753 13.03148254 11.1561731 14.03568237 11.67578125 15.0703125 C12.46634918 16.63147797 12.46634918 16.63147797 13.27288818 18.22418213 C14.383084 20.42434944 15.4889641 22.62669903 16.59082031 24.83105469 C18.27631843 28.1933077 19.98696591 31.541935 21.69921875 34.890625 C22.77630817 37.0330663 23.85187975 39.17627148 24.92578125 41.3203125 C25.43820374 42.31641541 25.95062622 43.31251831 26.47857666 44.33880615 C29.2857156 50.02696565 30.79435563 54.10196962 30.03515625 60.4609375 C28.53515625 62.9609375 28.53515625 62.9609375 26.03515625 64.4609375 C23.25143395 65.008555 20.8175943 65.02316209 18.03515625 64.4609375 C14.39388218 61.90220437 12.78844706 58.49350635 11.03515625 54.4609375 C11.03515625 53.8009375 11.03515625 53.1409375 11.03515625 52.4609375 C2.45515625 52.4609375 -6.12484375 52.4609375 -14.96484375 52.4609375 C-15.62484375 54.4409375 -16.28484375 56.4209375 -16.96484375 58.4609375 C-19.5102983 63.23366477 -19.5102983 63.23366477 -21.96484375 64.4609375 C-29.01697645 65.02965788 -29.01697645 65.02965788 -32.46484375 62.9609375 C-34.58162627 59.43296664 -34.59156452 56.4228709 -33.96484375 52.4609375 C-32.49560721 48.4139572 -30.56715958 44.63857355 -28.6015625 40.8125 C-28.0537764 39.71876068 -27.5059903 38.62502136 -26.94160461 37.49813843 C-25.78480872 35.1965952 -24.62026634 32.89893112 -23.44848633 30.60498047 C-21.65214956 27.08555703 -19.88193288 23.55391017 -18.11523438 20.01953125 C-16.98718748 17.78309169 -15.85768037 15.54738793 -14.7265625 13.3125 C-14.19520187 12.25423004 -13.66384125 11.19596008 -13.11637878 10.10562134 C-12.61608658 9.13055634 -12.11579437 8.15549133 -11.6003418 7.15087891 C-11.16288132 6.29120514 -10.72542084 5.43153137 -10.27470398 4.54580688 C-7.62711442 0.33170962 -4.68088643 0.19841908 0 0 Z M-2.96484375 28.4609375 C-5.16623035 32.26521242 -5.16623035 32.26521242 -5.96484375 36.4609375 C-3.32484375 36.4609375 -0.68484375 36.4609375 2.03515625 36.4609375 C0.73360619 32.38129469 0.73360619 32.38129469 -0.96484375 28.4609375 C-1.62484375 28.4609375 -2.28484375 28.4609375 -2.96484375 28.4609375 Z " fill="#000000" transform="translate(433.96484375,187.5390625)"/>
<path d="M0 0 C3.19192509 2.09995072 3.87324126 3.4795885 4.77734375 7.19140625 C5.0337402 11.57713503 4.02941763 14.5046785 2.1875 18.375 C1.87127686 19.06271484 1.55505371 19.75042969 1.22924805 20.45898438 C-5.21476683 34.11640262 -13.3317147 46.50143813 -22.69140625 58.32470703 C-23.82967425 59.78194491 -24.91944692 61.27681008 -26 62.77734375 C-28.21040758 65.68873707 -29.70127669 67.63306619 -33.28125 68.64453125 C-37.39227377 68.93150207 -39.35248964 68.53695981 -42.5625 65.875 C-44.31579198 62.36841603 -44.7587976 60.86986776 -44 57 C-42.83081055 55.2199707 -42.83081055 55.2199707 -41.32421875 53.30078125 C-40.78023438 52.59606689 -40.23625 51.89135254 -39.67578125 51.1652832 C-39.12277344 50.45073975 -38.56976563 49.73619629 -38 49 C-27.58894492 34.97648831 -18.95224923 20.48327251 -11.5078125 4.6953125 C-8.6656257 -0.38528048 -5.45739905 -0.57446306 0 0 Z " fill="#000000" transform="translate(429,301)"/>
<path d="M0 0 C4.8347162 3.88929475 6.8394264 8.40188435 9.25 13.9375 C15.62250838 27.93693701 24.05910502 40.09701908 33.67578125 52.08984375 C35.75379666 54.76492274 36.95607792 56.78038958 37.625 60.125 C36.74340388 64.18034214 35.37427972 65.6098852 32 68 C27.28571429 69.17857143 27.28571429 69.17857143 24 68 C20.40315602 65.16815642 17.72486508 61.64455889 15 58 C14.29520508 57.06728271 14.29520508 57.06728271 13.57617188 56.11572266 C-12.66892433 21.03386492 -12.66892433 21.03386492 -11.75 7.25 C-10.20190428 0.54158523 -6.65046465 -1.05007337 0 0 Z " fill="#000000" transform="translate(90,301)"/>
</svg>
